<svg xmlns="http://www.w3.org/2000/svg" viewBox="0 0 20.6611 16" fill="none">
  <!-- Shield body (Figma asset 96c7c3b2…) -->
  <g>
    <path d="M16.8192 5.05436C16.7374 4.86983 16.6208 4.70096 16.4763 4.55821C16.3788 4.46072 16.2692 4.3754 16.1473 4.3058L11.141 1.41605C11.1323 1.41083 11.1236 1.40561 11.1131 1.40211C10.617 1.12704 10.0147 1.13232 9.5221 1.41605L4.51579 4.3058C4.01444 4.59476 3.70634 5.13095 3.70634 5.70892V11.4902C3.70634 11.901 3.86303 12.291 4.13281 12.5869C4.24246 12.7071 4.37126 12.8098 4.51579 12.8933L4.64809 12.9699L7.35493 14.5314L8.932 15.4436L9.52216 15.7831C9.67357 15.8701 9.83548 15.9328 10.0026 15.9659C10.3855 16.046 10.7912 15.985 11.1411 15.7831L16.1474 12.8933C16.6487 12.6044 16.9568 12.0682 16.9568 11.4903V5.70898C16.9568 5.47913 16.908 5.25633 16.8192 5.05436Z" fill="url(#shield-grad1)"/>
    <path d="M20.2284 2.57724L16.8416 4.52373C16.8395 4.30626 16.7932 4.09739 16.7114 3.90576C16.7103 3.90253 16.7082 3.8993 16.7071 3.89607C16.6263 3.71413 16.5122 3.54833 16.3701 3.40837L16.3691 3.40729C16.2732 3.31148 16.1667 3.22858 16.0461 3.16075L11.1252 0.319612C11.1166 0.314229 11.108 0.309922 11.0983 0.305616C11.0639 0.286237 11.0284 0.269013 10.9918 0.252864C10.5267 0.0375443 9.98412 0.0601523 9.53413 0.319612L4.61329 3.16075C4.15038 3.42667 3.85541 3.90792 3.82096 4.43545C3.81881 4.4699 3.81773 4.50542 3.81773 4.53987V4.5205L3.74668 4.47959L0.430953 2.57401C0.269473 2.47711 0.0703146 2.62246 0.112299 2.80656L0.805588 5.76828C0.833578 5.89208 0.877716 6.00943 0.936925 6.11817C1.07257 6.37009 1.28464 6.57572 1.54624 6.70384L3.81773 7.81273V8.37257L1.91011 7.38424C1.81861 7.32934 1.70665 7.41008 1.73033 7.51451L2.12004 9.07558C2.17279 9.30597 2.32673 9.49976 2.53773 9.60312L3.81773 10.2275C3.81881 10.6291 3.97275 11.0102 4.2365 11.2998C4.34416 11.4183 4.47119 11.5195 4.61329 11.6013L4.74355 11.6766L4.75324 11.682L7.40367 13.2119L7.46073 13.2452L8.95388 14.1087L9.03892 14.1571L9.53413 14.4424C9.68269 14.5275 9.84202 14.5888 10.0067 14.6211C10.0595 14.6319 10.1122 14.6405 10.165 14.6459C10.4922 14.6814 10.8292 14.6125 11.1252 14.4424L16.0461 11.6013C16.4455 11.3709 16.7189 10.9822 16.8094 10.5419V10.5408C16.8298 10.4396 16.8406 10.3352 16.8416 10.2297L18.1216 9.60526C18.3337 9.50191 18.4866 9.30813 18.5393 9.07774L18.7816 8.10772L18.9291 7.51667C18.9527 7.41332 18.8408 7.33149 18.7493 7.3864L16.8416 8.37579V7.81596L19.1131 6.70707C19.4888 6.52297 19.7612 6.17953 19.8549 5.7715L19.9464 5.37854L20.5471 2.8087C20.5891 2.62461 20.3899 2.48035 20.2284 2.57724Z" fill="url(#shield-grad2)"/>
    <path d="M20.5471 2.8087L19.9464 5.37854L19.8549 5.7715C19.7612 6.17953 19.4888 6.52297 19.1131 6.70707L16.8416 7.81596V8.37579L18.7493 7.3864C18.8408 7.33149 18.9527 7.41332 18.929 7.51667L18.7816 8.10772L18.5393 9.07774C18.4866 9.30813 18.3337 9.50191 18.1216 9.60526L16.8416 10.2297C16.8406 10.3352 16.8298 10.4396 16.8094 10.5408V10.5419C16.7189 10.9822 16.4455 11.3709 16.0461 11.6013L11.1252 14.4424C10.8292 14.6125 10.4922 14.6814 10.165 14.6459C10.1122 14.6405 10.0595 14.6319 10.0067 14.6211C9.84202 14.5888 9.68269 14.5275 9.53413 14.4424L9.03893 14.1571L8.95388 14.1087L7.46072 13.2452L7.40367 13.2119L4.75324 11.682L4.74355 11.6766L4.61329 11.6013C4.47119 11.5195 4.34416 11.4183 4.23651 11.2998C3.97275 11.0102 3.81881 10.6291 3.81773 10.2275L2.53773 9.60312C2.32673 9.49976 2.17279 9.30597 2.12004 9.07558L1.73033 7.51451C1.70665 7.41008 1.81861 7.32934 1.91011 7.38424L3.81773 8.37257V7.81273L1.54624 6.70384C1.28465 6.57572 1.07257 6.37009 0.936925 6.11817C0.877716 6.00943 0.833578 5.89208 0.805588 5.76828L0.112299 2.80656C0.0703146 2.62246 0.269474 2.47711 0.430954 2.57401L3.74668 4.47959L3.81773 4.5205V4.53987C3.81773 4.50542 3.81881 4.4699 3.82096 4.43545C3.85541 3.90792 4.15038 3.42667 4.61329 3.16075L9.53413 0.319612C9.98412 0.0601523 10.5267 0.0375443 10.9918 0.252864C11.0284 0.269013 11.0639 0.286237 11.0983 0.305616C11.108 0.309922 11.1166 0.314229 11.1252 0.319612L16.0461 3.16075C16.1667 3.22858 16.2732 3.31148 16.369 3.40729L16.3701 3.40837C16.5122 3.54833 16.6263 3.71413 16.7071 3.89607C16.7082 3.8993 16.7103 3.90253 16.7114 3.90576C16.7932 4.09739 16.8395 4.30626 16.8416 4.52373L20.2284 2.57724C20.3899 2.48035 20.5891 2.62461 20.5471 2.8087Z" fill="url(#shield-grad3)"/>
    <path d="M16.1462 3.08728L11.1403 0.196616C11.1317 0.19231 11.1231 0.186926 11.1123 0.18262L10.9928 0.252595L3.82202 4.43518L3.74774 4.47932L0.937988 6.1179C1.07363 6.36983 1.28571 6.57546 1.54731 6.70357L3.81879 7.81246V8.3723L1.91117 7.38397C1.81967 7.32907 1.70771 7.40982 1.73139 7.51425L2.1211 9.07531C2.17385 9.3057 2.3278 9.49949 2.5388 9.60285L3.81879 10.2273C3.81987 10.6288 3.97382 11.01 4.23757 11.2996L16.3701 3.40702L16.4756 3.3392C16.3776 3.24123 16.2689 3.15618 16.1462 3.08728ZM9.03999 14.1569L9.53519 14.4421C9.68375 14.5272 9.84308 14.5886 10.0078 14.6209C10.0605 14.6316 10.1133 14.6402 10.166 14.6456L16.8104 10.5416V10.5406C16.8309 10.4394 16.8416 10.3349 16.8427 10.2294L18.1227 9.605C18.3348 9.50164 18.4877 9.30786 18.5404 9.07747L18.7826 8.10745L9.03999 14.1569ZM20.2295 2.57697L16.8427 4.52346C16.8406 4.30599 16.7943 4.09712 16.7125 3.90549L4.7543 11.6818L4.64773 11.7507L7.35413 13.3128L7.46179 13.245L19.9474 5.37827L20.5481 2.80844C20.5901 2.62434 20.391 2.48008 20.2295 2.57697Z" fill="url(#shield-grad4)"/>
    <path d="M4.84668 10.3652V4.40202C4.84668 4.28736 4.90788 4.18142 5.00714 4.1241L10.1711 1.14262C10.2704 1.08529 10.3927 1.08529 10.492 1.14262L15.6557 4.1241C15.755 4.18142 15.8161 4.28736 15.8161 4.40202V10.3652C15.8161 10.4798 15.755 10.5858 15.6557 10.6432L10.4918 13.6246C10.3924 13.682 10.2702 13.682 10.1708 13.6246L5.00714 10.6432C4.90783 10.5858 4.84668 10.4798 4.84668 10.3652Z" fill="#6C46C5"/>
    <path d="M5.74632 9.84185V4.91976C5.74632 4.8051 5.80747 4.69911 5.90678 4.64184L10.1692 2.1809C10.2685 2.12357 10.3908 2.12357 10.4901 2.1809L14.7523 4.64184C14.8516 4.69917 14.9127 4.8051 14.9127 4.91976V9.84185C14.9127 9.95651 14.8516 10.0624 14.7523 10.1198L10.4899 12.5807C10.3906 12.638 10.2683 12.638 10.169 12.5807L5.90678 10.1198C5.80747 10.0625 5.74632 9.95651 5.74632 9.84185Z" fill="#795FCE"/>
    <path d="M20.5917 2.5623C20.5304 2.48543 20.4359 2.43957 20.339 2.43957C20.2816 2.43957 20.2245 2.45561 20.1756 2.48495L16.9391 4.34515C16.9203 4.18102 16.8782 4.02174 16.8145 3.87327L16.8095 3.86014L16.8063 3.85346C16.7193 3.65725 16.5981 3.48209 16.446 3.33218C16.3405 3.22683 16.224 3.13795 16.1008 3.06851L11.1833 0.229526C11.1702 0.221344 11.1574 0.214674 11.1519 0.21279C11.1145 0.191742 11.0759 0.172955 11.0378 0.15616C10.814 0.052538 10.5754 0 10.3287 0C10.0323 0 9.73917 0.0786441 9.48118 0.22743L4.56056 3.06841C4.09345 3.3368 3.78481 3.80814 3.72237 4.34191L0.48722 2.48274C0.43673 2.45243 0.379781 2.43645 0.322456 2.43645C0.225514 2.43645 0.130995 2.48242 0.0696321 2.55945C0.00853876 2.63589 -0.0137459 2.73509 0.00832305 2.83209L0.701451 5.79301C0.73154 5.92591 0.779122 6.05295 0.842961 6.17025C0.991092 6.44532 1.21819 6.66365 1.49992 6.80162L3.7109 7.88102V8.19662L1.96638 7.29297C1.93031 7.27133 1.88951 7.25992 1.84855 7.25992C1.77992 7.25992 1.71302 7.29228 1.66985 7.34638C1.62662 7.40053 1.61075 7.47088 1.62673 7.54172L2.01601 9.10074C2.07624 9.3637 2.24951 9.58241 2.4914 9.701L3.71252 10.2967C3.72953 10.6951 3.88621 11.0752 4.15772 11.3734C4.27221 11.4993 4.40774 11.6078 4.56029 11.6956L7.35034 13.306L8.90141 14.2033L8.98603 14.2515L9.4815 14.5369C9.64352 14.6297 9.81351 14.6939 9.98602 14.7277C10.0459 14.74 10.1012 14.7486 10.1541 14.754C10.2135 14.7605 10.274 14.7638 10.3339 14.7638C10.6289 14.7638 10.9214 14.6853 11.1799 14.5368L16.1008 11.6957C16.521 11.4533 16.8179 11.041 16.9157 10.5646L16.9179 10.5525C16.934 10.4697 16.9442 10.3847 16.9483 10.299L18.1696 9.70315C18.4115 9.58537 18.5849 9.3665 18.6446 9.10489L19.0348 7.54188C19.0505 7.47368 19.0347 7.40349 18.9915 7.34928C18.9482 7.29475 18.8811 7.26223 18.8123 7.26223C18.7712 7.26223 18.7307 7.27365 18.7006 7.29195L16.9502 8.19985V7.88435L19.1614 6.8049C19.568 6.60562 19.8593 6.23812 19.9606 5.79699L20.6529 2.83371C20.6748 2.73741 20.6525 2.63847 20.5917 2.5623ZM20.5478 2.80975L19.9471 5.37959L19.8556 5.77255C19.762 6.18058 19.4896 6.52402 19.1139 6.70811L16.8424 7.81701V8.37684L18.75 7.38745C18.8415 7.33254 18.9535 7.41436 18.9298 7.51772L18.7823 8.10877L18.5401 9.07878C18.4874 9.30917 18.3345 9.50296 18.1224 9.60631L16.8424 10.2307C16.8413 10.3362 16.8306 10.4407 16.8101 10.5419V10.543C16.7197 10.9833 16.4463 11.3719 16.0469 11.6023L11.126 14.4435C10.83 14.6136 10.493 14.6825 10.1658 14.6469C10.113 14.6416 10.0603 14.6329 10.0075 14.6222C9.84279 14.5899 9.68346 14.5285 9.5349 14.4435L9.03969 14.1582L8.95465 14.1097L7.4615 13.2463L7.40444 13.2129L4.75401 11.6831L4.74432 11.6777L4.61406 11.6023C4.47196 11.5205 4.34493 11.4193 4.23727 11.3009C3.97352 11.0113 3.81958 10.6302 3.8185 10.2286L2.5385 9.60416C2.3275 9.50081 2.17356 9.30702 2.12081 9.07663L1.7311 7.51556C1.70742 7.41113 1.81938 7.33038 1.91088 7.38529L3.8185 8.37361V7.81378L1.54701 6.70489C1.28542 6.57677 1.07334 6.37114 0.937697 6.11922C0.878487 6.01048 0.834349 5.89313 0.806359 5.76932L0.113071 2.8076C0.0710858 2.62351 0.270244 2.47816 0.431724 2.57505L3.74745 4.48063L3.8185 4.52154V4.54092C3.8185 4.50647 3.81958 4.47095 3.82173 4.4365C3.85618 3.90896 4.15115 3.42772 4.61406 3.1618L9.5349 0.32066C9.98489 0.0611997 10.5275 0.0385917 10.9925 0.253911C11.0291 0.27006 11.0647 0.287285 11.0991 0.306663C11.1088 0.31097 11.1174 0.315277 11.126 0.32066L16.0469 3.1618C16.1674 3.22963 16.274 3.31252 16.3698 3.40834L16.3709 3.40942C16.513 3.54938 16.6271 3.71517 16.7078 3.89712C16.7089 3.90035 16.7111 3.90358 16.7122 3.9068C16.794 4.09844 16.8403 4.3073 16.8424 4.52478L20.2292 2.57829C20.3907 2.48139 20.5898 2.62565 20.5478 2.80975Z" fill="url(#shield-grad5)"/>
  </g>

  <!-- Star (Figma asset f36536cf…), centered inside the shield -->
  <g transform="translate(7.115 4.578)">
    <path d="M3.39305 0.836712L3.95064 2.55297C4.01976 2.76559 4.21789 2.90959 4.44144 2.90959H6.24592C6.42581 2.90959 6.50058 3.13977 6.35508 3.24555L4.89519 4.30626C4.71434 4.43766 4.6386 4.67063 4.70772 4.88326L5.26536 6.59952C5.32096 6.77059 5.12514 6.91286 4.97959 6.80714L3.51971 5.74643C3.33885 5.61503 3.09389 5.61503 2.91303 5.74643L1.45314 6.80714C1.30759 6.91286 1.11182 6.77059 1.16737 6.59952L1.72502 4.88326C1.79408 4.67063 1.7184 4.43766 1.53754 4.30626L0.0776494 3.24555C-0.0678981 3.13982 0.00692188 2.90959 0.186811 2.90959H1.9913C2.21489 2.90959 2.41303 2.76559 2.48209 2.55297L3.03974 0.836712C3.09539 0.665586 3.33745 0.665586 3.39305 0.836712Z" fill="#6C46C5"/>
    <path d="M3.39231 0.128366L3.9499 1.84463C4.01901 2.05725 4.21715 2.20125 4.44069 2.20125H6.24518C6.42507 2.20125 6.49983 2.43142 6.35434 2.5372L4.89445 3.59791C4.71359 3.72931 4.63786 3.9623 4.70697 4.17492L5.26462 5.89118C5.32022 6.06225 5.1244 6.20452 4.97885 6.0988L3.51897 5.03808C3.33811 4.90668 3.09314 4.90668 2.91228 5.03808L1.4524 6.0988C1.30685 6.20452 1.11108 6.06225 1.16663 5.89118L1.72427 4.17492C1.79333 3.9623 1.71765 3.72931 1.5368 3.59791L0.0769058 2.5372C-0.0686417 2.43148 0.00617826 2.20125 0.186067 2.20125H1.99055C2.21415 2.20125 2.41229 2.05731 2.48135 1.84463L3.03899 0.128366C3.09465 -0.0427054 3.33671 -0.0427054 3.39231 0.128366Z" fill="url(#star-grad)"/>
  </g>

  <defs>
    <linearGradient id="shield-grad1" x1="3.70637" y1="8.59973" x2="16.9568" y2="8.59973" gradientUnits="userSpaceOnUse">
      <stop stop-color="#6C46C5"/>
      <stop offset="1" stop-color="#332156"/>
    </linearGradient>
    <radialGradient id="shield-grad2" cx="0" cy="0" r="1" gradientUnits="userSpaceOnUse" gradientTransform="translate(10.3297 7.38081) scale(8.87183 8.87235)">
      <stop stop-color="#C3C6FF"/>
      <stop offset="1" stop-color="#A2A0F5"/>
    </radialGradient>
    <linearGradient id="shield-grad3" x1="0.106615" y1="7.3808" x2="20.5528" y2="7.3808" gradientUnits="userSpaceOnUse">
      <stop stop-color="#948DF0"/>
      <stop offset="1" stop-color="#ADB2FA"/>
    </linearGradient>
    <linearGradient id="shield-grad4" x1="3.74758" y1="11.6641" x2="19.6569" y2="1.31786" gradientUnits="userSpaceOnUse">
      <stop stop-color="#A8AAF8"/>
      <stop offset="1" stop-color="#C8CDFE"/>
    </linearGradient>
    <radialGradient id="shield-grad5" cx="0" cy="0" r="1" gradientUnits="userSpaceOnUse" gradientTransform="translate(10.3305 7.38188) scale(8.97792 8.97844)">
      <stop stop-color="#C3C6FF"/>
      <stop offset="1" stop-color="#A2A0F5"/>
    </radialGradient>
    <radialGradient id="star-grad" cx="0" cy="0" r="1" gradientUnits="userSpaceOnUse" gradientTransform="translate(3.21568 3.06761) scale(3.14235 3.14254)">
      <stop stop-color="#C3C6FF"/>
      <stop offset="1" stop-color="#A2A0F5"/>
    </radialGradient>
  </defs>
</svg>
