<svg width="31" height="24" viewBox="0 0 31 24" fill="none" xmlns="http://www.w3.org/2000/svg">
<path d="M25.2279 7.58278C25.1052 7.30601 24.9303 7.05272 24.7135 6.8386C24.5673 6.69238 24.4028 6.56441 24.22 6.46001L16.7106 2.12564C16.6976 2.11781 16.6845 2.10998 16.6688 2.10473C15.9247 1.69215 15.0212 1.70006 14.2822 2.12564L6.77276 6.46001C6.02075 6.89342 5.55859 7.69767 5.55859 8.56458V17.236C5.55859 17.8522 5.79363 18.4371 6.1983 18.881C6.36276 19.0612 6.55597 19.2153 6.77276 19.3406L6.97122 19.4555L11.0315 21.7976L13.3971 23.1658L14.2823 23.6749C14.5094 23.8055 14.7523 23.8995 15.003 23.9491C15.5774 24.0693 16.1858 23.9779 16.7107 23.6749L24.2201 19.3406C24.9721 18.9071 25.4343 18.1029 25.4343 17.2361V8.56466C25.4342 8.2199 25.3611 7.88572 25.2279 7.58278Z" fill="url(#paint0_linear_2163_8744)"/>
<path d="M30.3438 3.86685L25.2637 6.78641C25.2604 6.46022 25.191 6.14694 25.0683 5.85951C25.0667 5.85466 25.0634 5.84982 25.0618 5.84498C24.9407 5.57208 24.7695 5.32339 24.5564 5.11347L24.5548 5.11185C24.4111 4.96814 24.2512 4.8438 24.0703 4.74207L16.6891 0.480604C16.6762 0.47253 16.6632 0.46607 16.6487 0.459611C16.597 0.430544 16.5437 0.404709 16.4888 0.380487C15.7912 0.0575265 14.9774 0.0914365 14.3024 0.480604L6.92114 4.74207C6.22678 5.14092 5.78432 5.86274 5.73265 6.654C5.72942 6.70567 5.7278 6.75895 5.7278 6.81063V6.78156L5.62123 6.7202L0.647635 3.862C0.405415 3.71667 0.106678 3.93467 0.169656 4.2108L1.20959 8.65312C1.25157 8.83883 1.31778 9.01484 1.40659 9.17793C1.61006 9.5558 1.92817 9.86422 2.32057 10.0564L5.7278 11.7196V12.5593L2.86638 11.0769C2.72912 10.9946 2.56118 11.1157 2.5967 11.2723L3.18126 13.6138C3.26039 13.9594 3.4913 14.25 3.8078 14.405L5.7278 15.3416C5.72942 15.944 5.96033 16.5156 6.35596 16.95C6.51744 17.1276 6.70799 17.2794 6.92114 17.4021L7.11653 17.5151L7.13106 17.5232L11.1067 19.8179L11.1923 19.8679L13.432 21.163L13.5596 21.2357L14.3024 21.6636C14.5252 21.7911 14.7642 21.8832 15.0113 21.9316C15.0904 21.9478 15.1695 21.9607 15.2487 21.9688C15.7396 22.0221 16.245 21.9187 16.6891 21.6636L24.0703 17.4021C24.6694 17.0566 25.0796 16.4736 25.2152 15.8131V15.8115C25.2459 15.6597 25.2621 15.5031 25.2637 15.3449L27.1837 14.4083C27.5018 14.2532 27.7311 13.9626 27.8102 13.617L28.1735 12.1621L28.3948 11.2756C28.4303 11.1205 28.2624 10.9978 28.1251 11.0802L25.2637 12.5642V11.7245L28.6709 10.0612C29.2345 9.78509 29.643 9.26997 29.7835 8.65796L29.9208 8.06856L30.8218 4.21402C30.8848 3.93789 30.5861 3.72152 30.3438 3.86685Z" fill="url(#paint1_radial_2163_8744)"/>
<path d="M30.8218 4.21402L29.9208 8.06856L29.7835 8.65796C29.643 9.26997 29.2345 9.78509 28.6709 10.0612L25.2637 11.7245V12.5642L28.1251 11.0802C28.2624 10.9978 28.4303 11.1205 28.3948 11.2756L28.1735 12.1621L27.8102 13.617C27.7311 13.9626 27.5018 14.2532 27.1837 14.4083L25.2637 15.3449C25.2621 15.5031 25.2459 15.6597 25.2152 15.8115V15.8131C25.0796 16.4736 24.6694 17.0566 24.0703 17.4021L16.6891 21.6636C16.245 21.9187 15.7396 22.0221 15.2487 21.9688C15.1696 21.9607 15.0904 21.9478 15.0113 21.9316C14.7642 21.8832 14.5252 21.7911 14.3024 21.6636L13.5596 21.2357L13.432 21.163L11.1923 19.8679L11.1067 19.8179L7.13107 17.5232L7.11653 17.5151L6.92114 17.4021C6.70799 17.2794 6.51744 17.1276 6.35596 16.95C5.96034 16.5156 5.72942 15.944 5.7278 15.3416L3.80781 14.405C3.4913 14.25 3.26039 13.9594 3.18126 13.6138L2.5967 11.2723C2.56118 11.1157 2.72912 10.9946 2.86637 11.0769L5.7278 12.5593V11.7196L2.32052 10.0564C1.92812 9.86458 1.61001 9.55615 1.40654 9.17829C1.31773 9.0152 1.25152 8.83918 1.20954 8.65348L0.169606 4.21116C0.106629 3.93503 0.405366 3.71702 0.647586 3.86236L5.62118 6.72056L5.72775 6.78192V6.81099C5.72775 6.75931 5.72937 6.70603 5.7326 6.65436C5.78427 5.8631 6.22673 5.14128 6.92109 4.74243L14.3023 0.480961C14.9773 0.0917941 15.7912 0.0578841 16.4888 0.380844C16.5437 0.405066 16.597 0.430902 16.6487 0.459968C16.6632 0.466427 16.6761 0.472887 16.689 0.480961L24.0703 4.74243C24.2511 4.84416 24.411 4.96849 24.5547 5.11221L24.5563 5.11383C24.7695 5.32375 24.9407 5.57244 25.0618 5.84534C25.0634 5.85018 25.0666 5.85502 25.0682 5.85987C25.191 6.1473 25.2604 6.46058 25.2636 6.78677L30.3438 3.86721C30.586 3.72187 30.8848 3.93825 30.8218 4.21402Z" fill="url(#paint2_linear_2163_8744)"/>
<path d="M24.2186 4.6331L16.7097 0.29736C16.6968 0.290901 16.6839 0.282826 16.6677 0.276367L16.4885 0.381323L5.7323 6.65483L5.62088 6.72104L1.40625 9.17877C1.60971 9.55663 1.92783 9.86506 2.32023 10.0572L5.72746 11.7205V12.5602L2.86603 11.0778C2.72877 10.9954 2.56083 11.1165 2.59636 11.2732L3.18092 13.6146C3.26004 13.9602 3.49096 14.2509 3.80746 14.4059L5.72746 15.3425C5.72907 15.9448 5.95999 16.5164 6.35562 16.9508L24.5544 5.11269L24.7127 5.01097C24.5657 4.86402 24.4026 4.73645 24.2186 4.6331ZM13.5592 21.2365L14.3021 21.6644C14.5249 21.792 14.7639 21.884 15.011 21.9325C15.0901 21.9486 15.1692 21.9615 15.2483 21.9696L25.2149 15.814V15.8124C25.2456 15.6606 25.2617 15.5039 25.2633 15.3457L27.1833 14.4091C27.5014 14.2541 27.7307 13.9634 27.8099 13.6179L28.1732 12.1629L13.5592 21.2365ZM30.3435 3.86768L25.2633 6.78725C25.2601 6.46106 25.1907 6.14778 25.0679 5.86034L7.13072 17.5241L6.97086 17.6274L11.0305 19.9705L11.1919 19.8687L29.9204 8.06939L30.8215 4.21486C30.8845 3.93873 30.5857 3.72235 30.3435 3.86768Z" fill="url(#paint3_linear_2163_8744)"/>
<path d="M7.26855 15.544V6.59978C7.26855 6.4278 7.36036 6.26891 7.50924 6.18292L15.2551 1.71098C15.4041 1.62499 15.5875 1.62499 15.7365 1.71098L23.4821 6.18292C23.631 6.26891 23.7227 6.4278 23.7227 6.59978V15.544C23.7227 15.716 23.631 15.8749 23.4821 15.9609L15.7362 20.4329C15.5872 20.5189 15.4038 20.5189 15.2548 20.4329L7.50924 15.9609C7.36028 15.875 7.26855 15.716 7.26855 15.544Z" fill="#6C46C5"/>
<path d="M8.62109 14.7633V7.38056C8.62109 7.20858 8.71282 7.0496 8.86178 6.9637L15.2553 3.2725C15.4043 3.18651 15.5878 3.18651 15.7367 3.2725L22.13 6.9637C22.279 7.04969 22.3707 7.20858 22.3707 7.38056V14.7633C22.3707 14.9352 22.279 15.0941 22.13 15.1801L15.7365 18.8713C15.5875 18.9573 15.404 18.9573 15.2551 18.8713L8.86178 15.1801C8.71282 15.0942 8.62109 14.9352 8.62109 14.7633Z" fill="#795FCE"/>
<path d="M30.8876 3.84323C30.7956 3.72793 30.6539 3.65914 30.5085 3.65914C30.4224 3.65914 30.3368 3.6832 30.2635 3.7272L25.4086 6.51734C25.3804 6.27116 25.3173 6.03225 25.2218 5.80957L25.2142 5.78987L25.2094 5.77985C25.0789 5.48556 24.8972 5.22283 24.6691 4.99797C24.5107 4.83996 24.336 4.70666 24.1512 4.6025L16.775 0.344269C16.7553 0.331996 16.7361 0.321992 16.7279 0.319166C16.6717 0.287596 16.6139 0.259418 16.5568 0.234227C16.2211 0.0788024 15.8631 0 15.4931 0C15.0484 0 14.6088 0.117959 14.2218 0.341125L6.84083 4.60234C6.14017 5.00491 5.67721 5.71187 5.58355 6.51249L0.730829 3.72389C0.655095 3.67843 0.569672 3.65445 0.483684 3.65445C0.338271 3.65445 0.196492 3.72341 0.104448 3.83895C0.0128081 3.9536 -0.0206189 4.1024 0.0124846 4.24789L1.05218 8.689C1.09731 8.88835 1.16868 9.0789 1.26444 9.25483C1.48664 9.66741 1.82728 9.9949 2.24987 10.2018L5.56635 11.8208V12.2942L2.94957 10.9388C2.89547 10.9064 2.83427 10.8892 2.77283 10.8892C2.66988 10.8892 2.56952 10.9378 2.50477 11.0189C2.43994 11.1001 2.41612 11.2057 2.4401 11.3119L3.02401 13.6503C3.11436 14.0447 3.37426 14.3728 3.73711 14.5507L5.56877 15.4441C5.59429 16.0418 5.82932 16.6119 6.23657 17.0591C6.40831 17.2479 6.61161 17.4106 6.84043 17.5424L11.0255 19.9578L13.3521 21.3037L13.479 21.376L14.2223 21.8041C14.4653 21.9433 14.7203 22.0396 14.979 22.0903C15.0689 22.1086 15.1517 22.1216 15.2312 22.1297C15.3203 22.1394 15.411 22.1443 15.5009 22.1443C15.9433 22.1443 16.3821 22.0266 16.7698 21.8039L24.1513 17.5425C24.7814 17.1789 25.2269 16.5606 25.3736 15.846L25.3769 15.8278C25.401 15.7036 25.4163 15.5761 25.4225 15.4476L27.2544 14.5539C27.6173 14.3772 27.8773 14.0489 27.9669 13.6565L28.5522 11.3122C28.5757 11.2099 28.5521 11.1046 28.4873 11.0233C28.4223 10.9415 28.3217 10.8927 28.2184 10.8927C28.1569 10.8927 28.096 10.9098 28.0509 10.9373L25.4253 12.2991V11.8258L28.7421 10.2068C29.3521 9.90785 29.789 9.35664 29.9409 8.69497L30.9793 4.25032C31.0122 4.10587 30.9787 3.95747 30.8876 3.84323ZM30.8218 4.21438L29.9207 8.06891L29.7835 8.65832C29.643 9.27033 29.2344 9.78545 28.6709 10.0616L25.2636 11.7248V12.5645L28.1251 11.0805C28.2623 10.9982 28.4303 11.1209 28.3947 11.2759L28.1735 12.1624L27.8102 13.6174C27.731 13.9629 27.5017 14.2536 27.1836 14.4086L25.2636 15.3452C25.262 15.5035 25.2459 15.6601 25.2152 15.8119V15.8135C25.0795 16.474 24.6694 17.0569 24.0703 17.4025L16.689 21.6639C16.245 21.9191 15.7395 22.0224 15.2486 21.9691C15.1695 21.9611 15.0904 21.9481 15.0112 21.932C14.7642 21.8835 14.5252 21.7915 14.3023 21.6639L13.5595 21.236L13.432 21.1633L11.1922 19.8683L11.1067 19.8182L7.13101 17.5236L7.11648 17.5155L6.92109 17.4025C6.70794 17.2798 6.51739 17.128 6.35591 16.9503C5.96028 16.5159 5.72937 15.9443 5.72775 15.342L3.80775 14.4054C3.49125 14.2504 3.26034 13.9597 3.18121 13.6141L2.59665 11.2727C2.56113 11.116 2.72907 10.9949 2.86633 11.0773L5.72775 12.5597V11.72L2.32052 10.0567C1.92812 9.86458 1.61001 9.55615 1.40654 9.17829C1.31773 9.0152 1.25152 8.83918 1.20954 8.65348L0.169606 4.21116C0.106629 3.93503 0.405366 3.71702 0.647586 3.86236L5.62118 6.72056L5.72775 6.78192V6.81099C5.72775 6.75931 5.72937 6.70603 5.7326 6.65436C5.78427 5.8631 6.22673 5.14128 6.92109 4.74243L14.3023 0.480961C14.9773 0.0917941 15.7912 0.0578841 16.4888 0.380844C16.5437 0.405066 16.597 0.430902 16.6487 0.459968C16.6632 0.466427 16.6761 0.472887 16.689 0.480961L24.0703 4.74243C24.2511 4.84416 24.411 4.96849 24.5547 5.11221L24.5563 5.11383C24.7695 5.32375 24.9407 5.57244 25.0618 5.84534C25.0634 5.85018 25.0666 5.85502 25.0682 5.85987C25.191 6.1473 25.2604 6.46058 25.2636 6.78677L30.3438 3.86721C30.586 3.72187 30.8848 3.93825 30.8218 4.21438Z" fill="url(#paint4_radial_2163_8744)"/>
<path d="M15.7613 7.33899L16.5977 9.91322C16.7014 10.2321 16.9986 10.4481 17.3339 10.4481H20.0406C20.3105 10.4481 20.4226 10.7934 20.2044 10.952L18.0145 12.543C17.7432 12.7401 17.6296 13.0895 17.7333 13.4085L18.5698 15.9827C18.6532 16.2393 18.3594 16.4527 18.1411 16.2941L15.9513 14.7031C15.68 14.506 15.3126 14.506 15.0413 14.7031L12.8514 16.2941C12.6331 16.4527 12.3395 16.2393 12.4228 15.9827L13.2593 13.4085C13.3628 13.0895 13.2493 12.7401 12.978 12.543L10.7882 10.952C10.5699 10.7935 10.6821 10.4481 10.952 10.4481H13.6587C13.9941 10.4481 14.2913 10.2321 14.3949 9.91322L15.2313 7.33899C15.3148 7.08232 15.6779 7.08232 15.7613 7.33899Z" fill="#6C46C5"/>
<path d="M15.7613 6.27838L16.5977 8.85262C16.7014 9.17155 16.9986 9.38753 17.3339 9.38753H20.0406C20.3105 9.38753 20.4226 9.73277 20.2044 9.89142L18.0145 11.4824C17.7432 11.6795 17.6296 12.0289 17.7333 12.3479L18.5698 14.9221C18.6532 15.1787 18.3594 15.3921 18.1411 15.2335L15.9513 13.6425C15.68 13.4454 15.3126 13.4454 15.0413 13.6425L12.8514 15.2335C12.6331 15.3921 12.3395 15.1787 12.4228 14.9221L13.2593 12.3479C13.3628 12.0289 13.2493 11.6795 12.978 11.4824L10.7882 9.89142C10.5699 9.73285 10.6821 9.38753 10.952 9.38753H13.6587C13.9941 9.38753 14.2913 9.17163 14.3949 8.85262L15.2313 6.27838C15.3148 6.02179 15.6779 6.02179 15.7613 6.27838Z" fill="url(#paint5_radial_2163_8744)"/>
<defs>
<linearGradient id="paint0_linear_2163_8744" x1="5.55863" y1="12.9005" x2="25.4342" y2="12.9005" gradientUnits="userSpaceOnUse">
<stop stop-color="#6C46C5"/>
<stop offset="1" stop-color="#332156"/>
</linearGradient>
<radialGradient id="paint1_radial_2163_8744" cx="0" cy="0" r="1" gradientUnits="userSpaceOnUse" gradientTransform="translate(15.4958 11.0718) scale(13.3077)">
<stop stop-color="#C3C6FF"/>
<stop offset="1" stop-color="#A2A0F5"/>
</radialGradient>
<linearGradient id="paint2_linear_2163_8744" x1="0.161129" y1="11.0718" x2="30.8303" y2="11.0718" gradientUnits="userSpaceOnUse">
<stop stop-color="#948DF0"/>
<stop offset="1" stop-color="#ADB2FA"/>
</linearGradient>
<linearGradient id="paint3_linear_2163_8744" x1="5.62064" y1="17.4976" x2="29.4839" y2="1.97786" gradientUnits="userSpaceOnUse">
<stop stop-color="#A8AAF8"/>
<stop offset="1" stop-color="#C8CDFE"/>
</linearGradient>
<radialGradient id="paint4_radial_2163_8744" cx="0" cy="0" r="1" gradientUnits="userSpaceOnUse" gradientTransform="translate(15.4957 11.0722) scale(13.4669 13.4669)">
<stop stop-color="#C3C6FF"/>
<stop offset="1" stop-color="#A2A0F5"/>
</radialGradient>
<radialGradient id="paint5_radial_2163_8744" cx="0" cy="0" r="1" gradientUnits="userSpaceOnUse" gradientTransform="translate(15.4964 10.687) scale(4.71352 4.71353)">
<stop stop-color="#C3C6FF"/>
<stop offset="1" stop-color="#A2A0F5"/>
</radialGradient>
</defs>
</svg>
