<svg width="256" height="256" fill="none" viewBox="0 0 256 256" id="activecampaign" xmlns="http://www.w3.org/2000/svg"><path d="M74 56h108c9.941 0 18 8.059 18 18v108c0 9.941-8.059 18-18 18H74c-9.941 0-18-8.059-18-18V74c0-9.941 8.059-18 18-18z" fill="#356AE6"/><path d="M133.741 129.817a193.542 193.542 0 0 1 3.578-2.457c-8.153-5.698-16.194-11.634-24.546-17.037-1.969-1.441-4.549-.412-4.549 2.132v5.126c6.014 4.197 11.977 8.479 18.066 12.569 2.538 1.701 4.837 1.596 7.451-.333z" fill="#fff"/><path d="M158.73 122.318c-16.325-12.303-33.513-23.579-50.242-35.329v7.988c0 2.541 1.319 3.503 2.991 4.721 0 0 35.547 24.945 39.953 28.025-4.437 3.096-37.887 26.453-39.998 27.818-2.532 1.698-2.783 2.8-2.783 5.09v8.578s48.996-35.306 50.071-36.079l.008-.005c3.611-2.73 3.704-8.194 0-10.807z" fill="#fff"/></svg>