<svg width="256" height="256" fill="none" viewBox="0 0 256 256" id="actito" xmlns="http://www.w3.org/2000/svg"><path d="M128.114 52.034h-.459c-50.502 34.434-49.584 77.82-49.584 79.427 0-27.318 22.267-49.584 49.584-49.584 17.676 0 33.745 9.411 42.698 23.644 4.591 7.575 7.345 16.528 7.345 25.94v70.243c0 1.148.689 2.066 1.837 2.296l25.021 7.575c1.607.459 3.214-.688 3.214-2.295v-77.59c-.229-43.845-35.81-79.656-79.656-79.656Z" fill="#478736"/><path d="M48 131.689c35.122 51.421 79.656 49.584 79.656 49.584-27.317 0-49.584-22.267-49.584-49.584 0 0-2.066-44.533 49.584-79.655C84.27 52.034 48 87.844 48 131.689Z" fill="#000"/><path d="M48 131.689c35.122 51.421 79.656 49.584 79.656 49.584-27.317 0-49.584-22.267-49.584-49.584 0 0-2.066-44.533 49.584-79.655C84.27 52.034 48 87.844 48 131.689Z" fill="url(#aaa)"/><path d="M207.312 46.525c0-1.607-1.607-2.755-3.214-2.295l-25.021 7.116c-1.148.23-1.837 1.377-1.837 2.295l.459 77.131s1.378 44.763-50.043 79.885c43.157 0 80.115-35.811 80.115-79.885l-.459-84.247Z" fill="#6BBD4D"/><path d="M48 131.691c0 43.845 35.81 78.967 79.885 78.967 37.188-25.481 46.6-55.093 49.125-70.015-4.362 23.185-25.021 40.632-49.354 40.632 0 0-44.534 1.836-79.656-49.584Z" fill="url(#aab)"/><defs><linearGradient id="aaa" x1="87.356" y1="98.123" x2="88.709" y2="153.775" gradientUnits="userSpaceOnUse"><stop stop-color="#6BBD4D"/><stop offset=".134" stop-color="#6BBD4D"/><stop offset=".305" stop-color="#62B047"/><stop offset=".748" stop-color="#4E923B"/><stop offset="1" stop-color="#478736"/></linearGradient><linearGradient id="aab" x1="47.995" y1="171.143" x2="176.963" y2="171.143" gradientUnits="userSpaceOnUse"><stop stop-color="#6BBD4D"/><stop offset=".146" stop-color="#6BBD4D"/><stop offset=".374" stop-color="#5FAB45"/><stop offset=".763" stop-color="#4D913A"/><stop offset=".995" stop-color="#478736"/><stop offset="1" stop-color="#478736"/></linearGradient></defs></svg>