<svg width="256" height="256" fill="none" viewBox="0 0 256 256" id="acuityscheduling" xmlns="http://www.w3.org/2000/svg"><path d="m148.619 100.019-7.81-7.834-50.187 50.249c-6.812 7.67-19.153 7.96-26.325.775-7.174-7.187-6.883-19.535.778-26.361l43.303-43.374-7.834-7.787-43.298 43.361c-11.03 11.276-10.932 29.888.215 41.048 11.136 11.149 29.739 11.242 40.986.205l50.167-50.282h.005zm49.952 8.995c-11.09-11.095-29.992-11.204-41.191 0l-50.182 50.253 7.825 7.835 50.177-50.254c7.062-6.284 18.133-5.956 24.811.736 6.684 6.697 7.01 17.771.731 24.85l-43.308 43.36 7.82 7.824 43.303-43.35c11.206-11.251 11.206-30.013 0-41.263l.014.009z" fill="#000"/><path d="M131.823 83.42c6.961-6.949 18.586-6.949 25.547 0l3.908 3.917 7.819-7.835-3.917-3.917c-11.22-11.21-29.97-11.21-41.191 0l-50.172 50.268 7.82 7.825 50.186-50.258zm-7.82 92.437 50.182-50.244 7.82 7.787-50.182 50.253c-11.21 11.213-29.991 11.213-41.2 0l-3.908-3.917 7.834-7.787 3.907 3.908c6.961 6.949 18.586 6.949 25.547 0z" fill="#000"/></svg>