<svg width="256" height="256" fill="none" viewBox="0 0 256 256" id="airtable" xmlns="http://www.w3.org/2000/svg"><path d="M119.444 63.687 59.79 88.372c-3.317 1.375-3.282 6.085.056 7.408l59.9 23.755a22.23 22.23 0 0 0 16.388 0l59.901-23.755c3.338-1.325 3.375-6.035.055-7.408l-59.651-24.683a22.225 22.225 0 0 0-16.998 0" fill="#FC0"/><path d="M133.256 132.51v59.344c.003 2.773 2.891 4.734 5.47 3.715l66.751-25.911a4.033 4.033 0 0 0 2.522-3.715v-59.34c-.003-2.773-2.891-4.735-5.47-3.716l-66.751 25.911a4.035 4.035 0 0 0-2.522 3.712Z" fill="#31C2F2"/><path d="m117.674 135.573-63.639 30.575c-2.65 1.281-6.035-.65-6.035-3.6v-55.695c0-2.834 3.478-4.686 5.93-3.715l63.414 25.125c3.25 1.28 3.5 5.795.332 7.313" fill="#ED3049"/><path d="m117.673 135.574-19.81 9.565-48.586-40.965c1.2-1.196 3.049-1.675 4.65-1.04l63.414 25.125c3.25 1.28 3.5 5.798.332 7.315Z" fill="#C62842"/></svg>