<svg width="256" height="256" fill="none" viewBox="0 0 256 256" id="alloydb" xmlns="http://www.w3.org/2000/svg"><path d="m127.624 45 78.62 39.049-17.454 8.892-61.166-30.389L66.45 92.945 49 84.055v-.004L127.624 45Z" fill="#4285F4"/><path d="M64.725 100.884v62.252l62.899 31.25 62.899-31.25v-62.26l15.725-8.01v80.021l-78.624 39.051L49 172.887V92.873l15.725 8.011Z" fill="#4285F4"/><path d="m180.162 97.291-16.026 8.129-36.582-18.092-36.581 18.092-16.026-8.129 52.673-26.012 52.542 26.012Z" fill="#AECBFA"/><path d="M96.11 125.729v-14.152l31.444-15.487 31.49 15.618v14.021l-31.424 16.05-31.51-16.05Z" fill="#AECBFA"/><path d="m88.223 112.876-15.668-7.98v53.617l15.668 7.619v-53.256Zm78.739 0 15.668-7.98v53.617l-15.668 7.619v-53.256Zm-39.407 55.228L96.185 152.6v-17.733l31.37 15.697 31.49-15.964v17.94l-31.49 15.564Z" fill="#669DF6"/></svg>