<svg width="256" height="256" viewBox="0 0 256 256" id="amazons3" xmlns="http://www.w3.org/2000/svg"><g fill="none"><path fill="#8C3123" d="m72.81 75.766-10.654 5.327v93.6l10.654 5.327 26.146-52.137z"/><path fill="#E05243" d="M128.341 166.556 72.809 180V75.766l55.532 13.444 26.244 38.829z"/><path fill="#8C3123" d="M128.341 166.556 183.853 180l9.6-50.79-9.6-53.444-55.512 13.444z"/><path fill="#E05243" d="m183.854 75.766 10.673 5.327v93.6l-10.673 5.327z"/><path fill="#8C3123" d="m104.127 145.132 24.215 3.102 19.2-20.195-19.2-20.176-24.215 3.044z"/><path fill="#5E1F18" d="m152.556 94.341-24.215 4.41-24.215-4.41L128.341 48z"/><path fill="#F2B0A9" d="m152.556 161.659-24.215-4.449-24.215 4.449L128.341 208z"/><path fill="#E05243" d="m152.556 94.341-24.215-5.99V48l24.215 12.098z"/><path fill="#8C3123" d="m104.127 94.341 24.215-5.99V48l-24.215 12.098z"/><path fill="#E05243" d="m128.341 208 24.215-12.098v-34.244l-24.215 5.99z"/><path fill="#8C3123" d="m128.341 208-24.215-12.098v-34.244l24.215 5.99z"/><path fill="#E05243" d="m152.556 145.132-24.215 3.102v-40.371l24.215 3.044z"/></g></svg>