<svg width="256" height="256" fill="none" viewBox="0 0 256 256" id="amazonrds" xmlns="http://www.w3.org/2000/svg"><path fill-rule="evenodd" clip-rule="evenodd" d="m78.602 87.19 12.26-4.201L78.602 79 65.38 82.755 78.6 87.19zm13.958 16.335-13.063 4.729V88.678l13.063-4.492v19.339zM77.1 88.69l-13.06-4.492v19.315l13.062 4.73V88.69zm-44.536 25.492 12.26-4.201-12.26-3.989-13.222 3.755 13.222 4.435zm-1.501 1.5L18 111.188v19.327l13.063 4.729v-19.562zm29.313 21.295-12.26 4.202-13.22-4.436 13.22-3.754 12.26 3.988zm-11.365 25.266 13.062-4.73v-19.328l-13.062 4.494v19.564zm-2.396 0-13.06-4.732v-19.325l13.062 4.493-.002 19.564zm-.091-31.726-13.065 4.729v-19.572l13.065-4.486v19.329zm1.96-19.323 13.065 4.492v19.564l-13.065-4.729v-19.327zm15.46 24.056 13.063-4.729v-19.333l-13.062 4.492v19.57zm11.365-25.266-12.26 4.202-13.222-4.436 13.221-3.754 12.26 3.988zm19.21-25.798 13.066 4.508-.003 19.549-13.063-4.73V84.186zm15.463 24.072 13.062-4.729V84.186l-13.062 4.492v19.58zm11.363-25.265-12.259 4.2-13.222-4.43 13.22-3.757 12.261 3.987z" fill="#FCBD17"/><path fill-rule="evenodd" clip-rule="evenodd" d="M100.842 132.244a7.22 7.22 0 0 0 1.855 4.78c.355.383.348.995-.015 1.369-.35.308-3.742 3.447-3.779 3.41a.98.98 0 0 1-1.16.12 12.418 12.418 0 0 1-2.816-3.434c-1.971 2.538-4.983 3.931-8.098 3.745-4.393.275-7.758-3.796-7.353-8.03-.119-3.685 1.975-7.053 5.238-8.424a32.57 32.57 0 0 1 9.237-1.784c0-1.536.078-2.964-.599-4.405-1.905-2.594-6.097-1.231-6.705 1.752a1.07 1.07 0 0 1-.856.948l-4.816-.551c-.467-.099-.77-.576-.676-1.067 1.892-8.132 12.356-10.399 18.382-5.324 2.196 2.153 2.181 4.966 2.164 8.05-.016 2.948-.003 5.897-.003 8.845zm-7.813 2.458c.993-2.143.918-4.295.92-6.581-3.552 0-7.307.798-7.307 5.185 0 4.046 4.707 4.999 6.387 1.396z" fill="#000"/><path d="M132.662 113.038c-3.038-.093-5.784 1.889-6.787 4.898-.902-2.919-3.494-4.896-6.42-4.896-2.925 0-5.518 1.977-6.42 4.896l-.095-3.452c-.04-.491-.424-.872-.893-.888h-4.575c-.511-.014-.937.408-.951.944v26.453c.047.479.421.85.88.872h4.912c.523.015.938-.436.95-.945 0-4.785.008-9.571 0-14.356-.005-3.026-.011-6.96 3.394-6.96 3.131 0 3.078 3.505 3.035 6.356-.075 4.983-.01 9.971-.01 14.954.008.513.396.93.884.951h4.905c.523.014.938-.437.95-.947v-14.021c-.105-1.703.05-3.413.46-5.065.475-1.275 1.63-2.129 2.935-2.17 1.398-.205 2.69.816 2.889 2.282.162 1.645.208 3.301.138 4.953v14.019c.008.511.395.928.882.95h4.907c.523.014.938-.437.95-.947v-16.694c.69-4.832-.971-11.301-6.919-11.183l-.001-.004z" fill="#000"/><path fill-rule="evenodd" clip-rule="evenodd" d="M164.678 132.244a7.222 7.222 0 0 0 1.857 4.78c.355.384.347.996-.017 1.369a224.376 224.376 0 0 0-3.767 3.422l-.012-.012a.981.981 0 0 1-1.16.12 12.429 12.429 0 0 1-2.816-3.434c-1.971 2.538-4.983 3.93-8.099 3.745-4.392.275-7.757-3.796-7.352-8.03-.119-3.685 1.975-7.053 5.238-8.424a32.566 32.566 0 0 1 9.237-1.784c0-1.536.078-2.964-.599-4.405-1.904-2.595-6.096-1.23-6.704 1.752a1.07 1.07 0 0 1-.856.948l-4.817-.551c-.467-.099-.77-.576-.677-1.067 1.208-5.184 5.941-8.584 10.986-7.889 2.68-.107 5.307.804 7.398 2.565 2.196 2.152 2.18 4.963 2.163 8.044-.016 2.951-.003 5.901-.003 8.851zm-6.891-3.008c.29 2.937-.631 7.629-4.321 7.809-1.884 0-2.987-1.507-2.987-3.739 0-4.387 3.753-5.185 7.307-5.185l.001 1.115z" fill="#000"/><path d="M228.941 113.038c6.22-.307 7.428 6.49 7.013 11.354v16.642c-.069.486-.472.842-.941.832h-4.923c-.445-.022-.812-.371-.875-.833v-14.358c0-2.895.322-7.122-3.072-7.122-3.286.148-3.756 4.636-3.623 7.123v14.238c-.019.537-.444.96-.956.951h-4.896c-.486-.023-.872-.439-.88-.95l-.009-26.456c.055-.5.464-.874.944-.864h4.556a.946.946 0 0 1 .873.74l.095 4.045c.749-3.215 3.54-5.442 6.694-5.342z" fill="#000"/><path fill-rule="evenodd" clip-rule="evenodd" d="M199.952 113.038c-7.05 0-10.963 6.401-10.963 14.637 0 8.176 3.867 14.748 10.963 14.748 6.824 0 11.145-6.401 11.145-14.469 0-8.349-3.912-14.916-11.145-14.916zm0 23.929v-.003c3.776 0 3.959-4.885 3.959-8.275.089-2.691.324-9.848-3.914-9.572-3.593 0-3.821 5.175-3.821 8.403 0 2.708-.357 9.447 3.776 9.447z" fill="#000"/><path d="M187.72 134.7a17.215 17.215 0 0 0-9.21-2.074l8.364-12.527a5.378 5.378 0 0 0 1.217-2.379v-3.24c.007-.496-.379-.95-.888-.958h-16.19c-.491-.012-.9.395-.912.911v3.825c-.006.52.39.946.886.953h8.481l-9.688 14.586a4.735 4.735 0 0 0-.6 2.592v3.833c0 .555.587 1.189 1.15.875a17.83 17.83 0 0 1 17.057-.022c.608.334 1.188-.309 1.188-.864v-4.032a1.742 1.742 0 0 0-.856-1.48l.001.001zm36.38 35.706c2.008 1.08 8.884 3.112 8.884-1.062 0-1.44-1.031-2.259-3.637-3.255-3.605-1.333-5.954-3.453-5.954-6.805 0-3.934 3.089-6.948 8.202-6.948 1.903-.038 3.791.36 5.537 1.166l-1.096 4.21c-1.78-.918-7.69-2.312-7.69 1.13 0 1.467 1.226 2.119 4.022 3.249 3.829 1.503 5.632 3.623 5.632 6.873 0 7.6-9.61 8.36-14.901 5.749l1.001-4.307z" fill="#000"/><path fill-rule="evenodd" clip-rule="evenodd" d="m182.508 153.021-.003 22.756h4.859v-9.067c2.818 0 4.37.587 4.996 3.698a30.188 30.188 0 0 0 1.509 5.369h5.017c-.417-.886-1.092-3.903-1.77-6.499-.257-1.847-1.334-3.451-2.895-4.309v-.111c2.268-.853 3.796-3.117 3.831-5.675.39-7.874-10.45-6.948-15.544-6.162zm4.858 9.923v-6.367c2.455-.432 5.823-.185 5.823 3.047 0 3.312-3.376 3.32-5.823 3.32zm14.201-9.923c5.19-.793 11.027-1.207 15.511 1.987 5.249 4.359 4.797 13.475.066 18.031-4.537 3.392-10.202 3.344-15.572 2.634l-.005-22.652zm4.922 18.818v-15.088c4.747-1.012 9.607 1.834 9.045 7.115.694 5.429-4.14 8.757-9.045 7.973z" fill="#000"/></svg>