<svg width="256" height="256" fill="none" viewBox="0 0 256 256" id="amplitude" xmlns="http://www.w3.org/2000/svg"><path d="M128 48c-44.25 0-80 35.75-80 80s35.75 80 80 80 80-35.75 80-80-35.75-80-80-80Z" fill="#146FF8"/><path d="M208 128c0 44.183-35.817 80-80 80s-80-35.817-80-80 35.817-80 80-80 80 35.817 80 80Z" fill="#146FF8"/><path fill-rule="evenodd" clip-rule="evenodd" d="M181.637 130.218h-36.923c2.611 9.478 7.187 36.929 14.38 37.58 4.57 0 6.861-6.861 11.763-21.567.97-2.61 1.96-5.549 2.943-8.823 1.174-2.327 4.014-.288 3.267 1.962-.44 2.113-.982 4.251-1.634 6.861-2.942 12.746-7.518 32.353-18.956 32.353-10.378-.268-20.36-40.13-20.36-40.13s-1.335-5.528-2.189-8.236H99.616l-7.187 23.529c-1.634 3.258-6.861 1.64-6.536-1.96.97-7.189 2.285-14.054 3.92-21.569h-14.38c-5.879-.98-6.205-9.804-.326-11.109 5.57-.331 10.808 0 16.996 0 7.513-31.699 16.34-47.712 25.811-47.712 10.461 0 17.973 24.508 24.184 48.366 13.186.37 26.379.648 39.539 1.634 5.559 0 5.062 8.821 0 8.821Zm-62.74-47.056c-4.901-5.556-13.071 19.933-16.99 36.272 9.478 0 19.282.325 29.085.325-4.25-14.707-5.881-24.504-12.095-36.597Z" fill="#fff"/></svg>