<svg width="256" height="256" viewBox="0 0 256 256" id="asana" xmlns="http://www.w3.org/2000/svg"><defs><radialGradient cx="50.001%" cy="59.217%" fx="50.001%" fy="59.217%" r="59.235%" gradientTransform="matrix(.924 0 0 1 .038 0)" id="aja"><stop stop-color="#FFB900" offset="0%"/><stop stop-color="#F95D8F" offset="60%"/><stop stop-color="#F95353" offset="99.91%"/><stop stop-color="#F95353" offset="100%"/></radialGradient></defs><path d="M44.578 165.371c0 19.949 16.175 36.123 36.123 36.123 19.95 0 36.124-16.173 36.124-36.123s-16.173-36.12-36.124-36.12c-19.948 0-36.123 16.17-36.123 36.12m93.849-.003c0 19.952 16.17 36.125 36.123 36.125 19.949 0 36.121-16.173 36.121-36.125 0-19.948-16.172-36.121-36.121-36.121-19.952 0-36.123 16.173-36.123 36.121M127.626 47.972h-.118c-19.897.063-36.005 16.212-36.005 36.121 0 19.95 16.172 36.125 36.123 36.125 19.949 0 36.12-16.175 36.12-36.125 0-19.909-16.108-36.059-36.004-36.121h-.117" fill="url(#aja)"/></svg>