<svg width="256" height="256" viewBox="0 0 256 256" id="avalara" xmlns="http://www.w3.org/2000/svg"><g fill="none"><path fill="#059BD2" d="M127.734 168.863s-8.173-10.014-13.007-15.424l-6.792 16c9.784 14.503 16.23 27.05 19.799 33.036 6.906-11.741 23.827-46.504 58.705-79.08l-3.914-9.093c-22.676 16.806-42.014 38.216-54.791 54.561"/><path fill="#FC6600" d="M178.612 207.194h27.74L181.95 148.72c-7.137 7.598-13.238 15.08-18.648 22.216l15.31 36.26zM139.82 48.345h-24.403L49 207.195h27.741l48-113.267 2.302-6.1h1.266l2.303 6.1 14.273 33.612a264.237 264.237 0 0 1 20.49-18.418L139.82 48.345z"/></g></svg>