<svg width="256" height="256" fill="none" viewBox="0 0 256 256" id="azuredatalakestorage" xmlns="http://www.w3.org/2000/svg"><path d="M66 68.334v119.232c0 12.494 27.552 22.351 62 22.351V68.334H66Z" fill="#3E3E3E"/><path d="M127.012 210.229h.987c34.119 0 62-10.169 62-22.333V68.334h-62.987V210.23Z" fill="#A0A1A2"/><path d="M190 68.333c0 12.477-27.552 22.333-62 22.333S66 80.81 66 68.333C66 56.17 93.88 46 128 46c34.119 0 62 10.169 62 22.333Z" fill="#fff"/><path d="M177.194 67.015c0 8.208-21.972 14.785-49.195 14.785-27.222 0-49.194-6.577-49.194-14.785s21.972-14.784 49.194-14.784c27.223 0 49.195 6.576 49.195 14.784Z" fill="#7FBA00"/><path d="M167.039 76.213c6.55-2.62 10.155-5.588 10.155-9.198 0-8.208-21.972-14.784-49.195-14.784-27.222 0-49.194 6.576-49.194 14.784 0 3.28 3.933 6.577 10.154 9.198 8.855-3.627 22.96-5.918 39.04-5.918 15.751 0 29.857 2.308 39.04 5.918Z" fill="#B8D432"/><path d="M127.012 210.228v-59.122c-8.744-.052-17.04-4.714-21.643-12.147-8.35 13.85-28.374 16.282-39.369 4.269v44.666c0 12.165 27.222 22.021 61.012 22.334Z" fill="#3999C6"/><path d="M149.333 138.959c-4.263 7.219-13.118 11.818-22.302 12.147v59.122h.971c34.119 0 62-10.169 62-22.334v-44.996c-11.332 12.295-31.739 10.088-40.669-3.939Z" fill="#59B4D9"/></svg>