<svg width="256" height="256" fill="none" viewBox="0 0 256 256" id="azureblobstorage" xmlns="http://www.w3.org/2000/svg"><path d="M168.342 49H87.658a9.31 9.31 0 0 0-8.069 4.658l-40.342 69.877a9.323 9.323 0 0 0 0 9.317l40.342 69.877a9.317 9.317 0 0 0 8.069 4.658h80.684a9.312 9.312 0 0 0 8.069-4.658l40.342-69.877a9.323 9.323 0 0 0 0-9.317l-40.342-69.877A9.311 9.311 0 0 0 168.342 49Z" fill="#2979FF"/><path d="M165.268 179.437H90.733a4.66 4.66 0 0 1-4.659-4.658v-93.17a4.66 4.66 0 0 1 4.659-4.658h60.559l18.634 18.634v79.194a4.66 4.66 0 0 1-4.658 4.658Z" fill="#fff"/><path d="M151.293 76.951v13.976a4.66 4.66 0 0 0 4.658 4.658h13.976l-18.634-18.634Z" fill="#B1CFFF"/><path d="M119.918 127.407h-6.219v-19.803l-6.112 1.784v-4.71l11.758-4.067h.568l.005 26.796Zm29.986-10.952c0 5.873-2.832 11.315-9.312 11.315-6.489 0-9.359-5.416-9.359-11.315v-4.896c0-5.877 2.843-11.316 9.322-11.316 6.468 0 9.349 5.431 9.349 11.311v4.901Zm-6.205-5.684c0-2.157-.25-5.739-3.144-5.739-2.902 0-3.108 3.585-3.108 5.739v6.443c0 2.182.206 5.781 3.145 5.781 2.909 0 3.112-3.636 3.112-5.781l-.005-6.443Zm-18.922 43.375c0 5.874-2.833 11.316-9.313 11.316-6.489 0-9.359-5.416-9.359-11.316v-4.896c0-5.888 2.846-11.311 9.331-11.311 6.469 0 9.35 5.431 9.35 11.311v4.896h-.009Zm-6.201-5.688c0-2.158-.25-5.739-3.144-5.739-2.902 0-3.108 3.584-3.108 5.739v6.443c0 2.182.206 5.781 3.145 5.781 2.909 0 3.112-3.636 3.112-5.781v-6.443h-.005Zm26.469 16.636h-6.219v-19.803l-6.111 1.784v-4.71l11.757-4.067h.569l.004 26.796Z" fill="#03A9F4"/></svg>