<svg width="256" height="256" fill="none" viewBox="0 0 256 256" id="azurefilestorage" xmlns="http://www.w3.org/2000/svg"><path d="M56 182.959c0 2.423 2.016 5.041 5 5.041h134c2.408 0 5-2.036 5-5.041V86H56v96.959z" fill="#A0A1A2"/><path d="M61 64c-2.984 0-5 2.605-5 5v17h144V69c0-2.395-2.016-5-5-5H61z" fill="#7A7A7A"/><path d="M110 95h36v22h-36V95z" fill="#fff"/><path d="M110 125h36v22h-36v-22zm43 0h36v22h-36v-22z" fill="#FCD116"/><path d="M153 95h36v22h-36V95zm-86 0h36v22H67V95zm0 30h36v22H67v-22z" fill="#fff"/><path d="M67 155h36v22H67v-22zm43 0h36v22h-36v-22zm43 0h36v22h-36v-22z" fill="#FCD116"/><path opacity=".2" d="M61 64c-2.11 0-5 2.62-5 5.04v113.92c0 2.421 2.89 5.041 5 5.041h7L182 64H61z" fill="#fff"/></svg>