<svg width="256" height="256" fill="none" viewBox="0 0 256 256" id="azuredwh" xmlns="http://www.w3.org/2000/svg"><path d="M127.999 46 56.477 86.909v81.727L128 210l71.523-40.909v-82L127.999 46zm58.311 114.527-58.311 33.711-58.31-33.356V95.018l58.31-33.711 58.311 33.802v65.418z" fill="#0078D4"/><path d="M127.999 46 56.477 86.909l13.211 8.109L128 61.307l58.311 33.71 13.212-8.108L127.999 46z" fill="url(#ana)"/><path d="M154.006 130c-8.376-11.683-21.43-19.611-35.673-21.65l59.013-34.103-13.721-7.872L109 97.953v23.575c15.249-.712 29.916 7.782 36.876 21.399l-66.957 38.694 13.666 7.891 61.421-35.509c-.006-11.003 0-12.003 0-24.003z" fill="#50E6FF"/><path d="M156.163 128.116c-9.13 0-16.855 7.664-16.856 16.855 0 9.062 7.726 16.856 16.856 16.856 9.083 0 16.856-7.684 16.856-16.856 0-9.181-7.675-16.855-16.856-16.855zm-56.325-34.13c-9.253 0-16.788 7.855-16.846 16.855-.058 9.038 7.776 16.856 16.846 16.855 9.083 0 16.856-7.683 16.856-16.855 0-9.181-7.675-16.856-16.856-16.856z" fill="url(#anb)"/><defs><linearGradient id="ana" x1="127.999" y1="95.018" x2="127.999" y2="46" gradientUnits="userSpaceOnUse"><stop offset=".199" stop-color="#005BA1"/><stop offset="1" stop-color="#0078D4"/></linearGradient><linearGradient id="anb" x1="128.001" y1="161.827" x2="128.001" y2="94.168" gradientUnits="userSpaceOnUse"><stop stop-color="#198AB3"/><stop offset=".172" stop-color="#32BEDD"/><stop offset=".5" stop-color="#198AB3"/><stop offset=".662" stop-color="#32BEDD"/><stop offset=".975" stop-color="#50E6FF"/></linearGradient></defs></svg>