<svg width="256" height="256" fill="none" viewBox="0 0 256 256" id="backup" xmlns="http://www.w3.org/2000/svg"><path d="M48 128c0-44.183 35.817-80 80-80s80 35.817 80 80-35.817 80-80 80-80-35.817-80-80z" fill="#277DFF"/><path fill-rule="evenodd" clip-rule="evenodd" d="M117.396 100.131c-4.691.659-18.021 3.416-18.021 10.198 0 5.263 12.402 10.846 28.165 10.846 15.764 0 28.166-5.583 28.166-10.846 0-4.412-9.131-9.385-22.169-10.576l.607-6.64c16.095 1.471 28.229 8.08 28.229 17.216 0 3.516-1.807 6.657-4.934 9.274 6.271 5.09 6.325 13.256.264 18.512 3.045 2.568 4.67 5.663 4.67 9.246 0 10.399-15.803 17.512-34.833 17.512-19.029 0-34.832-7.113-34.832-17.512 0-3.639 2.116-6.818 4.79-9.143-6.267-5.347-5.98-13.27.262-18.518-3.2-2.636-5.052-5.811-5.052-9.371 0-11.118 15.692-15.785 24.338-16.88l-.46-8.783 12.268 11.083-11.043 12.304-.415-7.922zm33.811 23.269c-13.995 6.326-33.262 6.326-47.267.03-1.863 1.185-4.565 3.14-4.565 5.637 0 5.263 12.402 10.846 28.165 10.846 15.764 0 28.166-5.583 28.166-10.846 0-1.991-1.337-3.857-4.499-5.667zm-51.832 23.961c0-2.347 2.423-4.21 4.165-5.376 14.137 6.567 33.968 6.567 48.09-.042 2.859 1.732 4.076 3.518 4.076 5.418 0 5.263-12.402 10.846-28.166 10.846-15.763 0-28.165-5.583-28.165-10.846z" fill="#fff"/></svg>