<svg width="256" height="256" fill="none" viewBox="0 0 256 256" id="bamboohr" xmlns="http://www.w3.org/2000/svg"><path fill-rule="evenodd" clip-rule="evenodd" d="M164.097 99.032c27.047 0 51.239 23.688 50.735 51.24 0 29.4-22.512 52.416-52.415 52.416-27.048 0-50.736-19.488-50.736-50.064V53h15.624v60.984c10.212-10.213 22.207-14.952 36.792-14.952Zm-37.968 53.088c0 20.664 16.632 36.288 36.288 36.288 22.343 0 36.791-16.128 36.791-36.792 0-18.984-13.272-37.464-36.287-37.464-22.344 0-36.792 17.304-36.792 37.968Z" fill="#73C41D"/><path d="M104.12 119.193c-2.492-8.563-4.734-17.235-7.65-25.664C93.126 83.863 90.752 77 80.264 65.6 76.232 61.569 62.96 54.009 62.96 54.009c14.836 16.149 24.029 35.171 29.262 46 1.463 3.028 2.617 5.415 3.498 6.92-7.934-9.067-16.676-17.949-26.743-24.634C56.507 74.014 40.819 68.715 26 67.281c0 0 17.136 14.448 24.696 23.688 6.888 9.072 14.952 17.136 23.016 20.664 9.751 4.015 20.058 5.793 30.408 7.56Z" fill="#73C41D"/></svg>