<svg width="256" height="256" viewBox="0 0 256 256" id="bigcommerce" xmlns="http://www.w3.org/2000/svg"><path d="M124.3 131.2h21.1c6 0 9.8-3.3 9.8-8.6 0-5-3.8-8.6-9.8-8.6h-21.1c-.7 0-1.3.6-1.3 1.2V130c.1.7.6 1.2 1.3 1.2zm0 34.1h21.8c6.7 0 10.7-3.4 10.7-9.4 0-5.2-3.8-9.4-10.7-9.4h-21.8c-.7 0-1.3.6-1.3 1.2V164c.1.8.6 1.3 1.3 1.3zm77.75-128.931-62.672 62.51h10.244c15.969 0 25.41 10.05 25.41 21.004 0 8.643-5.825 14.974-12.052 17.788-1.004.402-1.004 1.809.1 2.211 7.231 2.814 12.354 10.351 12.354 19.195 0 12.462-8.336 22.411-24.506 22.411h-44.393c-.703 0-1.306-.603-1.306-1.206v-47.335l-68.798 68.54c-.904.904-.301 2.512 1.004 2.512h165.418c.603 0 1.105-.502 1.105-1.105V37.273c.301-1.105-1.105-1.708-1.908-.904z" fill="#34313F"/></svg>