<svg width="256" height="256" fill="none" viewBox="0 0 256 256" id="bigquery" xmlns="http://www.w3.org/2000/svg"><path d="m78.057 198.562-36.523-63.259a15.998 15.998 0 0 1 0-15.998l36.523-63.259a16 16 0 0 1 13.855-8h73.045c5.716 0 10.997 3.05 13.855 8l36.523 63.259a15.997 15.997 0 0 1 0 15.998l-36.523 63.259a15.998 15.998 0 0 1-13.855 7.999H91.912a15.997 15.997 0 0 1-13.855-7.999z" fill="url(#asa)"/><path opacity=".07" d="m203.133 156.438-24.321 42.124a15.998 15.998 0 0 1-13.855 7.999h-2.889l-55.982-55.982-6.45-23.275 8.022-20.905 20.776-7.72 23.131 6.19 51.568 51.569z" fill="#000"/><path d="M113.116 126.058v10.03a17.8 17.8 0 0 0 6.096 6.227v-16.257h-6.096zm12.085 18.55v-27.006h6.097v27.049a17.562 17.562 0 0 1-6.097-.043zm12.647-14.381v11.912a17.797 17.797 0 0 0 6.097-6.54v-5.372h-6.097z" fill="#fff"/><path fill-rule="evenodd" clip-rule="evenodd" d="M96.164 127.304c0-17.824 14.448-32.272 32.27-32.272 17.823 0 32.271 14.448 32.271 32.272a32.128 32.128 0 0 1-6.875 19.913l12.647 12.648a1.52 1.52 0 0 1 0 2.138l-3.343 3.341a1.516 1.516 0 0 1-2.139 0L148.348 152.7a32.131 32.131 0 0 1-19.914 6.875c-17.822 0-32.27-14.449-32.27-32.271zm7.785 0c0 13.524 10.962 24.486 24.485 24.486 13.524 0 24.488-10.962 24.488-24.486 0-13.523-10.964-24.488-24.488-24.488-13.523 0-24.485 10.965-24.485 24.488z" fill="#fff"/><defs><linearGradient id="asa" x1="39.529" y1="48.047" x2="39.529" y2="206.316" gradientUnits="userSpaceOnUse"><stop stop-color="#4387FD"/><stop offset="1" stop-color="#4683EA"/></linearGradient></defs></svg>