<svg width="256" height="256" fill="none" viewBox="0 0 256 256" id="bitbucket" xmlns="http://www.w3.org/2000/svg"><path d="m197.893 125.338-11.777 71.766c-.768 4.342-3.84 6.896-8.193 6.896H78.077c-4.353 0-7.425-2.554-8.193-6.896L49.147 69.151C48.379 64.809 50.683 62 54.779 62h146.442c4.096 0 6.4 2.809 5.632 7.15l-5.632 33.713c-.768 4.853-3.584 6.896-8.193 6.896h-88.07c-1.28 0-2.048.766-1.792 2.299l6.913 42.395c.256 1.022 1.024 1.788 2.048 1.788h31.746c1.024 0 1.792-.766 2.048-1.788l4.865-30.647c.511-3.831 3.072-5.364 6.656-5.364h34.562c5.121 0 6.657 2.554 5.889 6.896Z" fill="#1868DB"/></svg>