<svg width="256" height="256" viewBox="0 0 256 256" id="box" xmlns="http://www.w3.org/2000/svg"><path d="M134.396 100.426c20.034 0 36.285 16.241 36.285 36.281 0 20.048-16.252 36.294-36.285 36.294-13.886 0-25.969-7.817-32.054-19.274-6.087 11.457-18.165 19.274-32.06 19.274-19.847 0-35.954-15.923-36.273-35.689h-.008V77.113c.091-3.95 3.281-7.112 7.245-7.112s7.186 3.162 7.257 7.112v30.571a36.185 36.185 0 0 1 21.779-7.257c13.895 0 25.973 7.81 32.06 19.278 6.085-11.468 18.169-19.278 32.054-19.278zm92.59 60.426c2.501 3.207 1.782 7.659-1.665 10.04-3.451 2.383-8.291 1.776-10.964-1.331l-16.965-20.793-16.975 20.793c-2.642 3.107-7.514 3.714-10.955 1.331-3.44-2.382-4.159-6.834-1.65-10.04h-.007l19.712-24.193-19.712-24.24h.007c-2.509-3.198-1.79-7.66 1.65-10.035 3.44-2.392 8.312-1.779 10.955 1.324v-.005l16.975 20.822 16.989-20.822v.005c2.67-3.103 7.512-3.716 10.963-1.324 3.447 2.372 4.162 6.837 1.666 10.035l-19.748 24.24 19.724 24.193zm-92.59-2.38c12.02 0 21.764-9.741 21.764-21.766 0-12.014-9.745-21.753-21.764-21.753-12.025 0-21.774 9.739-21.774 21.753 0 12.025 9.75 21.766 21.774 21.766zm-64.114 0c12.021 0 21.757-9.741 21.757-21.766 0-12.014-9.736-21.753-21.757-21.753-12.022 0-21.779 9.739-21.779 21.758 0 12.023 9.757 21.761 21.779 21.761z" fill="#0259D2"/></svg>