<svg width="256" height="256" fill="none" viewBox="0 0 256 256" id="constantcontact" xmlns="http://www.w3.org/2000/svg"><path fill-rule="evenodd" clip-rule="evenodd" d="M155.267 109.485c1.422 4.257 5.405 6.811 9.957 6.811 1.138 0 2.276-.283 3.414-.567 5.405-1.987 8.249-7.947 6.258-13.34-3.414-9.366-10.526-16.746-20.482-21.287-5.121-2.27-11.38 0-13.94 5.109-2.276 5.109 0 11.353 5.121 13.907 5.12 2.271 8.25 5.393 9.672 9.367zm-3.415-65.28c-5.689-1.135-11.094 2.555-12.232 8.231-1.138 5.677 2.56 11.07 8.25 12.205 23.612 4.541 39.542 20.435 43.525 43.425.854 5.109 5.405 8.515 10.241 8.515.569 0 1.138 0 1.707-.284 5.69-1.135 9.388-6.528 8.535-11.92-5.405-31.221-27.879-53.928-60.026-60.172z" fill="#FF9E1A"/><path fill-rule="evenodd" clip-rule="evenodd" d="M125.396 148.086c-9.388 0-17.354-7.663-17.354-17.313 0-9.367 7.681-17.314 17.354-17.314 5.689 0 10.525-4.541 10.525-10.501 0-5.96-4.551-10.502-10.525-10.502-21.052 0-38.12 17.03-38.12 38.033s17.068 38.033 38.12 38.033c21.051 0 38.12-17.03 38.12-38.033 0-5.677-4.552-10.502-10.526-10.502-5.689 0-10.525 4.542-10.525 10.502.284 9.934-7.681 17.597-17.069 17.597z" fill="#1856ED"/><path fill-rule="evenodd" clip-rule="evenodd" d="M188.266 120.555c-5.69 0-10.526 4.541-10.526 10.501 0 28.951-23.612 52.508-52.629 52.508s-52.628-23.557-52.628-52.508c0-28.95 23.611-52.508 52.628-52.508 5.69 0 10.526-4.541 10.526-10.502 0-5.676-4.552-10.501-10.526-10.501C85 57.545 52 90.469 52 130.772 52 171.076 85 204 125.396 204s73.396-32.924 73.396-73.228c0-5.676-4.552-10.217-10.526-10.217z" fill="#1856ED"/></svg>