<svg width="256" height="256" fill="none" viewBox="0 0 256 256" id="csv" xmlns="http://www.w3.org/2000/svg"><path d="m184 86-36-38H72v152h112V86z" fill="#4986E7"/><path fill-rule="evenodd" clip-rule="evenodd" d="M178 88h-34V54l34 34zm-67.58 79.552 2.948 3.102c-2.581 3.373-6.439 5.104-11.748 5.104-9.297 0-15.62-7.522-15.62-16.39C86 150.22 92.93 143 101.994 143c4.022 0 8.146 1.345 11 4.268l-2.508 3.366c-.829 1.056-1.918.895-2.992.209-3.573-2.283-8.623-2.493-11.561.968-3.976 4.684-3.097 14.506 2.871 17.149 2.976 1.318 6.937.85 9.372-1.342.66-.55 1.604-.706 2.244-.066zm25.747-17.688c-.637 1.021-1.674 1.307-2.717.737-1.641-.898-3.247-1.749-5.159-1.749-2.103 0-4.136.935-4.136 3.3 0 2.203 2.801 3.038 4.521 3.553 4.841 1.448 9.779 3.764 9.779 9.427 0 4.391-2.528 8.231-6.611 9.801-5.127 1.972-11.955.519-15.873-3.399l2.2-3.476c.713-1.009 1.973-1.076 2.959-.462 2.581 1.608 6.362 3.635 9.207 1.375 1.255-.997 1.594-3.41.506-4.653-.972-1.111-2.516-1.6-3.894-1.98-5.269-1.454-9.746-3.686-9.746-9.812 0-5.824 5.526-9.526 11-9.526 3.504 0 7.194.993 9.812 3.41l-1.848 3.454zm36.528-6.512-12.848 32.054h-6.732l-12.848-32.054h5.984c1.113 0 2.016.582 2.464 1.606 2.674 7.397 5.888 14.766 7.854 22.396 1.625-7.661 5.041-15.051 7.678-22.396.387-.987 1.376-1.606 2.42-1.606h6.028z" fill="#fff"/></svg>