<svg width="256" height="256" fill="none" viewBox="0 0 256 256" id="d365businesscentral" xmlns="http://www.w3.org/2000/svg"><mask id="axa" style="mask-type:alpha" maskUnits="userSpaceOnUse" x="38" y="38" width="180" height="180"><path fill-rule="evenodd" clip-rule="evenodd" d="M38 128c0 7.974 5.53 14.656 12.964 16.42 6.43 30.315 30.301 54.186 60.616 60.616C113.344 212.47 120.026 218 128 218c7.974 0 14.656-5.53 16.42-12.964 30.315-6.43 54.186-30.301 60.616-60.616C212.47 142.656 218 135.974 218 128c0-7.973-5.53-14.655-12.964-16.419-6.43-30.316-30.301-54.187-60.616-60.617C142.656 43.53 135.974 38 128 38c-7.974 0-14.656 5.53-16.42 12.964-30.315 6.43-54.186 30.301-60.616 60.616C43.53 113.344 38 120.026 38 128Z" fill="#8DF7DB"/></mask><g mask="url(#axa)"><path d="M128 218c49.706 0 90-40.294 90-90s-40.294-90-90-90-90 40.294-90 90 40.294 90 90 90Z" fill="url(#axb)"/><path fill-rule="evenodd" clip-rule="evenodd" d="M135.5 69.996c5.556-2.761 9.375-8.495 9.375-15.121C144.875 45.555 137.32 38 128 38s-16.875 7.555-16.875 16.875c0 6.626 3.818 12.36 9.375 15.12v11.13h15v-11.13Z" fill="#9DF3F9"/><path fill-rule="evenodd" clip-rule="evenodd" d="M120.5 186.004c-5.556 2.761-9.375 8.495-9.375 15.121 0 9.32 7.555 16.875 16.875 16.875s16.875-7.555 16.875-16.875c0-6.626-3.819-12.36-9.375-15.121v-11.129h-15v11.129Z" fill="#82EBF1"/><path fill-rule="evenodd" clip-rule="evenodd" d="M69.996 120.5c-2.761-5.556-8.495-9.375-15.121-9.375C45.555 111.125 38 118.68 38 128s7.555 16.875 16.875 16.875c6.626 0 12.36-3.819 15.12-9.375h11.13v-15h-11.13Z" fill="#9DF3F9"/><g filter="url(#axc)"><path fill-rule="evenodd" clip-rule="evenodd" d="M128 180.5c24.373 0 44.569-17.887 48.177-41.25h9.827c2.761 5.556 8.495 9.375 15.121 9.375 9.32 0 16.875-7.555 16.875-16.875s-7.555-16.875-16.875-16.875c-6.626 0-12.36 3.819-15.121 9.375h-9.827C172.569 100.887 152.373 83 128 83c-26.924 0-48.75 21.826-48.75 48.75S101.076 180.5 128 180.5Z" fill="#000" fill-opacity=".32"/></g><g filter="url(#axd)" fill="#000" fill-opacity=".24"><path d="M128 177.462c26.924 0 48.75-21.826 48.75-48.75 0-26.923-21.826-48.75-48.75-48.75s-48.75 21.827-48.75 48.75c0 26.924 21.826 48.75 48.75 48.75Z"/><path fill-rule="evenodd" clip-rule="evenodd" d="M149.22 136.213c-3.089 8.739-11.423 15-21.22 15-12.426 0-22.5-10.074-22.5-22.5 0-12.427 10.074-22.5 22.5-22.5 9.797 0 18.131 6.261 21.22 15H188v15h-38.78Z"/><path d="M201.125 145.588c-9.32 0-16.875-7.555-16.875-16.875s7.555-16.875 16.875-16.875S218 119.393 218 128.713s-7.555 16.875-16.875 16.875Z"/></g><path d="M128 176.75c26.924 0 48.75-21.826 48.75-48.75S154.924 79.25 128 79.25 79.25 101.076 79.25 128s21.826 48.75 48.75 48.75Z" fill="url(#axe)"/><path fill-rule="evenodd" clip-rule="evenodd" d="M149.22 135.5c-3.089 8.739-11.423 15-21.22 15-12.426 0-22.5-10.073-22.5-22.5 0-12.426 10.074-22.5 22.5-22.5 9.797 0 18.131 6.261 21.22 15H188v15h-38.78Z" fill="url(#axf)"/><path d="M201.125 144.875c-9.32 0-16.875-7.555-16.875-16.875s7.555-16.875 16.875-16.875S218 118.68 218 128s-7.555 16.875-16.875 16.875Z" fill="url(#axg)"/></g><defs><linearGradient id="axb" x1="80.568" y1="59.284" x2="174.216" y2="196.716" gradientUnits="userSpaceOnUse"><stop stop-color="#009CA8"/><stop offset="1" stop-color="#007D85"/></linearGradient><linearGradient id="axe" x1="97.595" y1="87.257" x2="162.054" y2="194.284" gradientUnits="userSpaceOnUse"><stop stop-color="#36E3EE"/><stop offset="1" stop-color="#00B1BE"/></linearGradient><linearGradient id="axf" x1="96.379" y1="83" x2="179.081" y2="157.189" gradientUnits="userSpaceOnUse"><stop stop-color="#D2F6F9"/><stop offset="1" stop-color="#82EBF1"/></linearGradient><linearGradient id="axg" x1="219.825" y1="133.473" x2="173.608" y2="117.054" gradientUnits="userSpaceOnUse"><stop stop-color="#9AEEF3"/><stop offset="1" stop-color="#82EBF1"/></linearGradient><filter id="axc" x="71.25" y="75" width="154.75" height="113.5" filterUnits="userSpaceOnUse" color-interpolation-filters="sRGB"><feFlood flood-opacity="0" result="BackgroundImageFix"/><feBlend in="SourceGraphic" in2="BackgroundImageFix" result="shape"/><feGaussianBlur stdDeviation="4" result="effect1_foregroundBlur_2049_1521"/></filter><filter id="axd" x="78.49" y="79.203" width="140.27" height="99.02" filterUnits="userSpaceOnUse" color-interpolation-filters="sRGB"><feFlood flood-opacity="0" result="BackgroundImageFix"/><feBlend in="SourceGraphic" in2="BackgroundImageFix" result="shape"/><feGaussianBlur stdDeviation=".38" result="effect1_foregroundBlur_2049_1521"/></filter></defs></svg>