<svg width="256" height="256" fill="none" viewBox="0 0 256 256" id="databricks" xmlns="http://www.w3.org/2000/svg"><path d="m199.428 112.905-71.349 40.103-76.4-42.852L48 112.137v31.115l80.079 44.824 71.34-39.946v16.465l-71.34 40.112-76.4-42.852L48 163.836v5.332L128.079 214 208 169.168v-31.107l-3.679-1.981-76.242 42.695-71.507-39.947v-16.473l71.507 39.946L208 117.485v-30.67l-3.985-2.285-75.936 42.546-67.828-37.817 67.828-37.966 55.725 31.256 4.902-2.74v-3.813L128.079 42 48 86.824v4.886l80.079 44.832 71.34-40.111.009 16.474Z" fill="#EE3D2C"/></svg>