<svg width="256" height="256" fill="none" viewBox="0 0 256 256" id="database" xmlns="http://www.w3.org/2000/svg"><path fill-rule="evenodd" clip-rule="evenodd" d="M193 71.64c-.627 4.316-23.334 12.334-64.493 12.334-41.152 0-63.866-8.018-64.507-12.266v-3.715C64 59.525 91.098 53 128.507 53c37.409 0 64.5 6.525 64.493 14.993v3.647zM64 112.738v-32.61c13.61 8.018 45.543 10.439 64.507 10.439 18.95 0 50.884-2.414 64.493-10.439v32.61c-.627 4.302-23.341 12.334-64.493 12.334-41.152 0-63.866-8.032-64.507-12.334zm129 41.126c-.627 4.315-23.334 12.34-64.493 12.34-41.152 0-63.866-7.95-64.507-12.34v-32.597c13.61 8.018 45.536 10.425 64.507 10.425 18.95 0 50.884-2.393 64.493-10.425v32.597zm-64.493 18.865c-18.971 0-50.898-2.414-64.507-10.432v25.697C64 196.475 91.104 203 128.507 203c37.402 0 64.493-6.525 64.493-15.006v-25.622c-13.596 7.998-45.529 10.357-64.493 10.357z" fill="#F2AA18"/></svg>