<svg width="80" height="40" fill="none" viewBox="0 0 80 40" id="dbt-streamline" xmlns="http://www.w3.org/2000/svg"><path d="M52.046 9.67v20.416H47.91v-2.082c-.921 1.554-2.696 2.325-4.461 2.325-3.973.095-6.293-3.783-6.22-7.382-.074-3.64 2.254-7.34 6.22-7.246 1.718 0 3.458.745 4.38 2.244V11.05l4.218-1.38ZM47.91 23.002c0-1.974-.905-4.178-3.218-4.11-2.293-.135-3.272 2.105-3.272 4.056 0 1.994.94 4.26 3.273 4.191 2.054 0 3.217-1.487 3.217-4.137Zm21.902-.08c.074 3.615-2.238 7.449-6.219 7.354-1.734.051-3.572-.773-4.434-2.325v2.109h-4.164V11.05l4.19-1.378V18c.857-1.542 2.684-2.376 4.408-2.325 3.979-.095 6.293 3.602 6.22 7.246Zm-4.19 0c0-2.045-.916-4.057-3.219-4.057-2.318-.136-3.245 2.161-3.245 4.11 0 1.969.902 4.271 3.245 4.137 2.355.139 3.218-2.239 3.218-4.19Zm9.977-3.76v5.463c0 1.307.82 2.306 2.19 2.244.46 0 .946-.081 1.379-.19v3.245a6.696 6.696 0 0 1-2.407.379c-3.375 0-5.354-2.296-5.354-5.597v-11.98l4.192-1.352v4.651h3.569v3.137h-3.57Z" fill="#262A38"/><path d="M30.738 8.833c0 .405-.109.676-.352 1.19-.243.513-3.245 5.705-4.137 7.138-1.04 1.696-1.04 3.928 0 5.624.892 1.433 3.894 6.652 4.137 7.166.243.513.352.756.352 1.162-.21 1.892-1.833 3.594-3.759 3.759-.405 0-.676-.108-1.162-.352-5.013-2.507-9.835-5.584-14.656-8.436.194 1.617 1.02 3.13 2.325 4.11-2.634 1.316-5.012 3.144-7.679 4.407-.513.243-.757.352-1.19.352-1.927-.214-3.57-1.854-3.785-3.786.027-.405.135-.811.352-1.163.243-.513 3.244-5.732 4.137-7.165 1.04-1.697 1.04-3.927 0-5.624-.893-1.487-3.921-6.706-4.137-7.22a2.535 2.535 0 0 1-.352-1.162c.217-1.951 1.835-3.57 3.786-3.786.405.027.81.135 1.19.352.432.189 4.244 2.406 6.272 3.596 2.772 1.63 5.533 3.283 8.301 4.921a5.951 5.951 0 0 0-2.298-4.11c2.625-1.313 4.97-3.266 7.68-4.407.35-.217.756-.325 1.19-.352 1.922.22 3.57 1.858 3.785 3.786ZM16.163 21.92l1.542-1.542a.523.523 0 0 0 0-.757l-1.542-1.54a.523.523 0 0 0-.757 0l-1.541 1.54a.523.523 0 0 0 0 .758l1.541 1.54c.19.19.541.19.757 0Z" fill="#FF694A"/></svg>