<svg width="256" height="256" fill="none" viewBox="0 0 256 256" id="dearinventory" xmlns="http://www.w3.org/2000/svg"><path d="m63.844 175.093 18.49 8.902-17.88-78.325H48l15.844 69.423Zm36.975 17.804 18.486 8.902-21.939-96.129H80.912l19.91 87.227h-.003Zm29.455-87.227 10.315 45.184-8.229 36.044-18.538-81.228h16.452Z" opacity=".5" fill="#002E6E"/><path d="M81.3 63.916 92.395 50h71.208l-35.605 155.986-12.859-6.192 18.305-80.207H51.178L48 105.67h88.62l3.18-13.919H59.1l11.1-13.916h72.775l3.177-13.919H81.299Zm78.769 126.628-16.034 7.722 30.663-134.348 11.097 13.91-25.726 112.716Zm32.083-15.453-16.048 7.727 20.787-91.078L208 105.668l-15.848 69.423Z" fill="#002E6E"/></svg>