<svg width="256" height="256" fill="none" viewBox="0 0 256 256" id="demo" xmlns="http://www.w3.org/2000/svg"><path fill-rule="evenodd" clip-rule="evenodd" d="M128 208c44.183 0 80-35.817 80-80s-35.817-80-80-80-80 35.817-80 80 35.817 80 80 80z" fill="#277DFF"/><path fill-rule="evenodd" clip-rule="evenodd" d="M157.671 123.792h-24.665l6.119-39.736-40.796 48.152h24.665l-6.127 39.736 40.804-48.152zM148 162.002V222c.001 7.092 7.526 12.114 14.024 9.08l64.235-30c7.51-3.507 7.51-14.653 0-18.16l-64.231-29.999c-6.375-2.979-14.024 1.87-14.028 9.081z" fill="#fff"/><path fill-rule="evenodd" clip-rule="evenodd" d="m222.273 192.444-64.547 29.778v-59.555l64.547 29.777z" fill="#33D500"/></svg>