<svg width="256" height="256" fill="none" viewBox="0 0 256 256" id="drip" xmlns="http://www.w3.org/2000/svg"><path fill-rule="evenodd" clip-rule="evenodd" d="M83.6 144.101c2.218-.199 2.595.625 2.606 2.655.158 23.158 20.136 43.227 43.385 42.128 21.688-1.026 40.892-20.147 40.232-42.687-.056-1.853.682-2.112 2.262-2.079 4.49.12 8.982.112 13.471-.022 2.062-.078 2.495.663 2.439 2.522-.761 32.144-25.905 59.501-58.404 60.36-35.153.929-59.586-27.416-61.58-60.615-.111-1.963.632-2.356 2.395-2.245 4.457.28 8.722.011 13.194-.017zm8.815-56.265c10.273-14.012 21.964-26.646 34.194-38.926.854-.868 1.408-1.405 2.605-.243 12.391 12.001 23.85 24.8 34.439 39.158-7.668 0-14.886-.011-22.098.01-1.275.006-1.58-1.072-2.145-1.824L129.264 72.35c-.998-1.383-1.469-1.45-2.494-.023l-10.279 13.938c-.742 1.018-1.48 1.62-2.893 1.66l-21.195-.045.012-.044zm-.278 16.648c6.505-.111 12.033 5.41 11.953 11.869.08 6.634-5.573 12.194-12.119 12.146-6.785-.056-11.958-5.398-11.903-12.312.056-6.703 5.228-11.725 12.07-11.703zm35.775-.006c6.796-.027 12.069 5.055 12.196 11.681.067 6.842-5.178 12.268-11.93 12.334-6.753.066-12.097-5.282-12.086-12.124-.154-6.532 5.444-12.022 11.886-11.885l-.066-.006zm36.073 0c6.764.006 12.003 5.144 12.03 11.797.022 6.803-5.322 12.168-12.052 12.213-6.78-.011-12.008-5.365-11.975-12.24.034-6.737 5.173-11.781 12.003-11.77h-.006z" fill="#000"/></svg>