<svg width="256" height="256" fill="none" viewBox="0 0 256 256" id="dynamics365finops" xmlns="http://www.w3.org/2000/svg"><mask id="bga" style="mask-type:alpha" maskUnits="userSpaceOnUse" x="48" y="49" width="160" height="159"><path d="M154.106 51.164a7.62 7.62 0 0 1 8.806-.093l41.806 28.942A7.62 7.62 0 0 1 208 86.278V200.38a7.619 7.619 0 0 1-7.619 7.619H55.619A7.619 7.619 0 0 1 48 200.381V131.89a7.618 7.618 0 0 1 3.15-6.171l102.956-74.555Z" fill="#fff"/></mask><g mask="url(#bga)"><path d="M158.476 48 208 82.286V208H48v-80l110.476-80Z" fill="url(#bgb)"/><path d="M158.476 48 208 82.286V208H48v-80l110.476-80Z" fill="url(#bgc)"/><g filter="url(#bgd)"><path d="M153.973 119.757a7.62 7.62 0 0 0 9.024.025L208 86.895V212.61H48v-41.904l84.06-60.56a7.62 7.62 0 0 1 8.983.055l12.93 9.557Z" fill="#000" fill-opacity=".32"/></g><g filter="url(#bge)"><path d="M153.973 119.757a7.62 7.62 0 0 0 9.024.025L208 86.895V212.61H48v-41.904l84.06-60.56a7.62 7.62 0 0 1 8.983.055l12.93 9.557Z" fill="#000" fill-opacity=".24"/></g><path d="M153.973 115.148a7.619 7.619 0 0 0 9.024.024L208 82.286V208H48v-41.905l84.06-60.559a7.62 7.62 0 0 1 8.983.054l12.93 9.558Z" fill="url(#bgf)"/><g filter="url(#bgg)"><path d="M208 208.724v-55.238l-12.675-9.154a7.62 7.62 0 0 0-8.931.006l-88.87 64.386H208Z" fill="#000" fill-opacity=".24"/></g><g filter="url(#bgh)"><path d="M208 212.533v-55.238l-12.675-9.154a7.618 7.618 0 0 0-8.931.007l-88.87 64.385H208Z" fill="#000" fill-opacity=".32"/></g><path d="M208 208v-55.238l-12.675-9.154a7.618 7.618 0 0 0-8.931.007L97.524 208H208Z" fill="url(#bgi)"/></g><defs><linearGradient id="bgb" x1="33" y1="54.292" x2="59.278" y2="231.343" gradientUnits="userSpaceOnUse"><stop stop-color="#158915"/><stop offset="1" stop-color="#065F18"/></linearGradient><linearGradient id="bgc" x1="33" y1="54.292" x2="59.278" y2="231.343" gradientUnits="userSpaceOnUse"><stop stop-color="#158915"/><stop offset="1" stop-color="#065F18"/></linearGradient><linearGradient id="bgf" x1="10.5" y1="83.159" x2="31.964" y2="228.257" gradientUnits="userSpaceOnUse"><stop stop-color="#6AD116"/><stop offset="1" stop-color="#34A117"/></linearGradient><linearGradient id="bgi" x1="99.249" y1="140.82" x2="107.54" y2="219.241" gradientUnits="userSpaceOnUse"><stop stop-color="#C3F488"/><stop offset="1" stop-color="#8FDC50"/></linearGradient><filter id="bgd" x="32.762" y="79.276" width="190.476" height="156.19" filterUnits="userSpaceOnUse" color-interpolation-filters="sRGB"><feFlood flood-opacity="0" result="BackgroundImageFix"/><feColorMatrix in="SourceAlpha" values="0 0 0 0 0 0 0 0 0 0 0 0 0 0 0 0 0 0 127 0" result="hardAlpha"/><feOffset dy="7.619"/><feGaussianBlur stdDeviation="7.619"/><feColorMatrix values="0 0 0 0 0 0 0 0 0 0 0 0 0 0 0 0 0 0 0.25 0"/><feBlend in2="BackgroundImageFix" result="effect1_dropShadow_331_232"/><feBlend in="SourceGraphic" in2="effect1_dropShadow_331_232" result="shape"/></filter><filter id="bge" x="46.552" y="86.895" width="162.895" height="134.781" filterUnits="userSpaceOnUse" color-interpolation-filters="sRGB"><feFlood flood-opacity="0" result="BackgroundImageFix"/><feColorMatrix in="SourceAlpha" values="0 0 0 0 0 0 0 0 0 0 0 0 0 0 0 0 0 0 127 0" result="hardAlpha"/><feOffset dy="7.619"/><feGaussianBlur stdDeviation=".724"/><feColorMatrix values="0 0 0 0 0 0 0 0 0 0 0 0 0 0 0 0 0 0 1 0"/><feBlend in2="BackgroundImageFix" result="effect1_dropShadow_331_232"/><feBlend in="SourceGraphic" in2="effect1_dropShadow_331_232" result="shape"/></filter><filter id="bgg" x="96.076" y="141.442" width="113.372" height="68.73" filterUnits="userSpaceOnUse" color-interpolation-filters="sRGB"><feFlood flood-opacity="0" result="BackgroundImageFix"/><feBlend in="SourceGraphic" in2="BackgroundImageFix" result="shape"/><feGaussianBlur stdDeviation=".724" result="effect1_foregroundBlur_331_232"/></filter><filter id="bgh" x="82.285" y="131.461" width="140.953" height="96.311" filterUnits="userSpaceOnUse" color-interpolation-filters="sRGB"><feFlood flood-opacity="0" result="BackgroundImageFix"/><feBlend in="SourceGraphic" in2="BackgroundImageFix" result="shape"/><feGaussianBlur stdDeviation="7.619" result="effect1_foregroundBlur_331_232"/></filter></defs></svg>