<svg width="256" height="256" fill="none" viewBox="0 0 256 256" id="elasticsearch" xmlns="http://www.w3.org/2000/svg"><path d="M61.404 90.977h110.863c12.218 0 23.127-5.603 30.447-14.348C187.445 56.794 163.479 44 136.513 44c-33.018 0-61.555 19.167-75.109 46.977Z" fill="#F0BF1A"/><path d="M162.872 104.026h-106.5c-4.47 15.275-4.47 31.7 0 46.976h106.5c12.788 0 23.488-10.439 23.488-23.488a23.39 23.39 0 0 0-23.488-23.488Z" fill="#07A5DE"/><path d="M202.999 178.036c-7.274-8.549-18.095-13.985-30.21-13.985H61.404c13.554 27.81 42.091 46.976 75.109 46.976 27.132 0 51.232-12.947 66.486-32.991Z" fill="#3EBEB0"/><path d="M56.372 104.026c-4.47 15.274-4.47 31.702 0 46.976h69.702c3.938-15.187 3.938-31.789 0-46.976H56.372Z" fill="#231F20"/><path d="M94.496 55.222C80.403 63.574 68.66 76.1 61.352 90.977h61.591c-6.264-14.355-16.181-26.36-28.447-35.755Z" fill="#D7A229"/><path d="M97.106 201.11c12.005-9.656 21.661-22.444 27.664-37.059H61.352c7.829 15.659 20.356 28.708 35.754 37.059Z" fill="#019B8F"/></svg>