<svg width="256" height="256" fill="none" viewBox="0 0 256 256" id="emailoctopus" xmlns="http://www.w3.org/2000/svg"><path d="M191.494 154.171c-4.495-2.331-9.441.377-11.412 2.366-5.292 5.399-14.754 4.118-18.398-2.503 15.217-11.381 25.004-29.482 24.969-49.845-.034-34.418-28.462-62.358-63.183-62.118-34.513.24-62.386 28.042-62.386 62.289 0 22.283 11.827 41.858 29.568 52.862-.823 6.519-6.81 11.03-13.142 10.113-2.766-.411-10.27-.686-12.277 4.389-1.833 4.661 2.006 8.226 5.983 9.46 11.718 3.88 25.163-1.556 31.095-12.252.32-.576 1.065-.214.756.391-2.897 8.865-8.295 16.793-15.39 22.832-3.423 2.879-4.703 7.747-2.386 11.553 2.317 3.805 7.332 5.039 10.86 2.297 11.229-8.692 20.103-21.521 23.342-35.448.139-.616 1.073-.514 1.073.104.519 11.821-3.624 23.625-10.963 32.841-2.801 3.462-3.078 8.502-.069 11.792 3.008 3.292 8.161 3.566 11.101.206 10.74-12.319 16.184-28.078 16.184-44.325 0-.481.692-.583.83-.137 2.683 9.734 2.403 20.129-.968 29.654-1.487 4.181-.069 9.05 3.873 11.141 3.943 2.09 8.888.65 10.513-3.464 5.001-12.536 5.739-26.285 2.802-39.388-.104-.378.38-.686.691-.412 11.577 9.882 30.236 7.584 38.94-4.8 2.456-3.255 1.695-7.678-2.006-9.598zm-89.81-40.28c-4.289.582-8.266-2.366-8.854-6.651-.587-4.285 2.387-8.193 6.71-8.776 4.288-.583 8.265 2.365 8.853 6.651.587 4.25-2.387 8.193-6.709 8.776zm55.92-7.714c-4.289.583-8.266-2.365-8.854-6.65-.588-4.251 2.387-8.194 6.709-8.776 4.289-.583 8.266 2.365 8.854 6.65.587 4.286-2.421 8.194-6.709 8.776z" fill="#6E54D7"/></svg>