<svg width="256" height="256" fill="none" viewBox="0 0 256 256" id="exacttarget" xmlns="http://www.w3.org/2000/svg"><path fill-rule="evenodd" clip-rule="evenodd" d="m170.188 156.125 30.937 30.937-14.063 14.063-30.937-30.937" fill="#fff"/><path fill-rule="evenodd" clip-rule="evenodd" d="M125.188 178.625c31.066 0 56.25-25.184 56.25-56.25s-25.184-56.25-56.25-56.25c-31.067 0-56.25 25.184-56.25 56.25s25.183 56.25 56.25 56.25z" fill="#FCAC63"/><path fill-rule="evenodd" clip-rule="evenodd" d="M63.313 122.375c0 34.173 27.702 61.875 61.875 61.875a61.875 61.875 0 0 0 61.874-61.875c0-34.173-27.702-61.875-61.874-61.875-34.173 0-61.876 27.702-61.876 61.875zm11.25 0c0-27.96 22.665-50.625 50.625-50.625 27.959 0 50.624 22.666 50.624 50.625S153.147 173 125.188 173c-27.96 0-50.626-22.666-50.626-50.625z" fill="#CE6200"/><path fill-rule="evenodd" clip-rule="evenodd" d="M125.188 133.625c-17.087 0-30.938 13.851-30.938 30.937v4.782a56.252 56.252 0 0 0 61.875 0v-4.782c0-17.086-13.851-30.937-30.937-30.937zm0 0c12.426 0 22.5-10.074 22.5-22.5s-10.074-22.5-22.5-22.5c-12.427 0-22.5 10.074-22.5 22.5s10.073 22.5 22.5 22.5z" fill="#fff"/><path fill-rule="evenodd" clip-rule="evenodd" d="M125.188 184.25c-34.173 0-61.876-27.702-61.876-61.875S91.016 60.5 125.189 60.5c34.172 0 61.874 27.702 61.874 61.875a61.87 61.87 0 0 1-9.585 33.081l27.613 27.613a5.622 5.622 0 0 1 0 7.959l-14.062 14.063a5.625 5.625 0 0 1-3.966 1.659 5.624 5.624 0 0 1-3.965-1.659l-28.355-28.355a61.875 61.875 0 0 1-29.554 7.514zm39.079-13.903 22.795 22.819 6.103-6.103-22.611-22.612a62.179 62.179 0 0 1-6.287 5.896zm1.109-17.182a50.944 50.944 0 0 1-4.214 4.829c-1.966-10.838-8.71-20.012-17.971-25.261a28.125 28.125 0 0 0 10.121-21.608c0-15.533-12.591-28.125-28.124-28.125-15.534 0-28.126 12.592-28.126 28.125 0 8.684 3.936 16.449 10.121 21.608-9.26 5.249-16.004 14.423-17.97 25.262-9.057-9.147-14.65-21.73-14.65-35.62 0-27.96 22.665-50.625 50.625-50.625 27.959 0 50.624 22.666 50.624 50.625a50.402 50.402 0 0 1-9.812 29.96 5.594 5.594 0 0 0-.624.83zm-65.715 12.938a5.63 5.63 0 0 0 .214-1.541c0-13.979 11.333-25.312 25.313-25.312 13.979 0 25.312 11.333 25.312 25.312 0 .535.074 1.051.214 1.541-7.495 4.384-16.217 6.897-25.526 6.897-9.31 0-18.032-2.513-25.527-6.897zm8.651-54.978c0 9.32 7.556 16.875 16.876 16.875 9.319 0 16.874-7.555 16.874-16.875s-7.555-16.875-16.874-16.875c-9.32 0-16.876 7.555-16.876 16.875z" fill="#CE6200"/><path d="M83.454 153.888c7.345-7.607 20.1-5.912 25.304 3.324 12.498-5.616 27.242 4.064 27.242 17.896 0 12.099-11.392 21.537-23.192 19.177-3.638 6.495-11.94 9.051-18.589 5.85-5.609 13.192-25.111 12.75-30.08-.727-16.518 3.417-24.652-19.819-10.593-28.039-8.214-18.558 18.16-32.93 29.908-17.481z" fill="#00A1E0"/><path fill-rule="evenodd" clip-rule="evenodd" d="M99.654 169.188c.035 0 .138.07.104.174l-.416 1.107c-.093.187-.363.031-.519 0-.296-.098-.673-.024-.969.035-.381.076-.688.497-.83.831a5.17 5.17 0 0 0-.278 1.177h1.662c.138 0 .173.069.173.173l-.208 1.073c-.034.173-.173.138-.173.138h-1.73l-1.108 6.681c-.378 1.89-1.097 3.808-3.393 3.808-.426 0-.848-.049-1.246-.208-.069-.035-.104-.104-.069-.208.035-.104.346-.934.38-1.073.07-.138.174-.069.174-.069.425.142.886.206 1.315.035.853-.285 1.028-1.643 1.177-2.389l1.177-6.542h-1.142c-.139 0-.173-.069-.173-.173l.207-1.073c.035-.173.173-.139.173-.139h1.177c.193-.964.383-1.975 1.108-2.7.52-.519 1.28-.796 2.215-.796.372 0 .864-.001 1.212.138zm19.073 9.97.381 1.038c.034.139-.069.173-.069.173-.589.243-1.385.381-2.181.381-2.529 0-4.085-1.732-4.085-4.223 0-2.291 1.543-4.258 3.981-4.258.698 0 1.543.027 2.181.346.034 0 .138.07.104.173-.139.416-.243.693-.381 1.039-.069.173-.173.104-.173.104-.519-.173-1.004-.243-1.627-.243-1.597 0-2.285 1.358-2.285 2.804 0 1.55.775 2.77 2.423 2.77.417 0 1.326-.34 1.599-.22a.236.236 0 0 1 .132.116zm-59.296-.485-.38 1.004c-.07.138 0 .173.034.242.873.699 2.135.935 3.219.935 1.835 0 2.977-.969 2.977-2.562 0-1.421-1.427-2.21-2.666-2.457-.9-.277-1.696-.554-1.696-1.143 0-1.649 2.73-.791 3.531-.346 0 0 .173.104.242-.069.035-.104.347-.9.381-1.004.035-.104-.034-.173-.104-.208-1.835-1.193-5.677-1.081-5.677 1.8 0 1.523 1.316 2.043 2.527 2.389.6.2 1.87.391 1.87 1.211 0 .717-.678 1.039-1.316 1.039-1 0-1.878-.353-2.7-.9l-.015-.008c-.068-.035-.163-.084-.227.077zm27 0-.38 1.004c-.035.138.034.173.034.242.873.699 2.135.935 3.219.935 1.835 0 2.977-.969 2.977-2.562 0-1.421-1.427-2.21-2.666-2.457-.561-.173-1.696-.411-1.696-1.177 0-.52.45-.9 1.177-.9.796 0 1.731.242 2.354.588 0 0 .173.104.242-.069.035-.104.347-.9.381-1.004.035-.104-.034-.173-.104-.208-.835-.543-1.822-.727-2.803-.727-1.697 0-2.874 1.039-2.874 2.493 0 1.477 1.293 2.07 2.527 2.423.64.213 1.87.371 1.87 1.246 0 .588-.52 1.004-1.316 1.004-.97 0-1.794-.333-2.604-.839-.115-.072-.261-.185-.338.008zm19.869-2.077c0 2.224-1.352 4.223-3.773 4.223-2.371 0-3.773-1.91-3.773-4.223 0-2.213 1.356-4.258 3.773-4.258 2.365 0 3.773 1.975 3.773 4.258zm-1.8-.034c0 1.32-.392 2.838-1.973 2.838-1.565 0-1.973-1.524-1.973-2.838 0-1.31.421-2.804 1.973-2.804 1.551 0 1.973 1.499 1.973 2.804zm22.085-1.939c-.392-1.371-1.713-2.215-3.116-2.215-2.396 0-3.877 1.905-3.877 4.257 0 2.545 1.695 4.154 4.224 4.154 1.523 0 2.319-.346 2.63-.519l.012-.011c.036-.033.085-.077.023-.231l-.346-.97c-.073-.145-.2-.107-.316-.063-.374.14-.906.34-2.038.34-1.492 0-2.36-.892-2.423-2.353h5.227c.523 0 .06-2.185 0-2.389zm-5.193 1.108h3.704c-.075-1.058-.624-2.008-1.8-2.008-1.237 0-1.692.952-1.904 2.008zm-36.41 1.084c.248-2.208-.785-4.407-3.259-4.407-2.457 0-3.877 1.98-3.877 4.257 0 2.542 1.789 4.154 4.223 4.154 1.523 0 2.32-.346 2.631-.519l.012-.011c.036-.033.085-.077.023-.231l-.346-.97c-.073-.145-.2-.107-.316-.063-.374.14-.906.34-2.038.34-1.492 0-2.36-.892-2.423-2.353h5.227c.12 0 .133-.105.144-.197zm-5.37-1.084h3.738c-.075-1.058-.624-2.008-1.8-2.008-1.219 0-1.728.955-1.938 2.008zm-8.308-.173c-1.658-.255-4.023-.296-4.88 1.419-.346.691-.42 1.696-.035 2.388.584 1.169 1.95 1.42 3.15 1.42 1.08 0 2.26-.143 3.288-.485.104-.035.104-.173.104-.173v-4.777c0-1.073-.277-1.835-.83-2.319-1.264-1.105-4.082-1.009-5.366 0 0 0-.104.069-.035.207l.38 1.004c.032.092.18.098.243.035.907-.469 2.633-.873 3.566-.173.442.332.415.955.415 1.454zm-1.42 3.877a9.998 9.998 0 0 0 1.42-.173v-2.389s-.658-.104-1.42-.104c-.938 0-1.972.288-1.972 1.385 0 1.079 1.067 1.341 1.973 1.281zm42.612-6.647c.035-.138-.034-.173-.173-.207-.927-.464-2.487-.064-3.081.727v-.623c0-.104-.034-.173-.138-.173h-1.35c-.069 0-.138.069-.138.173v7.788c0 .104.069.173.173.173h1.384c.104 0 .173-.069.173-.173v-3.877c0-1.521.766-2.96 2.562-2.561.104 0 .173-.035.208-.139.069-.242.346-.969.38-1.108zm-36.311 7.824c.069 0 .138-.07.138-.174v-11.111c0-.104-.034-.173-.138-.173H74.8c-.07 0-.138.104-.138.173v11.111c0 .104.034.174.138.174h1.385z" fill="#fff"/></svg>