<svg width="256" height="256" viewBox="0 0 256 256" id="excelonline" xmlns="http://www.w3.org/2000/svg"><g fill="none" fill-rule="evenodd"><path fill="#21A366" fill-rule="nonzero" d="M146 62H92a6 6 0 0 0-6 6v30l60 30 24 9 24-9V98l-48-36z"/><path d="M50 56h144v144H50z"/><path fill="#107C41" fill-rule="nonzero" d="M86 98.125h60V128H86z"/><path fill="#33C481" fill-rule="nonzero" d="M194 98h-48V62h42c3.31.01 5.99 2.69 6 6v30z"/><path fill="#185C37" fill-rule="nonzero" d="M146 128H86v60a6 6 0 0 0 6 6h96a6 6 0 0 0 6-6v-30l-48-30z"/><path fill="#000" fill-rule="nonzero" d="M133 92H86v84h45.625a9 9 0 0 0 8.375-8.125V99a7.02 7.02 0 0 0-7-7z" opacity=".5"/><path fill="#107C41" fill-rule="nonzero" d="M57 86h70a7 7 0 0 1 7 7v70a7 7 0 0 1-7 7H57a7 7 0 0 1-7-7V93a7 7 0 0 1 7-7z"/><path fill="#FFF" fill-rule="nonzero" d="m70.56 152 15.532-24.067L71.866 104h11.448l7.766 15.297c.714 1.451 1.205 2.534 1.473 3.247h.1a67.604 67.604 0 0 1 1.607-3.38l8.3-15.164h10.511l-14.594 23.799L113.44 152h-11.18l-8.97-16.804a14.028 14.028 0 0 1-1.071-2.242h-.134c-.262.762-.61 1.492-1.038 2.176L81.808 152H70.56z"/><path fill="#107C41" fill-rule="nonzero" d="M146 128h48v30h-48z"/></g></svg>