<svg width="256" height="256" fill="none" viewBox="0 0 256 256" id="facebookpages" xmlns="http://www.w3.org/2000/svg"><path d="M128 208c44.183 0 80-35.817 80-80s-35.817-80-80-80-80 35.817-80 80 35.817 80 80 80z" fill="#fff"/><path d="M115.5 207.029v-55.904H95.187V128H115.5v-17.625c0-20.05 11.943-31.125 30.217-31.125 8.753 0 17.908 1.563 17.908 1.563V100.5h-10.088c-9.938 0-13.037 6.167-13.037 12.493V128h22.188l-3.547 23.125H140.5v55.904C178.745 201.028 208 167.93 208 128c0-44.183-35.817-80-80-80s-80 35.817-80 80c0 39.93 29.255 73.028 67.5 79.029z" fill="#1877F2"/></svg>