<svg width="256" height="256" fill="none" viewBox="0 0 256 256" id="firefliesai" xmlns="http://www.w3.org/2000/svg"><path d="M104.021 58H58v45.683h46.021V58Z" fill="url(#bpa)"/><path d="M158.548 113.145h-46.021v45.683h46.021v-45.683Z" fill="url(#bpb)"/><path d="M158.548 58h-46.021v45.683h85.474c0-12.806-1.978-24.709-11.556-34.215C179.047 62.125 169.01 58 158.548 58Z" fill="url(#bpc)"/><path d="M58 113.145v45.683a39.016 39.016 0 0 0 11.556 27.688c9.61 9.538 21.61 11.468 34.465 11.468v-84.839H58Z" fill="url(#bpd)"/><path opacity=".18" d="m58 58 46.021 45.683H58V58Z" fill="url(#bpe)"/><path opacity=".18" d="m112.527 113.145 46.021 45.683h-46.021v-45.683Z" fill="url(#bpf)"/><path opacity=".18" d="M58 158.828a39.016 39.016 0 0 0 11.556 27.688c9.61 9.538 21.61 11.468 34.465 11.468v-84.839L58 158.828Z" fill="url(#bpg)"/><path opacity=".18" d="M158.552 58c10.462 0 20.495 4.125 27.893 11.468 9.578 9.506 11.556 21.41 11.556 34.215h-85.474L158.552 58Z" fill="url(#bph)"/><defs><linearGradient id="bpa" x1="170.567" y1="173.578" x2="-22.881" y2="-29.674" gradientUnits="userSpaceOnUse"><stop stop-color="#E82A73"/><stop offset=".113" stop-color="#DE2D7A"/><stop offset=".3" stop-color="#C5388F"/><stop offset=".54" stop-color="#9B4AB0"/><stop offset=".818" stop-color="#6262DE"/><stop offset=".994" stop-color="#3B73FF"/></linearGradient><linearGradient id="bpb" x1="171.25" y1="172.944" x2="-22.198" y2="-30.307" gradientUnits="userSpaceOnUse"><stop stop-color="#FF3C82"/><stop offset=".103" stop-color="#F53E88"/><stop offset=".274" stop-color="#DC4598"/><stop offset=".492" stop-color="#B251B2"/><stop offset=".745" stop-color="#7961D7"/><stop offset=".994" stop-color="#3B73FF"/></linearGradient><linearGradient id="bpc" x1="203.386" y1="142.376" x2="137.838" y2="-95.163" gradientUnits="userSpaceOnUse"><stop stop-color="#E82A73"/><stop offset=".113" stop-color="#DE2D7A"/><stop offset=".3" stop-color="#C5388F"/><stop offset=".54" stop-color="#9B4AB0"/><stop offset=".818" stop-color="#6262DE"/><stop offset=".994" stop-color="#3B73FF"/></linearGradient><linearGradient id="bpd" x1="138.858" y1="203.752" x2="-95.795" y2="132.265" gradientUnits="userSpaceOnUse"><stop stop-color="#E82A73"/><stop offset=".113" stop-color="#DE2D7A"/><stop offset=".3" stop-color="#C5388F"/><stop offset=".54" stop-color="#9B4AB0"/><stop offset=".818" stop-color="#6262DE"/><stop offset=".994" stop-color="#3B73FF"/></linearGradient><linearGradient id="bpe" x1="35.496" y1=".942" x2="101.224" y2="151.55" gradientUnits="userSpaceOnUse"><stop stop-color="#E82A73"/><stop offset=".114" stop-color="#DE286E"/><stop offset=".303" stop-color="#C52361"/><stop offset=".544" stop-color="#9B1A4D"/><stop offset=".825" stop-color="#620F30"/><stop offset=".994" stop-color="#3D081E"/></linearGradient><linearGradient id="bpf" x1="90.023" y1="56.087" x2="155.751" y2="206.695" gradientUnits="userSpaceOnUse"><stop stop-color="#E82A73"/><stop offset=".114" stop-color="#DE286E"/><stop offset=".303" stop-color="#C52361"/><stop offset=".544" stop-color="#9B1A4D"/><stop offset=".825" stop-color="#620F30"/><stop offset=".994" stop-color="#3D081E"/></linearGradient><linearGradient id="bpg" x1="42.721" y1="53.674" x2="191.58" y2="152.565" gradientUnits="userSpaceOnUse"><stop stop-color="#E82A73"/><stop offset=".114" stop-color="#DE286E"/><stop offset=".303" stop-color="#C52361"/><stop offset=".544" stop-color="#9B1A4D"/><stop offset=".825" stop-color="#620F30"/><stop offset=".994" stop-color="#3D081E"/></linearGradient><linearGradient id="bph" x1="-3200.6" y1="3271.94" x2="-3175.09" y2="3473.33" gradientUnits="userSpaceOnUse"><stop stop-color="#E82A73"/><stop offset=".114" stop-color="#DE286E"/><stop offset=".303" stop-color="#C52361"/><stop offset=".544" stop-color="#9B1A4D"/><stop offset=".825" stop-color="#620F30"/><stop offset=".994" stop-color="#3D081E"/></linearGradient></defs></svg>