<svg width="256" height="256" fill="none" viewBox="0 0 256 256" id="freshsales" xmlns="http://www.w3.org/2000/svg"><path fill-rule="evenodd" clip-rule="evenodd" d="M127.941 208C83.784 208 48 172.212 48 128.063c0-44.148 35.788-79.936 79.941-79.936h59.949c10.884 0 19.983 9.098 19.983 19.983v59.953c0 44.149-35.788 79.937-79.932 79.937Z" fill="#E57300"/><path fill-rule="evenodd" clip-rule="evenodd" d="M128.701 119.572c8.692 0 15.739-7.047 15.739-15.74 0-8.693-7.047-15.74-15.739-15.74-8.693 0-15.74 7.047-15.74 15.74 0 8.693 7.047 15.74 15.74 15.74Zm-7.634 33.008-27.47-27.476 68.679.005-27.471 27.471v15.449h-13.738V152.58Z" fill="#fff"/></svg>