<svg width="256" height="256" fill="none" viewBox="0 0 256 256" id="freshcaller" xmlns="http://www.w3.org/2000/svg"><path d="M127.787 53h56.303C194.611 53 203 61.389 203 71.91v56.303C203 169.588 169.588 203 128.213 203h-.426C86.412 203 53 169.588 53 128.213 53 86.839 86.412 53.427 127.787 53Z" fill="#20A849"/><path d="M143.568 137.454c-1.706-.853-3.555-.426-4.834.853l-6.541 6.967a51.12 51.12 0 0 1-21.611-21.611l7.536-6.967c.853-1.279 1.279-3.128.853-4.407-1.28-3.981-2.133-7.963-2.133-12.37 0-2.702-1.706-4.408-3.981-4.834h-12.796c-2.702 0-4.408 1.706-4.834 3.98v.427c0 33.413 27.298 60.711 61.137 60.711 2.701 0 4.408-1.706 4.834-3.981v-12.369c0-2.702-1.593-5.363-3.981-4.835-4.416.977-9.357.276-13.649-1.564Z" fill="#fff"/></svg>