<svg width="256" height="256" viewBox="0 0 256 256" id="freshdesk" xmlns="http://www.w3.org/2000/svg"><g fill="none"><path d="M128 48h60c11.085 0 20 8.915 20 20v60c0 44.34-35.66 80-80 80s-80-35.66-80-80c0-43.871 35.66-79.531 80-80z" fill="#25C16F"/><path d="M128 83.385c-20.357 0-36.923 16.524-36.923 36.923v24.615c0 6.919 5.68 12.584 12.308 12.308h10.769V128h-13.846v-7.692c-.238-15.678 13.488-27.953 29.231-27.692 15.022 1.156 26.855 13.431 27.692 27.692V128h-13.846v29.231h9.231c-.482 6.886-5.688 12.08-12.308 12.308h-10.769c-1.07-.228-2.017.244-1.538 1.538-.478.594.468 1.538 1.538 1.538h10.769c8.513 0 15.139-6.61 15.385-15.385 5.434-1.612 9.221-6.333 9.231-12.308v-24.615c.463-20.399-16.102-36.923-36.923-36.923z" fill="#fff"/></g></svg>