<svg width="256" height="256" fill="none" viewBox="0 0 256 256" id="ftp" xmlns="http://www.w3.org/2000/svg"><path fill-rule="evenodd" clip-rule="evenodd" d="M56 80h93.261l-5.935-16.666c-.946-2.86-3.613-3.334-6.633-3.334H62.522C58.576 60 56 60 56 64.641V80zm145.662 4H62.328c-3.297-.001-6.327 2.581-6.328 5.981v88.025c0 3.308 2.834 5.991 6.331 5.994h139.331c3.499-.003 6.334-2.685 6.338-5.994V89.981c-.007-3.305-2.842-5.982-6.338-5.981z" fill="#F2AA18"/><path fill-rule="evenodd" clip-rule="evenodd" d="M176.462 127.519c.135 6.674-4.771 12.138-11.5 11.976h-7.867v12.493h-6.782V116.01h14.197c6.526-.266 12.223 4.85 11.952 11.509zm-77.855 5.568v-11.245h16.718v-5.832H92V152h6.607v-13.087h16.205v-5.826H98.607zM135.495 152v-30.038h10.221v-5.826h-27.054v5.826h10.214V152h6.619zm34.3-24.343c.268 3.283-2.13 6.304-5.569 6.024h-7.011v-11.845h6.836c4.449.164 5.879 2.743 5.744 5.821z" fill="#fff"/></svg>