<svg width="256" height="256" fill="none" viewBox="0 0 256 256" id="github" xmlns="http://www.w3.org/2000/svg"><circle cx="128" cy="128" r="80" fill="#fff"/><path fill-rule="evenodd" clip-rule="evenodd" d="M128 48c-44.2 0-80 35.8-80 80 0 35.4 22.9 65.3 54.7 75.9 4 .7 5.5-1.7 5.5-3.8 0-1.9-.1-8.2-.1-14.9-20.1 3.7-25.3-4.9-26.9-9.4-.9-2.3-4.8-9.4-8.2-11.3-2.8-1.5-6.8-5.2-.1-5.3 6.3-.1 10.8 5.8 12.3 8.2 7.2 12.1 18.7 8.7 23.3 6.6.7-5.2 2.8-8.7 5.1-10.7-17.8-2-36.4-8.9-36.4-39.5 0-8.7 3.1-15.9 8.2-21.5-.8-2-3.6-10.2.8-21.2 0 0 6.7-2.1 22 8.2 6.4-1.8 13.2-2.7 20-2.7 6.8 0 13.6.9 20 2.7 15.3-10.4 22-8.2 22-8.2 4.4 11 1.6 19.2.8 21.2 5.1 5.6 8.2 12.7 8.2 21.5 0 30.7-18.7 37.5-36.5 39.5 2.9 2.5 5.4 7.3 5.4 14.8 0 10.7-.1 19.3-.1 22 0 2.1 1.5 4.6 5.5 3.8a80.123 80.123 0 0 0 39.458-29.184A80.124 80.124 0 0 0 208 128c0-44.2-35.8-80-80-80Z" fill="#171515"/></svg>