<svg width="256" height="256" fill="none" viewBox="0 0 256 256" id="gitlab" xmlns="http://www.w3.org/2000/svg"><path d="m205.194 111.972-.219-.573-21.743-56.727c-1.95-4.99-9.441-4.553-10.854.59l-14.68 44.929H98.303l-14.68-44.93c-1.413-5.142-8.904-5.58-10.854-.59l-21.743 56.732-.219.569c-6.443 16.805-.953 35.803 13.394 46.654l59.738 44.933a6.728 6.728 0 0 0 8.123 0l59.748-44.943c14.337-10.851 19.823-29.842 13.384-46.644Z" fill="#E24329"/><path d="m205.194 111.972-.219-.573a73.43 73.43 0 0 0-29.229 13.145c-.138.101-25.851 19.546-47.746 36.099a65640.086 65640.086 0 0 0 30.408 22.979l33.402-25.006c14.337-10.851 19.823-29.842 13.384-46.644Z" fill="#FC6D26"/><path d="m97.59 183.622 26.349 19.937a6.728 6.728 0 0 0 8.123 0l26.347-19.937s-14.152-10.686-30.408-22.979a73324.468 73324.468 0 0 1-30.412 22.979Z" fill="#FCA326"/><path d="M80.252 124.544a73.354 73.354 0 0 0-29.226-13.141l-.219.569c-6.443 16.805-.953 35.803 13.394 46.654l33.388 24.996s14.152-10.686 30.412-22.979c-21.895-16.553-47.611-35.998-47.75-36.099Z" fill="#FC6D26"/></svg>