<svg width="256" height="256" fill="none" viewBox="0 0 256 256" id="googleanalytics_v4" xmlns="http://www.w3.org/2000/svg"><path d="M158 67.09v120.001c0 13.427 9.273 20.909 19.091 20.909 9.091 0 19.091-6.364 19.091-20.909V68c0-12.31-9.091-20-19.091-20-10 0-19.091 8.482-19.091 19.09z" fill="#F9AB00"/><path d="M108 128v59.091c0 13.427 9.273 20.909 19.091 20.909 9.091 0 19.091-6.364 19.091-20.909v-58.182c0-12.309-9.091-20-19.091-20-10 0-19.091 8.482-19.091 19.091zm-30.909 79.999c10.544 0 19.091-8.547 19.091-19.09 0-10.544-8.547-19.091-19.091-19.091S58 178.365 58 188.909c0 10.543 8.547 19.09 19.091 19.09z" fill="#E37400"/></svg>