<svg width="256" height="256" fill="none" viewBox="0 0 256 256" id="googlesheets" xmlns="http://www.w3.org/2000/svg"><path d="M48 108.787c0-8.104 0-12.157 1.276-15.371a18.12 18.12 0 0 1 4.05-6.144 18.187 18.187 0 0 1 6.163-4.036c3.225-1.273 7.29-1.273 15.42-1.273h55.273c8.13 0 12.195 0 15.42 1.272a18.198 18.198 0 0 1 6.164 4.036 18.137 18.137 0 0 1 4.049 6.145c1.276 3.214 1.276 7.266 1.276 15.371v38.788c0 8.105 0 12.157-1.276 15.372a18.139 18.139 0 0 1-4.049 6.144 18.208 18.208 0 0 1-6.164 4.037c-3.225 1.272-7.29 1.272-15.42 1.272H74.909c-8.13 0-12.195 0-15.42-1.272a18.195 18.195 0 0 1-6.164-4.037 18.12 18.12 0 0 1-4.049-6.144C48 159.732 48 155.68 48 147.575v-38.788Z" fill="#009954"/><path d="M190.273 70H81.182C71.14 70 63 78.115 63 88.125v79.75C63 177.885 71.14 186 81.182 186h109.091c10.041 0 18.182-8.115 18.182-18.125v-79.75c0-10.01-8.141-18.125-18.182-18.125Z" fill="url(#cha)"/><path d="M190.273 70H81.182C71.14 70 63 78.115 63 88.125v79.75C63 177.885 71.14 186 81.182 186h109.091c10.041 0 18.182-8.115 18.182-18.125v-79.75c0-10.01-8.141-18.125-18.182-18.125Z" fill="url(#chb)"/><path d="M166.181 168.328v-11.781h-52.726c-3.013 0-5.455-2.435-5.455-5.438 0-3.003 2.442-5.437 5.455-5.437h52.726v-35.344c0-3.003 2.443-5.437 5.455-5.437s5.454 2.434 5.454 5.437v35.344h12.728c3.013 0 5.455 2.434 5.455 5.437s-2.442 5.438-5.455 5.438H177.09v11.781c0 3.003-2.442 5.437-5.454 5.437-3.012 0-5.455-2.435-5.455-5.437Z" fill="#fff"/><defs><linearGradient id="cha" x1="63" y1="128" x2="208.455" y2="128" gradientUnits="userSpaceOnUse"><stop stop-color="#7BC8FE"/><stop offset=".677" stop-color="#11BC5C"/></linearGradient><linearGradient id="chb" x1="136.243" y1="186" x2="136.243" y2="70" gradientUnits="userSpaceOnUse"><stop stop-color="#14BA61"/><stop offset=".19" stop-color="#14BA61" stop-opacity="0"/><stop offset=".81" stop-color="#14BA61" stop-opacity="0"/><stop offset="1" stop-color="#14BA61"/></linearGradient></defs></svg>