<svg width="256" height="256" fill="none" viewBox="0 0 256 256" id="googlecloudsqlpostgresql" xmlns="http://www.w3.org/2000/svg"><mask id="cea" style="mask-type:alpha" maskUnits="userSpaceOnUse" x="57" y="45" width="143" height="116"><path fill-rule="evenodd" clip-rule="evenodd" d="M128.125 45.869c22.169 0 41.218 13.225 49.742 32.187a7.846 7.846 0 0 0 2.679 3.215c11.448 7.956 18.906 21.284 18.677 36.367-.356 23.859-20.305 42.789-44.165 42.789H97.203c-21.996 0-40.451-17.997-40.183-39.993.166-13.723 7.332-25.74 18.061-32.692 5.704-24.018 27.281-41.873 53.037-41.873h.007Zm0 26.862c-14.394 0-26.237 11.013-27.533 25.068l-.766 8.328-7.814 2.986a12.646 12.646 0 0 0-8.13 11.819c0 6.984 5.657 12.641 12.641 12.641h59.254c9.165 0 16.592-7.426 16.592-16.591 0-6.795-4.085-12.665-9.995-15.224l-5.886-2.56-1.706-6.186c-3.231-11.701-13.96-20.273-26.657-20.273v-.008Z" fill="#000"/></mask><g mask="url(#cea)"><circle cx="132.232" cy="117.869" r="104" fill="#fff"/><g filter="url(#ceb)"><path d="M62.405 40.797a104 104 0 0 0-34.172 76.877l103.999.195-69.827-77.072Z" fill="#FF55A1"/></g><g filter="url(#cec)"><path d="M179.823 25.396A104 104 0 0 0 52.66 50.907l79.572 66.963 47.591-92.472Z" fill="#FF242C"/></g><g filter="url(#ced)"><path d="M51.534 183.472a103.994 103.994 0 0 0 73.706 38.162 104.001 104.001 0 0 0 78.16-27.928l-71.168-75.837-80.698 65.603Z" fill="#009AEB"/></g><g filter="url(#cee)"><path d="M188.779 205.153A104 104 0 0 0 230.652 84.26l-98.42 33.609 56.547 87.284Z" fill="#00BE53"/></g><g filter="url(#cef)"><path d="M28.232 117.869a104 104 0 0 0 72.524 99.122l31.476-99.122h-104Z" fill="#0087FF"/></g><g filter="url(#ceg)"><path d="M233.925 96.082a104.004 104.004 0 0 0-64.952-75.507l-36.741 97.294 101.693-21.787Z" fill="#FFD401"/></g></g><path d="M96.524 81.414c12.317 0 23.323 5.64 30.568 14.473l-18.867 18.867-2.536-2.536a12.622 12.622 0 0 0-9.173-3.943c-6.984 0-12.64 5.657-12.64 12.641 0 4.915 2.804 9.181 6.905 11.267l-19.294 19.293c-8.832-7.245-14.473-18.243-14.473-30.56 0-21.813 17.689-39.502 39.502-39.502h.008Z" fill="url(#ceh)"/><path fill-rule="evenodd" clip-rule="evenodd" d="M38.74 189.5V200h-6.03v-29.859h10.173c5.715 0 9.7 4.221 9.7 9.884 0 5.804-4.13 9.475-9.823 9.475h-4.02Zm0-5.024h4.143c2.542 0 3.61-2.115 3.61-4.41 0-2.205-.959-4.868-3.549-4.901H38.74v9.311Zm19.011-4.205c3.21-3.873 9.997-3.874 13.207 0 3.457 4.172 3.497 13.086.02 17.289-3.197 3.864-10.042 3.848-13.237-.011-3.48-4.203-3.451-13.1.01-17.278Zm4.484 14.229c1.033 1.447 3.261 1.446 4.295 0 1.112-1.556 1.001-3.672 1.017-5.5.015-1.768.072-3.734-.834-5.314-1.093-1.906-3.603-1.912-4.686 0-.884 1.56-.83 3.489-.83 5.23 0 1.845-.082 4.014 1.038 5.584Zm20.68-3.503c-3.166-1.284-6.276-3.092-6.276-6.891 0-4.252 3.715-6.706 7.67-6.706 4.196 0 8.039 2.425 8.039 6.953h-5.804c0-1.805-.752-2.707-2.256-2.707-1.264 0-2.112.931-2.112 2.173 0 1.673 2.577 2.408 3.753 2.912 3.367 1.246 6.48 3.134 6.48 7.096 0 4.432-4.126 6.583-8.1 6.583-4.16 0-8.286-2.749-8.286-7.28h5.517c.05 1.853.971 3.035 2.892 3.035 1.383 0 2.153-.555 2.308-1.665.294-2.102-2.318-2.844-3.826-3.503Zm19.851-18.642v5.456h2.973v4.368h-2.973v11.012c0 2.013 1.127 2.689 3.117 2.154l-.041 4.511c-1.509.566-3.258.734-4.842.392-2.658-.573-4.004-2.665-4.038-6.277v-11.792h-2.564v-4.368h2.564v-5.456h5.804Zm12.94 5.045c2.01 0 3.562.793 4.655 2.379l.226-1.968h5.229V200c0 2.83-.793 4.994-2.378 6.491-3.325 3.138-10.564 3.208-13.659-.339l1.949-4.019c1.653 1.736 5.57 3.036 7.413 1.015 1.154-1.265.872-3.326.872-4.912-1.108 1.45-2.55 2.174-4.327 2.174-5.694 0-7.426-5.785-7.465-10.541 0-5.215.736-12.469 7.485-12.469Zm-1.682 12.285c0 2.325.276 5.885 3.343 5.885 1.19 0 2.071-.43 2.646-1.292v-10.602c-.602-.944-1.47-1.415-2.605-1.415-3.702 0-3.384 4.877-3.384 7.424Zm26.968-6.276-1.928-.164c-1.585 0-2.659.697-3.219 2.092V200h-5.824v-22.189h5.475l.164 2.399c.916-1.873 2.181-2.81 3.794-2.81.656 0 1.19.089 1.6.267l-.062 5.742Zm10.91 16.987c-6.878-.306-8.839-5.997-8.839-12.044 0-3.5.766-6.201 2.297-8.101 2.981-3.699 9.86-4 12.879-.174 2.389 3.026 2.154 7.13 2.154 10.777h-11.546c.12 2.408 1.019 4.577 3.691 4.727 1.953.109 3.855-.576 5.23-1.979l2.276 3.506c-1.818 2.517-5.17 3.42-8.142 3.288Zm-3.014-13.603h5.803c0-1.927-.305-4.573-2.789-4.573-2.497 0-2.912 2.57-3.014 4.573Zm27.685 5.373c0-2.715-2.061-3.771-4.327-4.696-4.257-1.614-8.429-4.366-8.429-9.393 0-5.263 4.547-8.347 9.475-8.347 5.257 0 9.372 3.824 9.372 9.229h-6.009c0-2.221-.992-4.286-3.466-4.286-2.034 0-3.342 1.441-3.342 3.445 0 2.344 2.657 3.514 4.47 4.286 4.553 1.646 8.327 4.509 8.327 9.721 0 5.342-4.175 8.285-9.229 8.285-5.752 0-10.336-4.04-10.336-9.823h6.05c0 2.891 1.199 4.922 4.286 4.922 2.106 0 3.158-1.114 3.158-3.343Zm27.071 5.988 4.122 3.692-3.794 3.486-5.496-5.024c-3.582.232-7.08-.42-9.506-3.333-2.825-3.392-2.881-7.791-2.881-11.975 0-4.125.087-8.464 2.85-11.814 3.812-4.621 11.826-4.651 15.73-.133 2.888 3.342 2.974 7.769 2.974 11.947 0 4.688-.102 9.876-3.999 13.154Zm-6.789-23.379c-5.116 0-4.737 6.578-4.737 10.142 0 3.618-.479 10.469 4.778 10.469 5.159 0 4.697-6.853 4.697-10.386 0-3.558.403-10.225-4.738-10.225Zm21.165 20.221h10.582V200H211.99v-29.859h6.03v24.855Z" fill="#5F6368"/><defs><filter id="ceb" x="-11.768" y=".797" width="184" height="157.072" filterUnits="userSpaceOnUse" color-interpolation-filters="sRGB"><feFlood flood-opacity="0" result="BackgroundImageFix"/><feBlend in="SourceGraphic" in2="BackgroundImageFix" result="shape"/><feGaussianBlur stdDeviation="20" result="effect1_foregroundBlur_1_325"/></filter><filter id="cec" x="12.66" y="-26.131" width="207.162" height="184" filterUnits="userSpaceOnUse" color-interpolation-filters="sRGB"><feFlood flood-opacity="0" result="BackgroundImageFix"/><feBlend in="SourceGraphic" in2="BackgroundImageFix" result="shape"/><feGaussianBlur stdDeviation="20" result="effect1_foregroundBlur_1_325"/></filter><filter id="ced" x="11.533" y="77.869" width="231.867" height="184" filterUnits="userSpaceOnUse" color-interpolation-filters="sRGB"><feFlood flood-opacity="0" result="BackgroundImageFix"/><feBlend in="SourceGraphic" in2="BackgroundImageFix" result="shape"/><feGaussianBlur stdDeviation="20" result="effect1_foregroundBlur_1_325"/></filter><filter id="cee" x="92.232" y="44.26" width="184" height="200.893" filterUnits="userSpaceOnUse" color-interpolation-filters="sRGB"><feFlood flood-opacity="0" result="BackgroundImageFix"/><feBlend in="SourceGraphic" in2="BackgroundImageFix" result="shape"/><feGaussianBlur stdDeviation="20" result="effect1_foregroundBlur_1_325"/></filter><filter id="cef" x="4.232" y="93.869" width="152" height="147.122" filterUnits="userSpaceOnUse" color-interpolation-filters="sRGB"><feFlood flood-opacity="0" result="BackgroundImageFix"/><feBlend in="SourceGraphic" in2="BackgroundImageFix" result="shape"/><feGaussianBlur stdDeviation="12" result="effect1_foregroundBlur_1_325"/></filter><filter id="ceg" x="92.232" y="-19.425" width="181.691" height="177.294" filterUnits="userSpaceOnUse" color-interpolation-filters="sRGB"><feFlood flood-opacity="0" result="BackgroundImageFix"/><feBlend in="SourceGraphic" in2="BackgroundImageFix" result="shape"/><feGaussianBlur stdDeviation="20" result="effect1_foregroundBlur_1_325"/></filter><linearGradient id="ceh" x1="97.204" y1="123.539" x2="99.195" y2="127.616" gradientUnits="userSpaceOnUse"><stop stop-color="#0087FF"/><stop offset="1" stop-color="#0087FF" stop-opacity="0"/></linearGradient></defs></svg>