<svg width="256" height="256" fill="none" viewBox="0 0 256 256" id="googleads" xmlns="http://www.w3.org/2000/svg"><path d="m105.77 69.091-51.331 88.907 44.457 25.668 51.332-88.907-44.458-25.668z" fill="#FBBC04"/><path d="m201.561 157.992-51.336-88.91c-7.087-12.275-22.785-16.484-35.061-9.397-12.276 7.088-16.485 22.785-9.398 35.062l51.337 88.908c7.087 12.277 22.785 16.477 35.061 9.398 12.276-7.088 16.476-22.785 9.397-35.061z" fill="#4285F4"/><path d="M76.672 196.492c14.174 0 25.664-11.49 25.664-25.664 0-14.174-11.49-25.664-25.663-25.664-14.174 0-25.664 11.49-25.664 25.664 0 14.174 11.49 25.664 25.663 25.664z" fill="#34A853"/></svg>