<svg width="256" height="256" fill="none" viewBox="0 0 256 256" id="googlecloudsqlmysql" xmlns="http://www.w3.org/2000/svg"><mask id="cda" style="mask-type:alpha" maskUnits="userSpaceOnUse" x="57" y="45" width="143" height="116"><path fill-rule="evenodd" clip-rule="evenodd" d="M128.125 45.869c22.169 0 41.218 13.225 49.742 32.187a7.846 7.846 0 0 0 2.679 3.215c11.448 7.956 18.906 21.284 18.677 36.367-.356 23.859-20.305 42.789-44.165 42.789H97.203c-21.996 0-40.451-17.997-40.183-39.993.166-13.723 7.332-25.74 18.061-32.692 5.704-24.018 27.281-41.873 53.037-41.873h.007Zm0 26.862c-14.394 0-26.237 11.013-27.533 25.068l-.766 8.328-7.814 2.986a12.646 12.646 0 0 0-8.13 11.819c0 6.984 5.657 12.641 12.641 12.641h59.254c9.165 0 16.592-7.426 16.592-16.591 0-6.795-4.085-12.665-9.995-15.224l-5.886-2.56-1.706-6.186c-3.231-11.701-13.96-20.273-26.657-20.273v-.008Z" fill="#000"/></mask><g mask="url(#cda)"><circle cx="132.232" cy="117.869" r="104" fill="#fff"/><g filter="url(#cdb)"><path d="M62.405 40.797a104 104 0 0 0-34.172 76.877l103.999.195-69.827-77.072Z" fill="#FF55A1"/></g><g filter="url(#cdc)"><path d="M179.823 25.396A104 104 0 0 0 52.66 50.907l79.572 66.963 47.591-92.472Z" fill="#FF242C"/></g><g filter="url(#cdd)"><path d="M51.534 183.472a103.994 103.994 0 0 0 73.706 38.162 104.001 104.001 0 0 0 78.16-27.928l-71.168-75.837-80.698 65.603Z" fill="#009AEB"/></g><g filter="url(#cde)"><path d="M188.779 205.153A104 104 0 0 0 230.652 84.26l-98.42 33.609 56.547 87.284Z" fill="#00BE53"/></g><g filter="url(#cdf)"><path d="M28.232 117.869a104 104 0 0 0 72.524 99.122l31.476-99.122h-104Z" fill="#0087FF"/></g><g filter="url(#cdg)"><path d="M233.925 96.082a104.004 104.004 0 0 0-64.952-75.507l-36.741 97.294 101.693-21.787Z" fill="#FFD401"/></g></g><path d="M96.524 81.414c12.317 0 23.323 5.64 30.568 14.473l-18.867 18.867-2.536-2.536a12.622 12.622 0 0 0-9.173-3.943c-6.984 0-12.64 5.657-12.64 12.641 0 4.915 2.804 9.181 6.905 11.267l-19.294 19.293c-8.832-7.245-14.473-18.243-14.473-30.56 0-21.813 17.689-39.502 39.502-39.502h.008Z" fill="url(#cdh)"/><path fill-rule="evenodd" clip-rule="evenodd" d="M94.838 170.403V201H88.58v-17.598c0-.812.035-1.792.147-2.772L80.6 196.359c-1.117 2.17-4.815 2.153-5.922 0l-8.127-15.771c.084 1.008.147 2.002.147 2.814V201H60.44v-30.597h5.418c1.231 0 1.791.028 2.352 1.092l7.875 15.519a35.073 35.073 0 0 1 1.553 3.423c.477-1.232.987-2.422 1.575-3.486l7.855-15.456c.525-.999 1.339-1.092 2.352-1.092h5.418Zm25.43 8.82-11.634 27.426c-.412.913-1.068 1.26-2.058 1.26h-4.872l4.2-8.82-8.694-19.866h5.754c.797 0 1.457.383 1.764 1.134l3.57 9.387c.336.854.609 1.729.819 2.625.307-.892.605-1.787.945-2.667l3.234-9.345c.268-.683.999-1.134 1.722-1.134h5.25Zm19.572-2.604c-.608.974-1.598 1.248-2.593.704-1.567-.858-3.1-1.67-4.925-1.67-2.008 0-3.948.893-3.948 3.15 0 2.103 2.674 2.9 4.316 3.392 4.621 1.382 9.334 3.593 9.334 8.998 0 4.191-2.413 7.857-6.31 9.356-4.895 1.882-11.412.495-15.152-3.245l2.1-3.318c.68-.963 1.883-1.028 2.825-.441 1.814 1.13 3.596 2.163 5.785 2.163 2.289 0 4.074-1.1 4.074-3.549 0-3.146-4.475-3.634-6.804-4.378-4.149-1.327-6.804-4.238-6.804-8.621 0-5.684 5.318-9.093 10.5-9.093 3.318 0 6.88.96 9.366 3.255l-1.764 3.297Zm11.886 9.072c0 5.317 3.17 9.765 8.652 9.765 5.68 0 8.61-4.576 8.61-9.765 0-5.263-3.159-9.765-8.61-9.765-5.618 0-8.652 4.632-8.652 9.765Zm26.25 21.042h-5.838c-1.557 0-3.005-.395-4.116-1.533l-3.801-4.263c-1.19.266-2.471.399-3.843.399-8.863 0-15.918-6.867-15.918-15.645 0-8.962 7.218-15.624 15.918-15.624 8.832 0 15.876 6.879 15.876 15.624 0 4.853-2.078 9.675-6.027 12.579l7.749 8.463Zm20.895-11.403V201h-18.438v-30.597h7.098v24.927h11.34Z" fill="#5F6368"/><defs><filter id="cdb" x="-11.768" y=".797" width="184" height="157.072" filterUnits="userSpaceOnUse" color-interpolation-filters="sRGB"><feFlood flood-opacity="0" result="BackgroundImageFix"/><feBlend in="SourceGraphic" in2="BackgroundImageFix" result="shape"/><feGaussianBlur stdDeviation="20" result="effect1_foregroundBlur_1_331"/></filter><filter id="cdc" x="12.66" y="-26.131" width="207.162" height="184" filterUnits="userSpaceOnUse" color-interpolation-filters="sRGB"><feFlood flood-opacity="0" result="BackgroundImageFix"/><feBlend in="SourceGraphic" in2="BackgroundImageFix" result="shape"/><feGaussianBlur stdDeviation="20" result="effect1_foregroundBlur_1_331"/></filter><filter id="cdd" x="11.533" y="77.869" width="231.867" height="184" filterUnits="userSpaceOnUse" color-interpolation-filters="sRGB"><feFlood flood-opacity="0" result="BackgroundImageFix"/><feBlend in="SourceGraphic" in2="BackgroundImageFix" result="shape"/><feGaussianBlur stdDeviation="20" result="effect1_foregroundBlur_1_331"/></filter><filter id="cde" x="92.232" y="44.26" width="184" height="200.893" filterUnits="userSpaceOnUse" color-interpolation-filters="sRGB"><feFlood flood-opacity="0" result="BackgroundImageFix"/><feBlend in="SourceGraphic" in2="BackgroundImageFix" result="shape"/><feGaussianBlur stdDeviation="20" result="effect1_foregroundBlur_1_331"/></filter><filter id="cdf" x="4.232" y="93.869" width="152" height="147.122" filterUnits="userSpaceOnUse" color-interpolation-filters="sRGB"><feFlood flood-opacity="0" result="BackgroundImageFix"/><feBlend in="SourceGraphic" in2="BackgroundImageFix" result="shape"/><feGaussianBlur stdDeviation="12" result="effect1_foregroundBlur_1_331"/></filter><filter id="cdg" x="92.232" y="-19.425" width="181.691" height="177.294" filterUnits="userSpaceOnUse" color-interpolation-filters="sRGB"><feFlood flood-opacity="0" result="BackgroundImageFix"/><feBlend in="SourceGraphic" in2="BackgroundImageFix" result="shape"/><feGaussianBlur stdDeviation="20" result="effect1_foregroundBlur_1_331"/></filter><linearGradient id="cdh" x1="97.204" y1="123.539" x2="99.195" y2="127.616" gradientUnits="userSpaceOnUse"><stop stop-color="#0087FF"/><stop offset="1" stop-color="#0087FF" stop-opacity="0"/></linearGradient></defs></svg>