<svg width="256" height="256" viewBox="0 0 256 256" id="google" xmlns="http://www.w3.org/2000/svg"><g fill="none"><path d="M201.175 129.656a63.586 63.586 0 0 0-1.552-15.194h-69.836v27.586h40.962a36.34 36.34 0 0 1-15.187 24.113v.931l22.063 17.115h1.546a72.71 72.71 0 0 0 22.121-54.714" fill="#4285F4"/><path d="M129.787 202.357a70.974 70.974 0 0 0 49.267-18.039l-23.492-18.162a43.998 43.998 0 0 1-25.775 7.432c-19.319-.109-36.387-12.605-42.327-30.989h-.873l-22.929 17.787v.809a74.37 74.37 0 0 0 66.13 41.163" fill="#34A853"/><path d="M87.453 142.676a45.786 45.786 0 0 1-2.542-14.689 48.402 48.402 0 0 1 2.413-14.689v-.99l-23.24-18.039-.737.382a74.281 74.281 0 0 0 0 66.738l24.107-18.596" fill="#FBBC05"/><path d="M129.787 82.368a41.265 41.265 0 0 1 28.751 11.093l21.008-20.504a71.408 71.408 0 0 0-49.578-19.34 74.37 74.37 0 0 0-66.434 40.962l24.042 18.583c6-18.371 23.073-30.85 42.398-30.989" fill="#EB4335"/></g></svg>