<svg width="256" height="256" fill="none" viewBox="0 0 256 256" id="googlecloudsqlserver" xmlns="http://www.w3.org/2000/svg"><mask id="cfa" style="mask-type:alpha" maskUnits="userSpaceOnUse" x="57" y="45" width="143" height="116"><path fill-rule="evenodd" clip-rule="evenodd" d="M128.125 45.869c22.169 0 41.218 13.225 49.742 32.187a7.846 7.846 0 0 0 2.679 3.215c11.448 7.956 18.906 21.284 18.677 36.367-.356 23.859-20.305 42.789-44.165 42.789H97.203c-21.996 0-40.451-17.997-40.183-39.993.166-13.723 7.332-25.74 18.061-32.692 5.704-24.018 27.281-41.873 53.037-41.873h.007Zm0 26.862c-14.394 0-26.237 11.013-27.533 25.068l-.766 8.328-7.814 2.986a12.646 12.646 0 0 0-8.13 11.819c0 6.984 5.657 12.641 12.641 12.641h59.254c9.165 0 16.592-7.426 16.592-16.591 0-6.795-4.085-12.665-9.995-15.224l-5.886-2.56-1.706-6.186c-3.231-11.701-13.96-20.273-26.657-20.273v-.008Z" fill="#000"/></mask><g mask="url(#cfa)"><circle cx="132.232" cy="117.869" r="104" fill="#fff"/><g filter="url(#cfb)"><path d="M62.405 40.797a104 104 0 0 0-34.172 76.877l103.999.195-69.827-77.072Z" fill="#FF55A1"/></g><g filter="url(#cfc)"><path d="M179.823 25.396A104 104 0 0 0 52.66 50.907l79.572 66.963 47.591-92.472Z" fill="#FF242C"/></g><g filter="url(#cfd)"><path d="M51.534 183.472a103.994 103.994 0 0 0 73.706 38.162 104.001 104.001 0 0 0 78.16-27.928l-71.168-75.837-80.698 65.603Z" fill="#009AEB"/></g><g filter="url(#cfe)"><path d="M188.779 205.153A104 104 0 0 0 230.652 84.26l-98.42 33.609 56.547 87.284Z" fill="#00BE53"/></g><g filter="url(#cff)"><path d="M28.232 117.869a104 104 0 0 0 72.524 99.122l31.476-99.122h-104Z" fill="#0087FF"/></g><g filter="url(#cfg)"><path d="M233.925 96.082a104.004 104.004 0 0 0-64.952-75.507l-36.741 97.294 101.693-21.787Z" fill="#FFD401"/></g></g><path d="M96.524 81.414c12.317 0 23.323 5.64 30.568 14.473l-18.867 18.867-2.536-2.536a12.622 12.622 0 0 0-9.173-3.943c-6.984 0-12.64 5.657-12.64 12.641 0 4.915 2.804 9.181 6.905 11.267l-19.294 19.293c-8.832-7.245-14.473-18.243-14.473-30.56 0-21.813 17.689-39.502 39.502-39.502h.008Z" fill="url(#cfh)"/><path d="m43.63 173.322-1.764 3.297c-.42.672-.82 1.008-1.554 1.008-1.281 0-2.856-1.974-5.964-1.974-2.667 0-3.948 1.218-3.948 3.15 0 4.956 13.65 2.142 13.65 12.39 0 5.649-3.99 10.143-10.962 10.143-3.801 0-8.106-1.638-10.5-4.032l2.1-3.318c.336-.483.903-.84 1.554-.84 1.659 0 3.234 2.562 7.056 2.562 2.583 0 4.074-1.092 4.074-3.549 0-5.754-13.608-1.575-13.608-12.999 0-4.62 3.78-9.093 10.5-9.093 3.759 0 7.182 1.239 9.366 3.255Zm28.61 24.948 7.75 8.463h-5.838c-1.68 0-2.961-.357-4.116-1.533l-3.801-4.263c-1.197.273-2.478.399-3.843.399-9.534 0-15.918-6.804-15.918-15.645s6.384-15.624 15.918-15.624c9.513 0 15.876 6.825 15.876 15.624 0 5.25-2.205 9.765-6.027 12.579Zm-18.5-12.579c0 6.132 3.192 9.765 8.652 9.765 5.418 0 8.61-3.633 8.61-9.765 0-6.069-3.192-9.765-8.61-9.765-5.46 0-8.652 3.696-8.652 9.765Zm35.823 9.639h11.34V201H82.465v-30.597h7.098v24.927Zm42.086-22.008-1.764 3.297c-.42.672-.819 1.008-1.554 1.008-1.281 0-2.856-1.974-5.964-1.974-2.667 0-3.948 1.218-3.948 3.15 0 4.956 13.65 2.142 13.65 12.39 0 5.649-3.99 10.143-10.962 10.143-3.801 0-8.106-1.638-10.5-4.032l2.1-3.318c.336-.483.903-.84 1.554-.84 1.659 0 3.234 2.562 7.056 2.562 2.583 0 4.074-1.092 4.074-3.549 0-5.754-13.608-1.575-13.608-12.999 0-4.62 3.78-9.093 10.5-9.093 3.759 0 7.182 1.239 9.366 3.255Zm21.744 17.955h-12.558c.42 3.633 2.289 5.187 5.124 5.187 3.045 0 4.158-1.764 5.712-1.764.525 0 .903.189 1.176.567l1.89 2.331c-2.667 3.066-6.384 3.738-9.366 3.738-6.09 0-11.046-3.99-11.046-11.697 0-5.817 4.116-10.752 10.752-10.752 5.754 0 9.786 3.675 9.786 9.975 0 1.932-.294 2.415-1.47 2.415Zm-12.474-3.78h8.106c0-2.058-1.008-4.116-3.822-4.116-2.457 0-3.843 1.449-4.284 4.116Zm22.956-6.741.336 1.827c1.344-2.352 3.066-3.78 5.334-3.78.987 0 1.785.231 2.394.693l-.42 4.788c-.147.609-.441.798-1.008.798-.462 0-1.491-.168-2.163-.168-1.911 0-2.94 1.071-3.717 2.856V201h-6.51v-21.777h3.864c1.302 0 1.659.42 1.89 1.533Zm25.634-1.533h5.166L186.233 201h-5.922l-8.442-21.777h5.418c.924 0 1.575.483 1.806 1.134l3.024 9.765a41.812 41.812 0 0 1 1.239 4.599 35.992 35.992 0 0 1 1.281-4.599l3.15-9.765c.231-.651.882-1.134 1.722-1.134Zm24.464 12.054h-12.558c.42 3.633 2.289 5.187 5.124 5.187 3.045 0 4.158-1.764 5.712-1.764.525 0 .903.189 1.176.567l1.89 2.331c-2.667 3.066-6.384 3.738-9.366 3.738-6.09 0-11.046-3.99-11.046-11.697 0-5.817 4.116-10.752 10.752-10.752 5.754 0 9.786 3.675 9.786 9.975 0 1.932-.294 2.415-1.47 2.415Zm-12.474-3.78h8.106c0-2.058-1.008-4.116-3.822-4.116-2.457 0-3.843 1.449-4.284 4.116Zm22.956-6.741.336 1.827c1.344-2.352 3.066-3.78 5.334-3.78.987 0 1.785.231 2.394.693l-.42 4.788c-.147.609-.441.798-1.008.798-.462 0-1.491-.168-2.163-.168-1.911 0-2.94 1.071-3.717 2.856V201h-6.51v-21.777h3.864c1.302 0 1.659.42 1.89 1.533Z" fill="#5F6368"/><defs><filter id="cfb" x="-11.768" y=".797" width="184" height="157.072" filterUnits="userSpaceOnUse" color-interpolation-filters="sRGB"><feFlood flood-opacity="0" result="BackgroundImageFix"/><feBlend in="SourceGraphic" in2="BackgroundImageFix" result="shape"/><feGaussianBlur stdDeviation="20" result="effect1_foregroundBlur_1_337"/></filter><filter id="cfc" x="12.66" y="-26.131" width="207.162" height="184" filterUnits="userSpaceOnUse" color-interpolation-filters="sRGB"><feFlood flood-opacity="0" result="BackgroundImageFix"/><feBlend in="SourceGraphic" in2="BackgroundImageFix" result="shape"/><feGaussianBlur stdDeviation="20" result="effect1_foregroundBlur_1_337"/></filter><filter id="cfd" x="11.533" y="77.869" width="231.867" height="184" filterUnits="userSpaceOnUse" color-interpolation-filters="sRGB"><feFlood flood-opacity="0" result="BackgroundImageFix"/><feBlend in="SourceGraphic" in2="BackgroundImageFix" result="shape"/><feGaussianBlur stdDeviation="20" result="effect1_foregroundBlur_1_337"/></filter><filter id="cfe" x="92.232" y="44.26" width="184" height="200.893" filterUnits="userSpaceOnUse" color-interpolation-filters="sRGB"><feFlood flood-opacity="0" result="BackgroundImageFix"/><feBlend in="SourceGraphic" in2="BackgroundImageFix" result="shape"/><feGaussianBlur stdDeviation="20" result="effect1_foregroundBlur_1_337"/></filter><filter id="cff" x="4.232" y="93.869" width="152" height="147.122" filterUnits="userSpaceOnUse" color-interpolation-filters="sRGB"><feFlood flood-opacity="0" result="BackgroundImageFix"/><feBlend in="SourceGraphic" in2="BackgroundImageFix" result="shape"/><feGaussianBlur stdDeviation="12" result="effect1_foregroundBlur_1_337"/></filter><filter id="cfg" x="92.232" y="-19.425" width="181.691" height="177.294" filterUnits="userSpaceOnUse" color-interpolation-filters="sRGB"><feFlood flood-opacity="0" result="BackgroundImageFix"/><feBlend in="SourceGraphic" in2="BackgroundImageFix" result="shape"/><feGaussianBlur stdDeviation="20" result="effect1_foregroundBlur_1_337"/></filter><linearGradient id="cfh" x1="97.204" y1="123.539" x2="99.195" y2="127.616" gradientUnits="userSpaceOnUse"><stop stop-color="#0087FF"/><stop offset="1" stop-color="#0087FF" stop-opacity="0"/></linearGradient></defs></svg>