<svg width="256" height="256" fill="none" viewBox="0 0 256 256" id="googleapps" xmlns="http://www.w3.org/2000/svg"><mask id="cca" style="mask-type:alpha" maskUnits="userSpaceOnUse" x="50" y="48" width="156" height="160"><path d="M204.551 113.423h-74.856v30.847h42.712c-3.804 20.552-23.074 31.695-42.827 31.695-25.856 0-46.997-22.591-46.997-47.98 0-25.385 21.144-47.98 46.997-47.98 11.69 0 22.162 4.033 30.422 11.916l22.795-22.827c-13.777-12.864-31.76-20.758-53.217-20.758-43.486 0-79.54 36.59-79.54 79.658 0 43.072 36.049 79.666 79.54 79.666 44.41 0 76.381-33.71 76.381-77.847 0-5.651-.478-11.094-1.39-16.292l-.02-.098Z" fill="#fff"/></mask><g mask="url(#cca)"><g filter="url(#ccb)"><path d="M49 128.291c.144 22.018 8.887 40.901 24.147 56.111l36.365-13.552c-16.94-8.789-25.543-24.445-25.745-42.559H49Z" fill="url(#ccc)"/></g><g filter="url(#ccd)"><path d="M129.724 47.6c-3.595 12.896-2.22 25.433 0 32.727 11.306.008 22.317 4.11 30.546 11.964l23.313-23.318C169.772 56.04 153.152 47.62 129.724 47.6Z" fill="url(#cce)"/></g><g filter="url(#ccf)"><path d="M129.645 47.497c-23.047 0-45.447 10.056-60.79 27.202-1.06 10.159 7.937 22.645 25.753 22.541 8.644-10.27 21.429-16.914 35.658-16.914h.038l-.581-32.827-.078-.002Z" fill="url(#ccg)"/></g><g filter="url(#cch)"><path d="m187.834 131.967-15.736 11.041c-3.292 20.639-23.132 32.183-42.957 32.199-8.261 14.372-9.71 21.571.581 33.171 47.405-.034 77.277-32.212 77.277-78.799l-19.165 2.388Z" fill="url(#cci)"/></g><g filter="url(#ccj)"><path d="M128.561 111.831v32.921h77.663v-32.921h-77.663Z" fill="#3086FF"/></g><g filter="url(#cck)"><path d="M69.216 73.537c-13.36 14.931-20.345 34.801-20.214 54.754 2.404 4.709 33.214 3.807 34.767 0-.153-13.998 6.42-25.38 15.384-35.631-6.583-9.324-21.92-10.409-29.937-19.123Z" fill="url(#ccl)"/></g><g filter="url(#ccm)"><path d="M87.982 91.59c12.309 7.615 15.849-3.845 24.033-7.43L97.779 54.005a79.916 79.916 0 0 0-14.776 8.305A79.734 79.734 0 0 0 65.092 79.9l22.89 11.69Z" fill="url(#ccn)"/></g><g filter="url(#cco)"><path d="M72.361 185.291c15.047 14.997 36.068 23.208 57.287 23.208l.076-.002v-33.871l-.052.001c-8.203 0-14.758-2.2-21.479-6.027-11.263 4.519-34.19 5.395-35.832 16.691Z" fill="url(#ccp)"/></g><g opacity=".5" filter="url(#ccq)"><path d="M120.045 173.559v34.351c6.427.769 12.917.75 19.354.09v-34.209c-6.41 1.119-12.984 1.151-19.354-.232Z" fill="url(#ccr)"/></g></g><path d="M204.551 113.423h-74.856v30.847h42.712c-3.804 20.552-23.074 31.695-42.827 31.695v31.695c44.41 0 76.381-33.71 76.381-77.847 0-5.651-.478-11.094-1.389-16.292l-.021-.098Z" fill="url(#ccs)"/><defs><filter id="ccb" x="48.727" y="128.018" width="61.058" height="56.658" filterUnits="userSpaceOnUse" color-interpolation-filters="sRGB"><feFlood flood-opacity="0" result="BackgroundImageFix"/><feBlend in="SourceGraphic" in2="BackgroundImageFix" result="shape"/><feGaussianBlur stdDeviation=".137" result="effect1_foregroundBlur_1_313"/></filter><filter id="ccd" x="127.24" y="47.326" width="56.615" height="45.238" filterUnits="userSpaceOnUse" color-interpolation-filters="sRGB"><feFlood flood-opacity="0" result="BackgroundImageFix"/><feBlend in="SourceGraphic" in2="BackgroundImageFix" result="shape"/><feGaussianBlur stdDeviation=".137" result="effect1_foregroundBlur_1_313"/></filter><filter id="ccf" x="68.498" y="47.224" width="62.08" height="50.29" filterUnits="userSpaceOnUse" color-interpolation-filters="sRGB"><feFlood flood-opacity="0" result="BackgroundImageFix"/><feBlend in="SourceGraphic" in2="BackgroundImageFix" result="shape"/><feGaussianBlur stdDeviation=".137" result="effect1_foregroundBlur_1_313"/></filter><filter id="cch" x="122.198" y="129.306" width="85.076" height="79.345" filterUnits="userSpaceOnUse" color-interpolation-filters="sRGB"><feFlood flood-opacity="0" result="BackgroundImageFix"/><feBlend in="SourceGraphic" in2="BackgroundImageFix" result="shape"/><feGaussianBlur stdDeviation=".137" result="effect1_foregroundBlur_1_313"/></filter><filter id="ccj" x="128.287" y="111.558" width="78.21" height="33.467" filterUnits="userSpaceOnUse" color-interpolation-filters="sRGB"><feFlood flood-opacity="0" result="BackgroundImageFix"/><feBlend in="SourceGraphic" in2="BackgroundImageFix" result="shape"/><feGaussianBlur stdDeviation=".137" result="effect1_foregroundBlur_1_313"/></filter><filter id="cck" x="48.727" y="73.264" width="50.699" height="58.503" filterUnits="userSpaceOnUse" color-interpolation-filters="sRGB"><feFlood flood-opacity="0" result="BackgroundImageFix"/><feBlend in="SourceGraphic" in2="BackgroundImageFix" result="shape"/><feGaussianBlur stdDeviation=".137" result="effect1_foregroundBlur_1_313"/></filter><filter id="ccm" x="63.171" y="52.086" width="50.765" height="43.984" filterUnits="userSpaceOnUse" color-interpolation-filters="sRGB"><feFlood flood-opacity="0" result="BackgroundImageFix"/><feBlend in="SourceGraphic" in2="BackgroundImageFix" result="shape"/><feGaussianBlur stdDeviation=".96" result="effect1_foregroundBlur_1_313"/></filter><filter id="cco" x="72.088" y="168.327" width="57.91" height="40.446" filterUnits="userSpaceOnUse" color-interpolation-filters="sRGB"><feFlood flood-opacity="0" result="BackgroundImageFix"/><feBlend in="SourceGraphic" in2="BackgroundImageFix" result="shape"/><feGaussianBlur stdDeviation=".137" result="effect1_foregroundBlur_1_313"/></filter><filter id="ccq" x="119.772" y="173.286" width="19.9" height="35.478" filterUnits="userSpaceOnUse" color-interpolation-filters="sRGB"><feFlood flood-opacity="0" result="BackgroundImageFix"/><feBlend in="SourceGraphic" in2="BackgroundImageFix" result="shape"/><feGaussianBlur stdDeviation=".137" result="effect1_foregroundBlur_1_313"/></filter><radialGradient id="ccc" cx="0" cy="0" r="1" gradientUnits="userSpaceOnUse" gradientTransform="matrix(-3.23817 -79.26058 116.42388 -4.75646 108.784 183.208)"><stop offset=".142" stop-color="#1ABD4D"/><stop offset=".248" stop-color="#6EC30D"/><stop offset=".312" stop-color="#8AC502"/><stop offset=".366" stop-color="#A2C600"/><stop offset=".446" stop-color="#C8C903"/><stop offset=".54" stop-color="#EBCB03"/><stop offset=".616" stop-color="#F7CD07"/><stop offset=".699" stop-color="#FDCD04"/><stop offset=".771" stop-color="#FDCE05"/><stop offset=".861" stop-color="#FFCE0A"/></radialGradient><radialGradient id="cce" cx="0" cy="0" r="1" gradientTransform="matrix(54.9925 -.00013 -.00008 71.0198 181.402 90.604)" gradientUnits="userSpaceOnUse"><stop offset=".408" stop-color="#FB4E5A"/><stop offset="1" stop-color="#FF4540"/></radialGradient><radialGradient id="ccg" cx="0" cy="0" r="1" gradientUnits="userSpaceOnUse" gradientTransform="rotate(151.02 70.876 38.168) scale(88.0768 119.52)"><stop offset=".231" stop-color="#FF4541"/><stop offset=".312" stop-color="#FF4540"/><stop offset=".458" stop-color="#FF4640"/><stop offset=".54" stop-color="#FF453F"/><stop offset=".699" stop-color="#FF5138"/><stop offset=".771" stop-color="#FF5B33"/><stop offset=".861" stop-color="#FF6C29"/><stop offset="1" stop-color="#FF8C18"/></radialGradient><radialGradient id="cci" cx="0" cy="0" r="1" gradientUnits="userSpaceOnUse" gradientTransform="matrix(-139.72872 -182.40104 67.3289 -51.57745 130.868 198.077)"><stop offset=".132" stop-color="#0CBA65"/><stop offset=".21" stop-color="#0BB86D"/><stop offset=".297" stop-color="#09B479"/><stop offset=".396" stop-color="#08AD93"/><stop offset=".477" stop-color="#0AA6A9"/><stop offset=".568" stop-color="#0D9CC6"/><stop offset=".667" stop-color="#1893DD"/><stop offset=".769" stop-color="#258BF1"/><stop offset=".859" stop-color="#3086FF"/></radialGradient><radialGradient id="ccl" cx="0" cy="0" r="1" gradientUnits="userSpaceOnUse" gradientTransform="rotate(96.618 33.6 85.995) scale(85.8025 118.637)"><stop offset=".366" stop-color="#FF4E3A"/><stop offset=".458" stop-color="#FF8A1B"/><stop offset=".54" stop-color="#FFA312"/><stop offset=".616" stop-color="#FFB60C"/><stop offset=".771" stop-color="#FFCD0A"/><stop offset=".861" stop-color="#FECF0A"/><stop offset=".915" stop-color="#FECF08"/><stop offset="1" stop-color="#FDCD01"/></radialGradient><radialGradient id="ccn" cx="0" cy="0" r="1" gradientUnits="userSpaceOnUse" gradientTransform="matrix(-28.58232 31.6116 -89.16174 -80.61753 108.99 61.645)"><stop offset=".316" stop-color="#FF4C3C"/><stop offset=".604" stop-color="#FF692C"/><stop offset=".727" stop-color="#FF7825"/><stop offset=".885" stop-color="#FF8D1B"/><stop offset="1" stop-color="#FF9F13"/></radialGradient><radialGradient id="ccp" cx="0" cy="0" r="1" gradientUnits="userSpaceOnUse" gradientTransform="rotate(-151.02 103.893 89.588) scale(88.0768 119.52)"><stop offset=".231" stop-color="#0FBC5F"/><stop offset=".312" stop-color="#0FBC5F"/><stop offset=".366" stop-color="#0FBC5E"/><stop offset=".458" stop-color="#0FBC5D"/><stop offset=".54" stop-color="#12BC58"/><stop offset=".699" stop-color="#28BF3C"/><stop offset=".771" stop-color="#38C02B"/><stop offset=".861" stop-color="#52C218"/><stop offset=".915" stop-color="#67C30F"/><stop offset="1" stop-color="#86C504"/></radialGradient><linearGradient id="ccr" x1="120.045" y1="191.029" x2="139.399" y2="191.029" gradientUnits="userSpaceOnUse"><stop stop-color="#0FBC5C"/><stop offset="1" stop-color="#0CBA65"/></linearGradient><linearGradient id="ccs" x1="167.771" y1="113.423" x2="167.771" y2="171.729" gradientUnits="userSpaceOnUse"><stop stop-color="#3186FF"/><stop offset=".528" stop-color="#3186FF"/><stop offset="1" stop-color="#3186FF" stop-opacity="0"/></linearGradient></defs></svg>