<svg width="256" height="256" fill="none" viewBox="0 0 256 256" id="graphql" xmlns="http://www.w3.org/2000/svg"><path d="M128 208c44.183 0 80-35.817 80-80s-35.817-80-80-80-80 35.817-80 80 35.817 80 80 80Z" fill="#E10098"/><path fill-rule="evenodd" clip-rule="evenodd" d="M128 78c5.867 0 10.168 5.856 8.551 11.405l20.596 11.892c4.143-4.33 11.577-3.29 14.353 2.062 2.587 4.989-.267 11.404-5.8 12.751v23.779c5.533 1.347 8.387 7.763 5.8 12.752-2.776 5.353-10.21 6.391-14.353 2.061l-20.596 11.892C138.168 172.143 133.867 178 128 178c-5.866 0-10.171-5.858-8.554-11.407L98.847 154.7c-4.143 4.333-11.58 3.294-14.355-2.064-2.583-4.991.274-11.404 5.807-12.748v-23.783c-5.533-1.344-8.39-7.755-5.807-12.746 2.775-5.359 10.215-6.398 14.358-2.062l20.596-11.892C117.83 83.857 122.135 78 128 78Zm-26.936 72.66a9.545 9.545 0 0 1-.101.378l20.599 11.894c3.462-3.618 9.411-3.617 12.873 0l20.596-11.891a9.699 9.699 0 0 1-.102-.381h-53.865Zm29.431-55.198a8.945 8.945 0 0 1-4.991 0L98.57 142.11a8.896 8.896 0 0 1 2.494 4.319h53.865a8.908 8.908 0 0 1 2.497-4.322l-26.931-46.646Zm-29.531 9.499c1.382 4.758-1.568 9.954-6.434 11.143v23.787c.128.031.254.065.38.101l26.931-46.646a10.45 10.45 0 0 1-.278-.279l-20.599 11.894Zm33.47-11.894a9.119 9.119 0 0 1-.278.279l26.932 46.645c.126-.037.253-.071.381-.102V116.11c-4.869-1.185-7.826-6.391-6.438-11.152l-20.597-11.89Z" fill="#fff"/></svg>