<svg width="256" height="256" fill="none" viewBox="0 0 256 256" id="grok" xmlns="http://www.w3.org/2000/svg"><path d="M71.902 72.494c23.237-23.201 57.461-29.052 86.045-17.298 6.324 2.347 11.835 5.688 16.135 8.793l-23.869 11.015c-22.225-9.317-47.684-2.98-63.223 12.549-20.85 20.816-25.192 56.793-1.204 80.316l.554.571-67.234 60.017c4.264-5.868 9.558-11.411 14.834-16.954 14.889-15.636 29.669-31.127 20.653-53.028-12.07-29.304-5.042-63.646 17.31-85.98Zm158.954-46.927a229.74 229.74 0 0 1-1.571 2.185c-22.134 30.46-32.94 45.356-24.266 82.622l-.055-.054c5.981 25.368-.416 53.498-21.068 74.136-26.038 26.036-67.704 31.831-102.017 8.396l23.923-11.068c21.899 8.594 45.859 4.82 63.078-12.386 17.22-17.207 21.087-42.269 12.432-63.123-1.644-3.954-6.578-4.947-10.029-2.401l-70.414 51.946 100.86-101.237v.09l29.127-29.106Z" fill="#000"/></svg>