<svg width="256" height="256" fill="none" viewBox="0 0 256 256" id="heymarket" xmlns="http://www.w3.org/2000/svg"><path d="M209.469 94.135c0-19.957-16.181-36.135-36.142-36.135H138.5v122.86h34.827c19.961 0 36.142-16.178 36.142-36.135v-50.59Z" fill="#000"/><path d="M47 94.135C47 74.178 63.182 58 83.143 58h57.828c19.961 0 36.144 16.178 36.144 36.135v50.59c0 19.957-16.183 36.135-36.144 36.135H79.178a14.456 14.456 0 0 0-9.03 3.168l-17.276 13.817c-2.19 1.753-5.872-.038-5.872-2.822V94.135Z" fill="url(#fia)"/><defs><linearGradient id="fia" x1="49.528" y1="124.226" x2="193.607" y2="124.226" gradientUnits="userSpaceOnUse"><stop offset=".273" stop-color="#FFC926"/><stop offset="1" stop-color="#FFEFBE"/></linearGradient></defs></svg>