<svg width="256" height="256" fill="none" viewBox="0 0 256 256" id="hubspot" xmlns="http://www.w3.org/2000/svg"><path fill-rule="evenodd" clip-rule="evenodd" d="M169.79 81v19.25h-.03a42.25 42.25 0 1 1-32.1 75.33l-15.67 15.67c.406 1.271.622 2.596.64 3.93 0 7.594-6.156 13.75-13.75 13.75s-13.75-6.156-13.75-13.75 6.156-13.75 13.75-13.75a13.58 13.58 0 0 1 3.93.64l15.84-15.84a42.18 42.18 0 0 1-.65-47.56L75.95 78.15a16.89 16.89 0 1 1 7.91-10.29l52.94 41.23a42.06 42.06 0 0 1 20-8.8V81a14.84 14.84 0 0 1-8.56-13.38v-.45c.022-8.181 6.649-14.808 14.83-14.83h.45c8.182.022 14.808 6.649 14.83 14.83v.45A14.84 14.84 0 0 1 169.79 81zm-28.15 60.953c-.02 11.969 9.662 21.689 21.63 21.717l.05.01c11.974 0 21.68-9.706 21.68-21.68.006-11.968-9.688-21.677-21.656-21.69-11.969-.013-21.683 9.675-21.704 21.643z" fill="#FF7A59"/></svg>