<svg width="256" height="256" fill="none" viewBox="0 0 256 256" id="insightly" xmlns="http://www.w3.org/2000/svg"><path d="M174.656 200H81.344C67.347 200 56 188.653 56 174.656V81.344C56 67.347 67.347 56 81.344 56h93.312C188.653 56 200 67.347 200 81.344v93.312C200 188.653 188.653 200 174.656 200z" fill="#FF5621"/><path fill-rule="evenodd" clip-rule="evenodd" d="M96.91 102.93c-4.478 0-8.957-1.728-8.957-11.981 0-9.087 9.115-13.349 14.515-13.349 4.94 0 9.26 2.203 9.26 7.92 0 11.578-8.64 17.41-14.818 17.41zm73.829 61.084c5.256 0 5.112-8.496 9.446-8.496 2.319 0 3.715 2.348 3.715 4.983 0 3.805-4.97 17.899-19.512 17.899-12.384 0-19.195-8.078-19.195-21.283 0-7.488 2.319-17.611 2.319-24.221 0-3.816-.936-6.466-3.557-6.466-6.192 0-11.607 18.202-11.607 41.688 0 3.96-2.793 10.282-17.337 10.282-2.059 0-3.01-1.454-3.37-3.917-2.909 2.29-6.681 3.917-11.52 3.917-14.573 0-19.526-10.872-19.526-24.394 0-11.764 1.555-32.04 3.873-36.748 2.319-4.853 10.08-10.138 14.731-10.138 2.477 0 5.588 1.757 5.588 5.875 0 4.853-3.571 16.027-3.571 31.162 0 15.134 1.368 20.131 5.788 20.131 4.076 0 5.084-2.722 5.3-5.53.216-2.894.417-7.473.576-11.217.979-24.048.892-26.683 1.814-30.053 1.397-6.898 12.542-11.592 17.496-11.592 3.398 0 5.112 1.757 5.112 5.285 0 3.081-2.174 7.344-3.096 13.363 3.557-7.632 12.845-17.323 21.37-17.323 9.59 0 12.067 6.897 12.067 15.552 0 9.245-2.477 18.489-2.477 28.627-.016 9.524 2.004 12.614 5.573 12.614z" fill="#fff"/></svg>