<svg width="256" height="256" fill="none" viewBox="0 0 256 256" id="intercom" xmlns="http://www.w3.org/2000/svg"><path fill-rule="evenodd" clip-rule="evenodd" d="M74 56h108c9.941 0 18 8.06 18 18v108c0 9.941-8.059 18-18 18H74c-9.94 0-18-8.059-18-18V74c0-9.94 8.06-18 18-18zm49.198 23.972A4.803 4.803 0 0 1 128 75.17a4.803 4.803 0 0 1 4.801 4.802v69.601a4.803 4.803 0 0 1-4.801 4.801 4.803 4.803 0 0 1-4.802-4.801V79.971zm23.999 2.43a4.803 4.803 0 0 1 4.802-4.802 4.803 4.803 0 0 1 4.801 4.802v64.129a4.803 4.803 0 0 1-4.801 4.801 4.803 4.803 0 0 1-4.802-4.801v-64.13zm-47.997 0a4.8 4.8 0 1 1 9.599 0v64.129a4.8 4.8 0 1 1-9.599 0v-64.13zM75.201 92a4.8 4.8 0 1 1 9.599 0v43.173a4.8 4.8 0 1 1-9.599 0V92zm103.923 73.215c-.738.639-18.522 15.556-51.124 15.556-32.603 0-50.378-14.917-51.125-15.556a4.798 4.798 0 0 1 6.233-7.295c.279.234 16.16 13.253 44.887 13.253 29.088 0 44.721-13.113 44.874-13.244a4.793 4.793 0 0 1 6.764.518 4.793 4.793 0 0 1-.509 6.768zm1.675-30.042a4.8 4.8 0 1 1-9.599 0V92a4.8 4.8 0 1 1 9.599 0v43.173z" fill="#286EFA"/></svg>