<svg width="256" height="256" fill="none" viewBox="0 0 256 256" id="jira" xmlns="http://www.w3.org/2000/svg"><path d="M197.567 54h-74.159a33.477 33.477 0 0 0 33.477 33.476h13.66v13.189c.012 18.472 14.984 33.444 33.455 33.455V60.434A6.433 6.433 0 0 0 197.567 54Z" fill="#2684FF"/><path d="M160.871 90.954H86.713c.012 18.472 14.983 33.443 33.455 33.455h13.661v13.232c.023 18.471 15.004 33.433 33.476 33.433V97.387a6.433 6.433 0 0 0-6.434-6.433Z" fill="url(#foa)"/><path d="M124.159 127.88H50c0 18.489 14.988 33.477 33.476 33.477H97.18v13.189c.012 18.455 14.957 33.419 33.412 33.454v-73.686a6.434 6.434 0 0 0-6.433-6.434Z" fill="url(#fob)"/><defs><linearGradient id="foa" x1="149.356" y1="75.402" x2="118.002" y2="108.118" gradientUnits="userSpaceOnUse"><stop offset=".18" stop-color="#0052CC"/><stop offset="1" stop-color="#2684FF"/></linearGradient><linearGradient id="fob" x1="2397.18" y1="2228.18" x2="1050.14" y2="3561.28" gradientUnits="userSpaceOnUse"><stop offset=".18" stop-color="#0052CC"/><stop offset="1" stop-color="#2684FF"/></linearGradient></defs></svg>