<svg width="256" height="256" fill="none" viewBox="0 0 256 256" id="keap" xmlns="http://www.w3.org/2000/svg"><path d="M183 48H73c-13.807 0-25 11.193-25 25v110c0 13.807 11.193 25 25 25h110c13.807 0 25-11.193 25-25V73c0-13.807-11.193-25-25-25Z" fill="#36A635"/><path d="m162.9 164.3-8.4 8.7c-1.2 1.5-3 1.2-4.5 0l-29.7-30.3v28.2c0 1.8-1.2 3-3.3 3h-12c-1.8 0-3-1.2-3-3V83c0-1.8 1.2-3 3-3h12c2.1 0 3.3 1.2 3.3 3v28.8h40.5c1.8 0 3 1.2 3 3v12.3c0 1.8-1.2 3-3 3h-27.6l29.7 30c1.2 1.2 1.2 2.7 0 4.2Z" fill="#fff"/></svg>