<svg width="256" height="256" fill="none" viewBox="0 0 256 256" id="linkedinads" xmlns="http://www.w3.org/2000/svg"><path d="M189.335 56.002H66.629C60.77 56.002 56 60.651 56 66.375v123.228c0 5.737 4.77 10.395 10.629 10.395h122.715c5.872 0 10.656-4.658 10.656-10.395V66.375c0-5.724-4.784-10.373-10.665-10.373z" fill="#0A66C2"/><path d="M77.352 109.986h21.397v68.715H77.352v-68.715zm10.683-34.2c6.827 0 12.375 5.548 12.375 12.375 0 6.826-5.548 12.388-12.37 12.388-6.743-.014-12.376-5.646-12.394-12.388 0-6.746 5.643-12.383 12.389-12.375zm24.075 34.2h20.484v9.391h.283c2.853-5.4 9.819-11.097 20.25-11.097 21.627 0 25.619 14.234 25.619 32.733v37.692h-21.344v-33.426c0-7.965-.144-18.225-11.097-18.225-11.115 0-12.825 8.685-12.825 17.64v33.993h-21.339v-68.715l-.031.014z" fill="#fff"/></svg>