<svg width="256" height="256" fill="none" viewBox="0 0 256 256" id="logger" xmlns="http://www.w3.org/2000/svg"><path fill-rule="evenodd" clip-rule="evenodd" d="M69.09 56h117.82c7.229 0 13.09 5.861 13.09 13.09v117.82c0 7.23-5.861 13.091-13.091 13.091H69.091C61.86 200 56 194.139 56 186.909V69.091C56 61.86 61.861 56 69.09 56z" fill="#277DFF"/><path d="M96 85c-6.075 0-11 4.925-11 11s4.925 11 11 11 11-4.925 11-11-4.925-11-11-11zm20 3a4 4 0 0 0-4 4v8a4 4 0 0 0 4 4h48a4 4 0 0 0 4-4v-8a4 4 0 0 0-4-4h-48zm-4 36a4 4 0 0 1 4-4h48a4 4 0 0 1 4 4v8a4 4 0 0 1-4 4h-48a4 4 0 0 1-4-4v-8zm-16-7c-6.075 0-11 4.925-11 11s4.925 11 11 11 11-4.925 11-11-4.925-11-11-11zm16 39a4 4 0 0 1 4-4h48a4 4 0 0 1 4 4v8a4 4 0 0 1-4 4h-48a4 4 0 0 1-4-4v-8zm-16-7c-6.075 0-11 4.925-11 11s4.925 11 11 11 11-4.925 11-11-4.925-11-11-11z" fill="#fff"/></svg>