<svg width="256" height="256" fill="none" viewBox="0 0 256 256" id="looker-studio" xmlns="http://www.w3.org/2000/svg"><g clip-path="url(#fsa)"><path d="m75.321 129.881-15.386-29.374a6.33 6.33 0 0 0-11.212 5.872l15.393 29.386a40.733 40.733 0 0 0-4.371 3.789c-15.456 15.455-15.455 41.247 0 56.701 15.454 15.456 41.246 15.456 56.701 0 15.63-15.632 15.631-41.069 0-56.701-10.662-10.662-26.868-14.448-41.125-9.673Zm32.176 57.426c-10.577 10.576-28.227 10.576-38.804 0-10.576-10.577-10.576-28.227 0-38.804 10.428-10.427 28.107-10.696 38.804 0 5.182 5.183 8.036 12.073 8.036 19.402 0 7.329-2.854 14.219-8.036 19.402Zm99.779-37.686-15.392-29.385a40.722 40.722 0 0 0 4.371-3.79c15.456-15.455 15.455-41.247 0-56.701-15.455-15.456-41.246-15.456-56.701 0-15.632 15.632-15.632 41.068 0 56.701 10.662 10.662 26.868 14.448 41.125 9.673l15.386 29.374a6.327 6.327 0 0 0 8.542 2.669 6.327 6.327 0 0 0 2.669-8.541Zm-58.773-42.124c-10.576-10.578-10.576-28.226 0-38.803 10.577-10.577 28.227-10.577 38.803 0 10.577 10.576 10.577 28.226 0 38.803-10.547 10.561-28.027 10.774-38.803 0Z" fill="#9AA0A6"/><path d="M139.554 59.745c-13.755 13.754-15.562 36.155-4.124 51.875l-32.924 32.925c2.113 1.395 2.574 1.694 4.99 3.958 11.041 10.344 10.698 28.105 0 38.804-10.576 10.576-28.226 10.576-38.803 0l-8.949 8.948c15.455 15.456 41.247 15.456 56.701 0 13.755-13.754 15.563-36.155 4.124-51.875l32.924-32.925c-1.534-1.037-2.621-1.626-4.99-3.958-10.781-10.615-10.698-28.105 0-38.803 10.577-10.577 28.227-10.577 38.803 0l8.949-8.95c-15.454-15.455-41.247-15.455-56.701 0Z" fill="#4285F4"/></g><defs><clipPath id="fsa"><path fill="#fff" transform="translate(48 48)" d="M0 0h160v160H0z"/></clipPath></defs></svg>