<svg width="256" height="256" fill="none" viewBox="0 0 256 256" id="mailchimp" xmlns="http://www.w3.org/2000/svg"><path d="M170.393 120.978c1.312-.156 2.569-.163 3.724 0 .668-1.533.783-4.176.182-7.054-.893-4.277-2.103-6.866-4.603-6.463-2.499.403-2.592 3.502-1.698 7.78.503 2.406 1.398 4.463 2.395 5.737zm-21.459 3.386c.69.303 2.651 1.553 3.317.85.277-.284.194-.825-.233-1.522-.882-1.441-2.698-2.902-4.625-3.723-3.939-1.696-8.637-1.132-12.261 1.473-1.197.876-2.332 2.09-2.169 2.828.053.239.231.418.652.477.986.113 4.434-1.63 8.404-1.873.162-.01.322-.017.481-.02 2.589-.051 4.748.77 6.434 1.51zm-8.037 3.902c.824-.714 2.11-1.482 4.439-1.85 3.208-.381 5.559 1.115 6.105 2 .235.38.143.63.067.745-.251.392-.783.332-1.895.207-2.622-.294-5.08-.128-7.586.769 0 0-1.178.472-1.704.472a.558.558 0 0 1-.561-.57c-.004-.478.431-1.158 1.135-1.773zm22.25 5.686c1.581.777 3.323.472 3.89-.681.566-1.154-.257-2.719-1.838-3.496-1.582-.777-3.323-.472-3.89.681-.567 1.153.256 2.718 1.838 3.496zm7.787-5.734c.03-1.762 1.096-3.173 2.381-3.151 1.285.021 2.302 1.467 2.272 3.23-.03 1.761-1.095 3.172-2.38 3.151-1.285-.022-2.303-1.469-2.273-3.23zm-83.922 28.62c-.32-.401-.845-.279-1.353-.161-1.22.286-2.634.222-3.394-.943-.881-1.354-.23-3.053.364-4.387l.033-.073v-.002c1.03-2.312 2.755-6.181.818-9.867-1.457-2.776-3.834-4.504-6.692-4.867-2.744-.348-5.568.67-7.37 2.657-1.94 2.141-2.763 4.808-2.915 6.765-.058.747-.186 2.731.924 2.882 1.008.136 1.53-1.097 1.775-1.883.715-2.285 1.848-4.453 4.4-4.999 3.923-.841 7.223 3.023 5.841 6.805-.44 1.204-1.153 3.506-.996 5.398.319 3.829 2.674 5.366 4.79 5.529 2.057.078 3.494-1.077 3.858-1.921.215-.499.034-.803-.083-.933z" fill="#000"/><path fill-rule="evenodd" clip-rule="evenodd" d="M205.736 149.836c2.576 0 6.622 2.965 6.622 10.121 0 7.121-2.955 15.187-3.651 16.978-10.644 25.508-36.048 39.708-66.311 38.809-28.212-.838-52.272-15.725-62.803-39.993-6.368.006-12.93-2.793-17.921-7.215-5.258-4.658-8.502-10.686-9.134-16.974-.492-4.897.11-9.449 1.645-13.423l-5.914-5.01C21.208 110.28 105.848 16.2 132.919 39.812c.133.116 8.704 8.525 9.208 9.02l.023.022c9.498-4.691 20.715-8.131 31.35-7.091 10.157.993 16.702 6.42 16.716 15.56.012 8.158-5.186 17.667-13.514 26.3 5.951 5.522 7.956 14.221 8.299 22.032.145 3.325.305 11.07.321 11.208.211.065 2.615.724 3.344.929 7.081 1.988 15.6 5.511 16.842 13.723.373 2.131.323 5.895-2.488 10.104 1.203 2.623 1.929 5.45 2.716 8.217zm-76.8-81.596c-7.399 3.785-15.659 10.525-22.368 18.279-.237.273.115.66.408.447 5.795-4.215 13.739-8.134 24.146-10.673 11.658-2.843 22.881-1.651 29.737-.08.343.08.562-.515.254-.687-4.531-2.541-11.483-4.267-16.415-4.302a.3.3 0 0 1-.235-.478c.854-1.147 2.022-2.28 3.09-3.1.24-.184.094-.57-.208-.552-7.023.432-15.03 3.794-19.633 6.931-.228.155-.521-.048-.465-.317.359-1.728 1.49-4.006 2.077-5.07.139-.251-.133-.53-.388-.398zm38.716 96.662s-10.998 5.107-28.465-.295c.624 5.272 6.94 7.306 11.417 8.042 21.644 3.723 41.879-8.653 46.434-11.77.756-.516.026.814-.152 1.044-5.576 7.192-20.566 15.521-40.068 15.518-8.506-.001-17.008-2.998-20.129-7.603-4.843-7.144-.24-17.573 7.83-16.486 13.506 1.84 27.826.293 40.257-5.477 11.009-5.11 15.168-10.735 14.544-15.288-.753-5.458-7.926-7.423-12.306-8.653-1.749-.49-2.936-.804-4.213-1.225-2.273-.748-3.396-1.35-3.651-5.624-.111-1.869-.436-8.379-.555-11.07-.239-5.439-1.131-14.536-8.19-14.912-2.801-.131-5.273 1.478-7.344 3.203-4.987 4.156-9.198 4.836-13.881 4.634-3.724-.156-7.426-.676-11.15-.868-7.842-.402-16.254 6.373-17.652 15.991-1.946 13.389 7.75 20.308 10.549 24.368.991 1.344.919 2.521-.226 3.737l.001.004c-8.879 9.13-11.395 24.507-6.128 36.099 7.075 16.534 29.023 24.232 50.464 17.23 7.759-2.534 15.043-6.759 20.621-12.764 5.687-5.944 9.072-12.406 10.386-20.368.496-3.278-.131-8.047-4.584-7.25 0 0-.744-5.096-2.852-9.726-6.249 4.933-14.295 8.398-20.421 10.157-9.806 2.814-20.418 3.912-30.56 2.584-4.113-.538-6.876-.899-8.06 2.949 13.526 4.952 27.844 2.833 27.844 2.833.575-.06.758.769.24.986zM57.009 132.771c3.274-4.756 8.628-8.199 14.703-9.38 7.734-20.755 20.644-39.882 37.735-53.042 12.685-10.579 26.362-18.168 26.362-18.168s-7.367-8.542-9.591-9.171c-13.683-3.699-43.242 16.686-62.115 43.619-7.636 10.897-18.567 30.194-13.34 40.119.643 1.231 4.29 4.391 6.246 6.023zm22.107 36.361c12.303.293 15.18-13.288 13.653-23.172-1.841-11.91-9.898-16.109-15.365-16.408-11.785-.611-19.405 10.182-18.282 21.348.981 9.758 10.854 17.987 19.994 18.232z" fill="#000"/></svg>