<svg width="256" height="256" fill="none" viewBox="0 0 256 256" id="mariadb" xmlns="http://www.w3.org/2000/svg"><path fill-rule="evenodd" clip-rule="evenodd" d="M215.935 63h-.049c-2.899.093-3.35 1.671-9.611 3.218-6.326 1.564-12.435.062-19.242 2.931-20.33 8.56-24.661 38.087-43.144 48.562-13.818 7.834-27.175 11.311-39.699 15.251-8.239 2.589-16.405 5.569-23.866 12.022-5.79 5.013-7.362 8.904-13.412 15.192-6.158 6.394-25.09-4.924-34.32 3.356-.805.725-.784 2.016.034 2.731 2.002 1.757 5.8 5.935 9.415 7.223-1.149 2.182-7.626 8.604-6.308 11.815 1.396 3.377 17.46 1.081 32.317-7.921 6.918-4.195 12.425-10.237 23.206-11.677 13.942-1.864 30.006 1.199 46.149 3.533-2.394 7.16-7.203 11.929-11.052 17.632-1.19 1.288 2.394 1.433 6.488.656 7.361-1.826 12.665-3.3 18.217-6.542 6.825-3.988 7.86-14.212 16.233-16.421 4.045 6.242 14.135 8.345 21.878 5.03.729-.31 1.764-.634 1.766-1.591.001-.963-.881-1.633-1.474-2.276-4.375-4.713-5.373-15.837-3.429-21.248 2.205-6.156 4.385-16.006 6.614-24.141 2.388-8.742 3.268-19.756 6.161-24.21 4.345-6.695 9.154-8.994 13.326-12.771 4.17-3.778 7.988-7.455 7.864-16.097-.043-2.533-1.481-4.257-4.062-4.257z" fill="#454A5E"/><path fill-rule="evenodd" clip-rule="evenodd" d="M216.682 72.225c-.861 5.915-4.682 9.187-9.15 12.306-3.942 2.748-8.255 5.394-11.025 9.684-2.843 4.397-4.645 19.441-9.048 34.296-3.658 12.33-9.102 24.526-18.415 30.4a1.01 1.01 0 0 1-1.533-.669c-.627-3.444-.523-9.756-1.595-7.703-1.354 3.831-2.877 7.481-4.665 10.877-5.481 10.417-13.409 18.398-26.222 21.524-1.033.25-1.822-.915-1.206-1.775 5.916-8.153 11.204-16.929 11.852-30.318.052-1.155-1.409-1.686-2.139-.788-2.791 3.423-3.459 11.569-7.566 14.074-3.201.35-6.453.346-9.716.154-13.426-.802-27.197-4.818-39.748-.808-8.555 2.731-17.526 10.489-24.772 13.614-8.503 3.671-12.534 7.135-23.283 6.895-1.099-1.47 4.483-7.837 6.38-10.585.607-.881-.685-1.806-1.9-2.361-2.909-1.327-5.83-4.935-8.931-6.34.4-.727 1.809-1.456 2.58-1.905 7.05-4.068 25.733 4.595 30.757-.309 3.104-3.026 5.188-5.682 7.297-8.759 3.263-4.781 7.826-8.631 12.589-11.86 5.481-3.732 8.5-4.01 15.593-6.631 9.03-3.341 20.213-6.268 29.905-9.952 5.981-2.279 12.492-5.085 17.798-9.019a35.715 35.715 0 0 0 3.552-2.999c15.149-14.69 18.153-40.6 41.788-43.013a95.206 95.206 0 0 1 7.018-.484c2.388-.061 4.744-.668 7.101-1.768.727-.319 5.054-2.92 6.515-1.662.978.84.251 5.39.189 5.884z" fill="#fff"/><path fill-rule="evenodd" clip-rule="evenodd" d="M189 79.658c3.256 3.124 10.078.62 8.855-5.589-4.133-.388-7.916 1.153-8.855 5.589z" fill="#454A5E"/></svg>