<svg width="256" height="256" fill="none" viewBox="0 0 256 256" id="mcp" xmlns="http://www.w3.org/2000/svg"><path fill-rule="evenodd" clip-rule="evenodd" d="M48 128c0 44.183 35.817 80 80 80s80-35.817 80-80-35.817-80-80-80-80 35.817-80 80Z" fill="#E9F2FF"/><path d="M151.881 76.69c5.017 5.016 6.996 11.918 5.942 18.424 6.753-1.095 13.554 1.192 18.427 5.943l.001.002c8.258 8.29 8.419 21.901.251 30.276l-44.077 44.077a1.745 1.745 0 0 0 0 2.466l9.051 9.051c1.498 1.58 1.573 4.085 0 5.657-1.573 1.573-4.077 1.498-5.657 0l-9.05-9.052a9.742 9.742 0 0 1 0-13.778l44.077-44.078c5.149-5.275 4.935-13.776-.254-18.965-5.165-5.042-13.56-5.008-18.712 0l.001.001-36.805 36.806-.15.141a4 4 0 0 1-5.508-5.798l36.806-36.806c5.023-5.147 5.024-13.543 0-18.711-5.145-5.146-13.553-5.034-18.711 0l-48.886 48.878a4 4 0 0 1-5.506-5.799l48.735-48.735c8.281-8.075 21.766-8.26 30.025 0Z" fill="#277DFF"/><path d="M134.042 88.873a4 4 0 0 1 5.657 5.656l-36.045 36.045c-5.244 5.244-5.006 13.826.244 18.95 5.183 4.927 13.38 4.847 18.467-.239l36.045-36.045a4.001 4.001 0 0 1 5.656 5.658l-36.044 36.045c-8.291 8.29-21.733 8.29-30.024 0-8.291-8.292-8.292-21.735 0-30.026l36.044-36.044Z" fill="#277DFF"/></svg>