<svg width="256" height="256" fill="none" viewBox="0 0 256 256" id="mondaycom" xmlns="http://www.w3.org/2000/svg"><path d="M55.83 174.266c-9.547-5.64-12.665-18.426-6.786-27.827l35.984-57.466c5.81-9.278 18.363-12.095 27.561-6.334 9.232 5.78 12.116 18.33 6.335 27.561l-35.993 57.466c-5.67 9.063-17.894 12.039-27.102 6.6Z" fill="#FF3D57"/><path d="M117.831 174.278c-9.561-5.632-12.69-18.43-6.807-27.839l36.009-57.466c5.552-9.742 18.495-12.997 27.994-7.04 9.499 5.958 12.205 19.028 5.852 28.267l-35.942 57.466c-5.671 9.062-17.895 12.039-27.106 6.612Z" fill="#FFCB00"/><path d="M189.98 177.038c11.06 0 20.027-8.742 20.027-19.525 0-10.784-8.967-19.525-20.027-19.525-11.061 0-20.027 8.741-20.027 19.525 0 10.783 8.966 19.525 20.027 19.525Z" fill="#00D647"/></svg>