<svg width="256" height="256" viewBox="0 0 256 256" id="mongodb" xmlns="http://www.w3.org/2000/svg"><defs><linearGradient x1="-69.633%" y1="43.939%" x2="161.12%" y2="55.837%" id="gca"><stop stop-color="#999875" offset="23.08%"/><stop stop-color="#9B9977" offset="56.32%"/><stop stop-color="#A09F7E" offset="68.29%"/><stop stop-color="#A9A889" offset="76.83%"/><stop stop-color="#B7B69A" offset="83.73%"/><stop stop-color="#C9C7B0" offset="89.64%"/><stop stop-color="#DEDDCB" offset="94.82%"/><stop stop-color="#F8F6EB" offset="99.44%"/><stop stop-color="#FBF9EF" offset="100%"/></linearGradient><linearGradient x1="-16.739%" y1=".667%" x2="78.267%" y2="97.496%" id="gcb"><stop stop-color="#48A547" offset="0%"/><stop stop-color="#3F9143" offset="100%"/></linearGradient><linearGradient x1="-9.367%" y1="56.115%" x2="152.53%" y2="46.339%" id="gcc"><stop stop-color="#41A247" offset="0%"/><stop stop-color="#4BA74B" offset="35.23%"/><stop stop-color="#67B554" offset="95.57%"/><stop stop-color="#69B655" offset="100%"/></linearGradient></defs><g fill="none"><path d="m134.643 254.071-6.429-2.143s.857-32.357-10.929-34.5c-7.714-9 1.286-380.143 29.143-1.286 0 0-9.643 4.714-11.357 12.857-1.714 8.143-.429 25.071-.429 25.071z" fill="url(#gca)"/><path d="M138.071 222.786s55.5-36.429 42.429-112.286c-12.429-55.071-42-73.286-45-80.143-3.429-4.929-7.071-13.5-7.071-13.5l2.357 153.429s-4.929 46.929 7.286 52.5z" fill="url(#gcb)"/><path d="M125 224.929s-52.071-35.571-49.071-98.143c3.214-62.571 39.857-93.429 46.929-99 4.714-4.929 4.714-6.857 5.143-11.786 3.214 6.857 2.786 103.929 3 115.286 1.5 44.357-2.357 85.286-6 93.643z" fill="url(#gcc)"/></g></svg>