<svg width="256" height="256" fill="none" viewBox="0 0 256 256" id="myob" xmlns="http://www.w3.org/2000/svg"><path d="M183 48H73c-13.807 0-25 11.193-25 25v110c0 13.807 11.193 25 25 25h110c13.807 0 25-11.193 25-25V73c0-13.807-11.193-25-25-25Z" fill="#7B14EF"/><path d="M146.038 110.197c6.727 0 9.992 4.036 9.992 12.336v37.98h16.036v-39.778c0-15.152-10.418-25.735-25.331-25.735-6.935 0-13.675 2.447-18.702 7.272C123.028 97.455 116.304 95 109.39 95 94.44 95 84 105.583 84 120.735v39.778h16.036v-37.98c0-8.3 3.266-12.336 9.991-12.336 6.726 0 9.992 4.036 9.992 12.336v37.98h16.036v-37.98c0-8.3 3.265-12.336 9.991-12.336h-.008Z" fill="#fff"/></svg>