<svg width="256" height="256" viewBox="0 0 256 256" id="mysql" xmlns="http://www.w3.org/2000/svg"><path d="M86.379 75.07c.872.877 2.288 1.424 2.939 2.517.549.77.651 1.53 1.309 2.299 0 2.631-.76 4.383-2.295 5.473l-.212.22c-.87-1.75-1.632-3.497-2.509-5.249-1.079-1.53-2.604-2.744-3.483-4.491h-.212v-.22a17.339 17.339 0 0 1 4.462-.55zm110.998 95.136c-.328-2.194-5.771-4.928-7.508-6.24-3.488-2.521-7.18-5.153-10.879-7.45-1.96-1.202-5.338-2.079-7.51-3.062-2.939-1.205-9.47-2.409-11.098-4.704-3.269-4.276-5.45-9.527-7.733-14.673-2.281-5.249-5.113-10.722-7.398-16.097-1.195-2.622-1.744-4.924-3.053-7.438-7.94-15.433-19.694-28.353-33.944-37.44-4.683-2.956-9.905-5.693-15.669-7.553-3.267-.989-7.187-.442-10.668-1.202h-2.29c-1.955-.552-3.588-2.631-5.113-3.728-3.369-2.295-6.743-3.836-10.772-5.473-1.411-.657-5.443-2.187-6.85-.985-.872.222-1.314.552-1.528 1.429-.867 1.31-.105 3.282.435 4.489 1.635 3.499 3.918 5.579 5.989 8.535 1.844 2.622 4.134 5.579 5.441 8.43 2.82 6.128 4.134 12.918 6.747 19.046.97 2.304 2.502 4.926 3.913 7.005 1.195 1.649 3.369 2.842 4.027 4.931 1.311 2.189-1.962 9.414-2.72 11.709-2.834 8.977-2.286 21.456.979 29.237 1.309 3.057 2.506 6.668 5.985 7.543.219-.218 0-.103.432-.218.767-6.023.984-11.824 3.053-16.537 1.195-2.947 3.583-5.029 5.22-7.436 1.09.655 1.09 2.631 1.741 3.939 1.416 3.392 2.937 7.111 4.683 10.511 3.583 7.005 7.615 13.798 12.184 19.926 1.53 2.187 3.702 4.596 5.659 6.568.872.763 1.848 1.205 2.504 2.187h.214v.33c-3.264-1.207-5.334-4.596-7.938-6.573-4.901-3.719-10.772-9.305-14.151-14.663-1.414-3.073-2.941-6.023-4.464-9.082v-.222c-.651.875-.432 1.743-.758 3.064-1.414 5.471-.326 11.711-5.222 13.678-5.55 2.304-9.691-3.719-11.428-6.456-5.552-9.085-7.073-24.41-3.157-36.781.87-2.739.988-6.023 2.506-8.21-.328-1.976-1.846-2.517-2.725-3.728-1.523-2.07-2.827-4.482-4.02-6.781-2.29-4.491-3.92-9.857-5.659-14.673-.765-1.967-.984-3.941-1.746-5.803-1.3-2.842-3.697-5.693-5.545-8.208-2.504-3.614-9.796-10.617-6.857-17.737 4.573-11.274 20.563-2.737 26.769 1.202 1.521.985 3.264 3.066 5.008 3.836 2.72.108 5.438.32 8.163.435 5.111 1.205 9.898 2.187 13.925 4.491 18.717 11.059 30.901 22.328 42.114 40.942 2.395 3.944 3.592 8.21 5.55 12.476 2.716 6.36 5.769 13.035 8.921 19.049 1.411 2.851 2.504 6.021 4.464 8.43.765 1.099 2.939 1.424 4.239 2.082 3.592 1.867 7.945 3.284 11.323 5.473 6.31 3.948 12.411 8.65 17.957 13.466 2.067 1.86 3.476 4.491 5.445 6.458v.992c-1.748.538-3.49 1.088-5.234 1.53-3.809.982-7.182.76-10.877 1.743-2.283.664-5.118 1.541-7.512 1.764l.221.225c1.409 4.037 9.031 7.321 12.516 9.737 4.234 3.064 8.156 6.783 11.314 11.052l3.267 3.169c.758 1.099.972 2.524 1.739 3.506v.33c-1.53-.54-2.286-1.965-3.478-2.842-2.402-1.647-4.787-3.614-7.189-5.146-4.129-2.629-8.919-4.154-13.16-6.792-2.397-1.532-4.683-3.277-6.968-5.029-2.072-1.539-4.353-4.489-5.655-6.678-.767-1.209-.872-2.631-1.748-3.506.223-2.079 2.832-2.079 4.464-2.737 5.657-2.409 12.402-3.284 21.112-3.064z" fill="#5B7F93"/></svg>