<svg width="256" height="256" fill="none" viewBox="0 0 256 256" id="notion" xmlns="http://www.w3.org/2000/svg"><path d="m58.15 51.203 92.421-6.936C161.79 43.2 164.728 44 171.94 49.069l29.649 20.808c4.808 3.468 6.411 4.535 6.411 8.537v113.912c0 7.203-2.671 11.471-11.753 12.005l-107.379 6.402c-6.945.267-10.15-.533-13.623-5.068L53.61 177.653c-4.006-5.335-5.609-9.07-5.609-13.605V62.674c0-5.869 2.671-10.938 10.15-11.471Z" fill="#fff"/><path fill-rule="evenodd" clip-rule="evenodd" d="m150.571 44.267-92.42 6.936C50.67 51.736 48 56.805 48 62.674v101.374c0 4.535 1.603 8.537 5.61 13.605l21.635 28.278c3.473 4.535 6.945 5.603 13.623 5.069l107.379-6.403c9.082-.533 11.753-4.801 11.753-12.004V78.413c0-3.734-1.285-4.92-5.826-8.121.424.3-.424-.3 0 0l-30.07-21.16c-6.944-5.335-11.349-5.914-21.533-4.865Zm-59.299 32.28c-8.815.533-10.684.8-15.76-3.469l-12.554-9.87c-1.335-1.334-.801-2.935 2.671-3.202l88.949-6.402c7.479-.534 11.218 1.867 14.157 4.268L183.96 68.81c.801.267 2.404 2.134.267 2.134l-92.955 5.602Zm-10.15 114.979v-96.84c0-4.268 1.335-6.135 5.075-6.402l105.509-6.135c3.473-.267 5.075 1.867 5.075 6.135v96.039c0 4.268-.801 7.736-6.41 8.003l-100.969 5.869c-5.609.533-8.28-1.601-8.28-6.669Zm99.633-91.504c.534 2.935 0 5.869-2.939 6.136l-4.808 1.067v71.495c-4.273 2.401-8.013 3.468-11.218 3.468-5.075 0-6.411-1.6-10.418-6.402l-32.053-50.153v48.286l10.15 2.4s0 5.869-8.013 5.869l-22.438 1.334c-.534-1.334 0-4.535 2.137-5.068l5.877-1.601v-64.025l-8.014-.801c-.534-2.934 1.069-7.203 5.61-7.469l24.04-1.601 33.122 50.687v-44.818l-8.548-1.067c-.534-3.468 1.87-6.136 5.075-6.403l22.438-1.334Z" fill="#000"/></svg>