<svg width="256" height="256" viewBox="0 0 256 256" id="odata" xmlns="http://www.w3.org/2000/svg"><g fill="none"><path fill="#FF8C00" d="M56 200h144V56H56z"/><path fill="#fff" d="M69.44 82.88h51.84V69.44H69.44zM133.76 82.88h53.76V69.44h-53.76zM69.44 107.84h51.84V94.4H69.44zM133.76 107.84h53.76V94.4h-53.76zM69.44 133.76h51.84v-13.44H69.44zM133.76 133.76h53.76v-13.44h-53.76zM133.76 159.68h53.76v-13.44h-53.76zM93.92 144.32c-12.99 0-23.52 10.53-23.52 23.52s10.53 23.52 23.52 23.52 23.52-10.53 23.52-23.52-10.53-23.52-23.52-23.52"/></g></svg>