<svg width="256" height="256" fill="none" viewBox="0 0 256 256" id="odbc" xmlns="http://www.w3.org/2000/svg"><path d="M68 76a8 8 0 0 1 8-8h104a8 8 0 0 1 8 8v104a8 8 0 0 1-8 8H76a8 8 0 0 1-8-8V76Z" fill="#03589C"/><path d="M104.289 128.34c0 6.35-3.301 12.051-10.215 12.051-6.858 0-10.249-5.575-10.293-11.914v-4.864c0-6.383 3.2-12.441 10.254-12.441 6.984 0 10.212 5.972 10.254 12.305v4.863Zm-5.762-4.766c0-3.063-.519-7.597-4.492-7.597-3.864 0-4.48 4.273-4.512 7.304v5.059c0 3.114.63 7.265 4.551 7.265 3.808 0 4.437-4.07 4.453-7.089v-4.942ZM108.41 140v-28.438h7.52c6.847 0 10.887 5.294 10.957 11.836v4.61c0 6.749-4.096 11.992-11.114 11.992h-7.363Zm5.742-23.652v18.886c4.539 0 6.915-1.847 6.993-6.738v-4.941c0-5.104-2.188-7.207-6.993-7.207ZM131.027 140v-28.438h8.789c4.968 0 9.082 2.428 9.082 7.793 0 2.528-1.174 4.972-3.574 6.016 2.795.799 3.985 3.556 3.985 6.27 0 5.397-3.628 8.359-8.868 8.359h-9.414Zm5.743-12.363v7.597c2.995 0 6.816.483 6.816-3.672 0-4.473-3.469-3.925-6.816-3.925Zm0-4.18c2.833 0 6.367.385 6.367-3.496 0-3.949-3.458-3.613-6.367-3.613v7.109Zm35.996 7.07c-.261 5.896-3.807 9.864-9.844 9.864-7.046 0-9.961-5.877-9.961-12.227v-4.785c0-6.297 3.073-12.207 10.039-12.207 6.117 0 9.406 4.218 9.805 10.058h-5.762c-.075-2.897-.747-5.292-4.043-5.292-3.801 0-4.23 3.904-4.277 6.914v5.371c0 3.116.148 7.402 4.199 7.402 3.237 0 3.984-2.2 4.101-5.098h5.743Z" fill="#fff"/><path d="M184 72h-28l-12 12h28v28l12-12V72ZM72 184h28l12-12H84v-28l-12 12v28Z" fill="#004A85"/><path d="M196 60h-28l-16 16h28v28l16-16V60ZM60 196h28l16-16H76v-28l-16 16v28Z" fill="#14AFF5"/></svg>