<svg width="256" height="256" fill="none" viewBox="0 0 256 256" id="onedrive" xmlns="http://www.w3.org/2000/svg"><path d="m107.118 98.29 37.507 22.46 22.349-9.408c5.306-2.292 11.083-3.232 16.839-2.875-5.431-21.185-23.314-37.602-44.885-41.204-21.572-3.603-43.819 6.112-55.84 24.382l.57-.016a44.44 44.44 0 0 1 23.46 6.66Z" fill="#0364B8"/><path d="M107.124 98.283c-7.117-4.406-15.64-6.885-24.035-6.638-16.37.205-31.669 9.675-39.152 24.236-7.483 14.56-6.277 32.514 3.086 45.943l97.597-41.075-37.496-22.466Z" fill="#0078D4"/><path d="M183.813 108.466a36.19 36.19 0 0 0-16.833 2.881l-22.355 9.401 68.689 41.136c5.799-10.764 5.729-24.052-.182-34.755-5.911-10.703-17.12-17.839-29.319-18.663Z" fill="#1490DF"/><path d="m144.631 120.75-97.62 41.074c8.271 11.891 22.163 19.143 36.647 19.133h97.704c13.218.005 25.682-7.435 31.951-19.072l-68.682-41.135Z" fill="#28A8EA"/></svg>