<svg width="256" height="256" fill="none" viewBox="0 0 256 256" id="openai" xmlns="http://www.w3.org/2000/svg"><path d="M141.399 216.739c-11.592 0-22.761-4.717-31.059-12.778-11.825 4.045-25.215 2.711-36.028-3.55-17.44-10.096-25.546-30.131-20.943-49.694-9.252-8.558-14.908-20.515-14.908-33.188 0-19.556 13.575-37.916 32.656-42.773 3.925-20.34 22.75-35.495 43.482-35.495 11.593 0 22.762 4.717 31.059 12.778 19.602-6.706 41.618 1.817 52.179 19.523 6.239 10.16 7.487 22.267 4.792 33.721 9.197 8.507 14.908 20.596 14.908 33.188 0 19.565-13.577 37.916-32.656 42.773-3.936 20.396-22.845 35.495-43.482 35.495Zm-28.397-25.911 33.366-19.168c1.183-.828 1.775-1.952 1.775-3.372v-15.263l-42.95 24.669c-2.603 1.538-5.206 1.538-7.809 0L63.84 158.349c0 13.288 4.126 25.112 16.328 31.769 9.676 5.497 23 6.291 32.834.71Zm-13.666-25.202c1.232.616 2.517.726 3.727 0l13.311-7.632-42.772-24.847c-2.603-1.538-3.905-3.846-3.905-6.922V87.712c-11.71 5.153-19.522 17.015-19.522 29.817 0 11.308 6.049 23.045 15.973 28.751l33.188 19.346Zm42.063 39.4c18.293 0 33.543-14.092 33.543-32.656v-38.336c0-1.42-.591-2.484-1.774-3.194l-13.489-7.809v49.516c0 3.076-1.301 5.384-3.904 6.922l-33.544 19.345c5.798 4.141 12.187 6.212 19.168 6.212Zm6.744-64.957v-24.138l-20.055-11.358-20.233 11.358v24.138l20.233 11.358 20.055-11.358ZM96.319 83.453c0-3.077 1.302-5.384 3.905-6.922l33.543-19.345c-5.797-4.141-12.187-6.212-19.168-6.212-18.418 0-33.366 14.051-33.366 32.656v38.158c0 1.42.592 2.544 1.775 3.372l13.311 7.809V83.453Zm90.16 84.835c11.62-5.114 19.345-17.138 19.345-29.817 0-11.308-6.049-23.045-15.973-28.751l-33.189-19.168c-1.147-.765-2.558-.702-3.727 0l-13.311 7.454 42.95 25.025c2.444 1.333 3.905 3.982 3.905 6.744v38.513Zm-35.674-90.16c2.603-1.656 5.206-1.656 7.809 0l33.721 19.7c0-6.84-.857-13.25-4.259-19.345-8.118-15.53-29.725-22.026-45.08-13.31L109.63 84.34c-1.183.828-1.775 1.952-1.775 3.372v15.263l42.95-24.847Z" fill="#000"/></svg>