<svg width="256" height="256" fill="none" viewBox="0 0 256 256" id="pinterest" xmlns="http://www.w3.org/2000/svg"><path d="M202 126.82c0 41.415-33.585 75-75 75s-75-33.585-75-75c0-41.414 33.585-75 75-75s75 33.586 75 75Z" fill="#CA2127"/><path d="M121.37 75.257c-21.407 2.297-42.727 18.764-43.594 42.337-.563 14.387 5.46 25.177 19.847 28.21 1.647-6.803 1.95-10.487 1.95-10.487s-6.327-6.066-6.977-9.923c-5.286-31.027 37.57-52.217 60.06-30.55 15.514 15.037 5.287 61.273-19.76 56.463-24.006-4.593 11.744-41.383-7.41-48.62-15.556-5.893-23.833 17.984-16.466 29.814-4.334 20.366-13.65 39.563-9.88 65.086 12.263-8.45 16.38-24.656 19.76-41.556 6.153 3.553 9.446 7.28 17.29 7.843 28.946 2.123 45.11-27.517 41.166-54.903-3.553-24.267-28.946-36.617-55.986-33.714Z" fill="#fff"/></svg>