<svg width="256" height="256" fill="none" viewBox="0 0 256 256" id="pipedrive" xmlns="http://www.w3.org/2000/svg"><circle cx="128" cy="128" r="80" fill="#007134"/><path fill-rule="evenodd" clip-rule="evenodd" d="M165.334 117.317c0 18.6-12.01 31.322-29.183 31.322-8.163 0-14.892-3.362-17.411-7.563l.12 4.32v26.64h-17.531v-68.881c0-.958-.238-1.202-1.321-1.202H94V87.315h14.654c6.722 0 8.407 5.76 8.884 8.283C120.181 91.16 127.142 86 136.991 86c16.934-.005 28.343 12.592 28.343 31.317Zm-17.893.119c0-9.961-6.485-16.798-14.654-16.798-6.723 0-14.29 4.439-14.29 16.922 0 8.158 4.561 16.679 14.052 16.679 6.966-.005 14.892-5.045 14.892-16.803Z" fill="#fff"/></svg>