<svg width="256" height="256" viewBox="0 0 256 256" id="podio" xmlns="http://www.w3.org/2000/svg"><path d="M182.732 60.415c-29.75-29.769-78.092-29.888-107.997-.342l-.348.35c-29.857 29.892-29.847 78.524.016 108.404l46.129 46.154a10.268 10.268 0 0 0 7.289 3.019c2.637 0 5.282-1.003 7.295-3.019 4.021-4.03 4.021-10.566 0-14.594l-46.135-46.156c-21.759-21.77-21.829-57.164-.203-79.024l.211-.207c21.831-21.832 57.344-21.826 79.16.006 17.915 17.929 20.486 48.61 5.968 71.377-3.061 4.8-1.651 11.181 3.146 14.246a10.297 10.297 0 0 0 14.235-3.142c19.919-31.238 16.232-72.058-8.766-97.072m-18.46 110.781c4.023 4.03 4.029 10.566 0 14.59a10.244 10.244 0 0 1-7.283 3.027 10.298 10.298 0 0 1-7.301-3.023l-46.127-46.15c-13.78-13.796-13.78-36.243 0-50.041 6.676-6.675 15.554-10.355 24.995-10.355h.01c9.441 0 18.318 3.686 24.991 10.371a35.374 35.374 0 0 1 8.874 35.156c-1.639 5.461-7.374 8.57-12.831 6.938-5.457-1.63-8.566-7.38-6.939-12.845a14.737 14.737 0 0 0-3.687-14.66 14.604 14.604 0 0 0-10.411-4.323h-.006a14.631 14.631 0 0 0-10.413 4.313c-5.742 5.748-5.742 15.101 0 20.849l46.129 46.152" fill="#4A87B6"/></svg>