<svg width="256" height="256" fill="none" viewBox="0 0 256 256" id="postgresql" xmlns="http://www.w3.org/2000/svg"><path d="M164.653 212.675c-4.347 6.189-10.918 8.917-18.063 10.448-10.848 2.325-18.222-1.679-22.02-9.646-4.666-9.787-4.486-20.856-4.841-31.444-7.882 3.448-21.708 3.684-27.757-3.74-6.594 5.452-14.346 4.881-20.743-1.336-4.877-4.74-9.124-12.726-13.062-23.436-5.798-15.772-11.03-39.127-11.472-47.951-.75-15 2.67-26.223 10.014-33.642 6.312-6.377 14.876-9.362 24.874-9.693 9.375-.31 18.792 1.59 27.649 4.586 9.711-5.76 21.523-5.905 32.366-3.99 20.881-6.422 45.157-2.32 59.069 15.456 5.252 6.71 5.051 19.72.886 35.849-3.407 13.191-9.269 27.278-16.789 39.948 4.135-.116 8.173-1.632 12.294-1.491 4.712.161 8.786 3.781 8.311 8.749-.617 6.437-7.893 10.729-13.09 13.141-6.044 2.808-13.309 3.64-19.906 3.089-1.413 11.884-.479 24.793-7.72 35.103z" fill="#000"/><path d="M194.374 159.735c-18.496 3.815-19.768-2.447-19.768-2.447 19.53-28.979 27.694-65.763 20.648-74.766-19.22-24.558-52.491-12.943-53.047-12.642l-.178.032c-10.65-2.21-22.848-2.285-31.876 4.562 0 0-59.353-24.451-56.593 30.752.587 11.744 16.833 88.86 36.21 65.567 7.081-8.517 13.924-15.719 13.924-15.719 3.399 2.258 7.468 3.41 11.733 2.996.603-.512.351 2.3.464 3.035-4.991 5.577-3.525 6.557-13.503 8.611-10.097 2.081-4.166 5.785-.293 6.753 4.695 1.175 15.557 2.838 22.896-7.436-1.14 4.565 2.972 13.569 2.806 19.179-.23 7.817-.383 13.184 1.158 17.376 1.541 4.191 3.077 13.623 16.194 10.812 10.962-2.348 16.642-8.436 17.432-18.589.396-5.099 1.312-10.813 2.928-15.661.949-7.914.075-12.076 8.58-11.329 4.971.226 11.476-.8 15.294-2.574 8.221-3.816 13.098-10.186 4.991-8.512z" fill="#336791"/><path fill-rule="evenodd" clip-rule="evenodd" d="M103.988 157.784A312.28 312.28 0 0 0 91.4 172.03c-5.425 6.522-11.582 6.783-17.109 1.411-4.26-4.14-8.236-11.616-11.955-21.731-3.029-8.24-5.776-17.978-7.963-27.738-1.813-8.088-3.066-15.511-3.234-18.862-.69-13.808 2.35-23.786 8.698-30.215 5.388-5.456 12.85-8.078 21.778-8.401 9.606-.348 19.272 1.713 28.248 5.043 9.059-6.182 20.894-6.525 31.265-3.975 5.78-2.573 13.033-3.147 19.233-3.204 6.502-.06 12.775.916 18.604 3.157 6.966 2.678 13.037 7.07 17.964 13.365 8.248 10.54-1.295 48.144-19.677 76.144l.025.018c4.227 3.058 11.994 1.15 16.505.219 2.542-.525 4.371-.462 5.646.508 1.74 1.324 1.429 3.577.353 5.201-6.059 9.138-20.776 12.294-30.782 9.151-.868 8.015-2.719 22.588-3.652 27.989-1.931 11.205-6.825 16.292-18.456 18.786-10.141 2.172-17.618-2.438-21.325-11.703-1.587-3.969-2.37-17.254-2.233-33.218-6.007 5.456-14.283 6.401-21.925 4.488-2.797-.699-5.528-2.193-6.554-4.094-.914-1.696-.483-3.567 1.104-4.861 1.939-1.581 4.519-2.09 7.033-2.585 1.093-.216 2.172-.429 3.181-.726 2.947-.868 4.387-2.633 6.146-4.789l.001-.001c.293-.359.78-.719.749-1.195a20.124 20.124 0 0 1-9.08-2.428zm73.2-44.828c.447-3.075 1.045-6.687.299-9.758-.3-1.233-.832-2.803-1.543-4.51-1.778-4.273-4.406-8.853-7.725-13.097-5.282-6.752-11.741-12.048-19.365-15.405a60.378 60.378 0 0 1 11.55-1.245c13.257-.123 24.711 4.28 32.915 14.764 2.879 3.679 2.714 14.409-.773 27.906-3.513 13.604-9.858 28.325-17.972 41.11l-.779-.978c2.076-3.427 3.175-7.034 3.509-10.992.271-3.213.099-5.815-.528-11.039-.697-5.8-.429-10.983.412-16.756zm-18.484-2.084c1.753-3.121 6.275-4.515 14.4-3.492-.023 1.485-.173 2.999-.452 4.915-.898 6.172-1.172 11.763-.427 17.963.591 4.923.748 7.302.511 10.108-.216 2.568-.81 4.921-1.873 7.167-1.306-2.316-2.396-4.766-3.667-7.107l-.001-.002c-2.75-5.064-5.516-10.132-7.463-15.573-2.241-6.264-2.654-11.084-1.028-13.979zm-61.296-3.387c5.624-3.143 13.31-5.784 19.647-3.337 3.65 1.409 6.128 4.438 7.109 8.976 1.704 7.881 2.164 14.343 1.577 19.876-.464 4.374-1.473 7.784-3.225 11.822-1.688 3.89-3.438 7.785-4.517 11.903 1.6-.413 3.154-.056 4.655.565 2.95 1.223 5.513 4.841 5.421 8.118-.527 18.865.219 36.263 1.747 40.083 2.893 7.232 8.139 10.63 16.108 8.923 9.802-2.102 13.287-5.724 14.901-15.083 1.113-6.45 3.603-26.567 4.009-31.737-.283-5.622 1.541-8.914 5.026-10.481.581-.261 1.185-.46 1.796-.637-1.161-1.665-2.537-3.166-3.666-4.859-1.706-2.561-2.894-5.452-4.366-8.154l-.001-.001c-3.023-5.549-6.078-11.1-8.213-17.067-2.649-7.405-3.162-13.399-.708-17.768 2.733-4.866 8.663-6.861 17.86-5.919-1.742-5.171-4.611-10.012-7.96-14.293-8.47-10.828-20.123-17.482-35.089-17.728-13.802-.226-23.939 7.884-28.643 20.524-1.94 5.214-3.017 10.737-3.468 16.274zm-4.59 8.746c.336 6.186.257 11.578-.56 17.414-1.202 8.599 2.169 16.585 7.911 21.512a320.12 320.12 0 0 0-12.293 13.942c-3.703 4.451-6.763 4.581-10.39 1.055-3.643-3.54-7.348-10.506-10.848-20.026-2.952-8.031-5.647-17.581-7.793-27.158-1.76-7.853-2.977-15.061-3.128-18.089-.631-12.617 2.028-21.343 7.382-26.766 4.464-4.52 10.827-6.757 18.681-7.04 8.105-.294 16.254 1.353 23.934 3.87-3.971 3.886-6.973 8.863-9.133 14.668-1.766 4.746-2.882 9.8-3.48 14.888-.462 3.92-.498 7.792-.284 11.73zm20.744 39.402c-10.108-.009-18.358-9.95-16.764-21.353.988-7.065.76-14.087.433-21.18 2.818-2.445 6.838-3.919 10.399-4.74 6.642-1.532 10.833.086 12.054 5.733 1.606 7.427 2.031 13.405 1.499 18.424-.409 3.857-1.291 6.836-2.872 10.48-1.786 4.117-3.683 8.259-4.749 12.636zm.064-45.155c2.315.322 4.142 1.343 3.952 2.706-.2 1.432-2.486 2.982-4.538 2.695-2.067-.286-4.151-2.474-3.952-3.881.742-1.751 2.847-1.756 4.538-1.52zm47.483 1.123c.171 1.217 2.257 2.63 4.11 2.371 1.874-.259 3.79-2.272 3.626-3.448-.147-1.055-1.99-1.492-4.109-1.196-2.119.295-3.771 1.218-3.627 2.273z" fill="#fff"/></svg>