<svg width="256" height="256" fill="none" viewBox="0 0 256 256" id="quickbooksdesktop" xmlns="http://www.w3.org/2000/svg"><path d="M128.53 208c43.653 0 79.47-35.817 79.47-79.47C208 83.817 172.183 48 128.53 48 83.817 48 48 83.817 48 128.53 48 172.183 83.817 208 128.53 208z" fill="#2CA01C"/><path fill-rule="evenodd" clip-rule="evenodd" d="M150.284 96.914h4.445l.005.005c17.189 0 31.124 13.935 31.124 31.125 0 17.189-13.935 31.124-31.124 31.124h-22.25V75.577c6.383 0 11.558 5.172 11.561 11.555v60.475h10.684c10.806 0 19.566-8.76 19.566-19.566s-8.76-19.566-19.566-19.566h-4.445v-11.56zm-48.935 62.254c-17.19-.003-31.124-13.939-31.124-31.129 0-17.189 13.93-31.124 31.119-31.13h22.25v83.597c-6.385 0-11.561-5.176-11.561-11.561V108.47h-10.684c-10.806 0-19.566 8.76-19.566 19.566s8.76 19.566 19.566 19.566h4.445v11.566h-4.445z" fill="#fff"/></svg>