<svg width="256" height="256" fill="none" viewBox="0 0 256 256" id="rest" xmlns="http://www.w3.org/2000/svg"><path d="M128 208c44.183 0 80-35.817 80-80s-35.817-80-80-80-80 35.817-80 80 35.817 80 80 80z" fill="#34BF88"/><path d="m131.019 138.675 3.724-4.024c2.334 1.944 5.368 3.058 8.54 3.135 2.577 0 4.122-.919 4.122-2.507 0-1.448-.974-2.182-5.762-3.291-5.762-1.334-9.478-2.775-9.478-7.986.144-4.466 4.263-7.98 9.2-7.85 4.112.111 8.032.871 11.436 3.337l-3.263 4.294c-2.138-1.511-4.731-2.402-7.44-2.556-2.412 0-3.677 1.003-3.677 2.331 0 1.701 1.226 2.259 6.168 3.403 5.808 1.363 9.071 3.249 9.071 7.832 0 5.138-4.333 8.022-10.5 8.022-4.472.017-8.794-1.457-12.141-4.14zm-1.7-22.527h-19.432v25.185h19.622v-4.929h-13.988v-5.291h12.146v-4.929h-12.146v-5.107h13.798v-4.929z" fill="#fff"/><path fill-rule="evenodd" clip-rule="evenodd" d="M82.717 116.168h12.777c4.984-.283 10.835 2.732 10.542 8.379.183 3.519-2.273 6.712-5.996 7.796l6.828 8.99h-7.186l-6.064-8.056h-4.753v8.056h-6.148v-25.165zm12.37 12.225c2.998 0 4.714-1.442 4.714-3.633 0-2.377-1.838-3.592-4.828-3.592h-6.11v7.225h6.224z" fill="#fff"/><path d="M155.17 121.255h8.315v20.078h6.011v-20.078h8.315v-5.107H155.17v5.107z" fill="#fff"/><path d="M68.762 145.028c-.03 4.663-.058 9.191-.058 9.524 0 4.64 2.15 7.551 9.86 9.004l1.135-4.596c-4.468-1.364-5.144-2.633-5.144-5.414 0-.446.032-5.125.063-9.871.033-4.882.066-9.834.066-10.318.227-2.806-1.616-5.371-4.378-6.092 2.764-.725 4.607-3.294 4.378-6.103 0-.484-.033-5.409-.065-10.277-.032-4.758-.064-9.461-.064-9.912 0-2.773.677-4.05 5.143-5.414l-1.134-4.596c-7.71 1.46-9.86 4.372-9.86 9.012 0 .327.029 4.819.058 9.462.031 4.964.063 10.1.063 10.5 0 3.546-1.347 4.684-4.627 4.684h-1.103v5.275h1.103c3.283 0 4.627 1.138 4.627 4.684 0 .398-.032 5.499-.063 10.448zm118.476-35.537c.029-4.663.058-9.191.058-9.524 0-4.64-2.149-7.551-9.859-9.004l-1.135 4.596c4.467 1.364 5.143 2.633 5.143 5.414 0 .445-.031 5.125-.063 9.871-.033 4.882-.066 9.833-.066 10.318-.227 2.806 1.616 5.37 4.378 6.091-2.764.726-4.607 3.294-4.378 6.104 0 .483.033 5.408.066 10.277.031 4.757.063 9.461.063 9.912 0 2.772-.676 4.05-5.143 5.414l1.135 4.596c7.71-1.46 9.859-4.372 9.859-9.012 0-.327-.028-4.819-.058-9.462-.031-4.964-.063-10.101-.063-10.5 0-3.546 1.348-4.684 4.628-4.684h1.103v-5.275h-1.103c-3.284 0-4.628-1.138-4.628-4.684 0-.398.032-5.499.063-10.448z" fill="#B3FFE1"/></svg>