<svg width="256" height="256" viewBox="0 0 256 256" id="rocketchat" xmlns="http://www.w3.org/2000/svg"><g fill="none"><path d="M221.738 127.453c0-9.019-2.694-17.663-8.008-25.709-4.79-7.222-11.489-13.622-19.909-18.973-16.279-10.403-37.647-16.129-60.212-16.129-7.522 0-14.969.636-22.154 1.909-4.453-4.191-9.692-7.933-15.231-10.927-29.563-14.333-54.112-.337-54.112-.337s22.79 18.748 19.085 35.139C50.981 102.53 45.48 114.73 45.48 127.453v.224c0 12.686 5.538 24.923 15.717 35.027 3.705 16.428-19.085 35.139-19.085 35.139s24.511 13.996 54.112-.337c5.538-2.994 10.778-6.736 15.231-10.927 7.185 1.272 14.632 1.909 22.154 1.909 22.565 0 43.933-5.726 60.212-16.129 8.42-5.389 15.119-11.788 19.909-18.973 5.314-8.046 8.008-16.69 8.008-25.709v-.224z" fill="#c33"/><path d="M133.647 78.393c42.624 0 77.202 22.079 77.202 49.322 0 27.243-34.578 49.322-77.202 49.322-9.505 0-18.599-1.085-26.981-3.106-8.532 10.254-27.318 24.549-45.543 19.946 5.95-6.362 14.744-17.139 12.836-34.877-10.927-8.495-17.514-19.385-17.514-31.247 0-27.281 34.578-49.36 77.202-49.36" fill="#fff"/><g transform="translate(87.655 117.237)" fill="#c33"><circle cx="45.992" cy="10.478" r="10.254"/><circle cx="81.655" cy="10.478" r="10.254"/><circle cx="10.328" cy="10.478" r="10.254"/></g><path d="M133.609 171.424c-9.505 0-21.031-1.834-29.451-3.555-7.522 7.859-20.096 19.721-37.272 18.823-2.133 3.218-3.817 5.052-5.8 7.185 18.225 4.603 37.01-9.655 45.543-19.946 8.383 2.021 17.476 3.106 26.981 3.106 42.287 0 76.64-21.742 77.202-48.649-.524 23.314-34.915 43.035-77.202 43.035z" fill="#ccc"/></g></svg>