<svg width="256" height="256" fill="none" viewBox="0 0 256 256" id="sageaccounting" xmlns="http://www.w3.org/2000/svg"><path d="M48 66c0-9.941 8.059-18 18-18h124c9.941 0 18 8.059 18 18v124c0 9.941-8.059 18-18 18H66c-9.941 0-18-8.059-18-18V66Z" fill="#000"/><path d="M128 96c5.523 0 10-4.477 10-10s-4.477-10-10-10-10 4.477-10 10 4.477 10 10 10Zm0 42c5.523 0 10-4.477 10-10s-4.477-10-10-10-10 4.477-10 10 4.477 10 10 10Z" fill="#00D639"/><path d="M108 100c0 5.523-4.477 10-10 10s-10-4.477-10-10 4.477-10 10-10 10 4.477 10 10Zm-12 28c0 5.523-4.477 10-10 10s-10-4.477-10-10 4.477-10 10-10 10 4.477 10 10Zm42 42c0 5.523-4.477 10-10 10s-10-4.477-10-10 4.477-10 10-10 10 4.477 10 10Zm32-32c5.523 0 10-4.477 10-10s-4.477-10-10-10-10 4.477-10 10 4.477 10 10 10Zm-72 29c5.523 0 10-4.477 10-10s-4.477-10-10-10-10 4.477-10 10 4.477 10 10 10Zm70-67c0 5.523-4.477 10-10 10s-10-4.477-10-10 4.477-10 10-10 10 4.477 10 10Zm-10 67c5.523 0 10-4.477 10-10s-4.477-10-10-10-10 4.477-10 10 4.477 10 10 10Z" fill="#fff"/></svg>