<svg width="256" height="256" fill="none" viewBox="0 0 256 256" id="salesforce" xmlns="http://www.w3.org/2000/svg"><path d="M113.231 77.308c6.462-6.693 15.462-10.923 25.385-10.923 13.23 0 24.692 7.384 30.846 18.307C174.769 82.308 180.693 81 186.923 81 210.769 81 230 100.462 230 124.462c0 24-19.307 43.461-43.077 43.461-2.923 0-5.769-.308-8.461-.846-5.385 9.615-15.693 16.154-27.539 16.154a31.745 31.745 0 0 1-13.769-3.154C131.693 192.923 118.923 202 104.077 202c-15.461 0-28.692-9.769-33.77-23.538-2.23.461-4.538.692-6.845.692-18.462 0-33.385-15.077-33.385-33.769 0-12.462 6.692-23.385 16.692-29.231-2.076-4.692-3.23-9.923-3.23-15.462C43.462 79.385 60.923 62 82.308 62c12.615 0 23.846 6 30.923 15.308z" fill="#00A1E0"/><path fill-rule="evenodd" clip-rule="evenodd" d="M149.23 111.308c.077 0 .308.154.231.384l-.923 2.462c-.154.307-.425.198-.695.116-1.814-.549-3.694.021-4.459 1.807-.461 1.231-.615 2.538-.615 2.615h3.692c.308 0 .385.154.385.385l-.462 2.385c-.077.384-.385.307-.385.307h-3.846l-2.461 14.846c-.576 2.878-1.379 7.097-4.693 8-1.68.672-3.935.672-5.615 0-.154-.077-.231-.23-.154-.461.077-.231.769-2.077.846-2.385.154-.307.385-.154.385-.154 3.871 1.291 4.928-2.178 5.538-5.23l2.616-14.539h-2.539c-.307 0-.384-.154-.384-.384l.461-2.385c.077-.385.385-.308.385-.308h2.615c.429-2.143.852-4.39 2.462-6 1.735-1.735 5.29-2.391 7.615-1.461zm42.385 22.154.846 2.307c.077.308-.154.385-.154.385-1.308.538-3.077.846-4.846.846-5.619 0-9.077-3.848-9.077-9.385 0-5.086 3.431-9.461 8.846-9.461 1.551 0 3.429.06 4.846.769.077 0 .308.154.231.385a37.896 37.896 0 0 1-.846 2.307c-.154.385-.385.231-.385.231-1.153-.384-2.23-.538-3.615-.538-3.548 0-5.077 3.016-5.077 6.23 0 3.444 1.722 6.154 5.385 6.154.927 0 2.946-.754 3.551-.487a.523.523 0 0 1 .295.257zm-131.77-1.077-.846 2.23c-.153.308 0 .385.077.539 1.941 1.552 4.745 2.077 7.154 2.077 4.077 0 6.616-2.154 6.616-5.693 0-3.159-3.172-4.911-5.924-5.461-1.248-.384-3.769-.913-3.769-2.615 0-1.154 1-2 2.616-2 1.769 0 3.846.538 5.23 1.307 0 0 .385.231.539-.154.077-.23.77-2 .846-2.23.077-.231-.077-.385-.23-.462-1.858-1.207-4.05-1.615-6.231-1.615-3.77 0-6.385 2.307-6.385 5.538 0 3.283 2.873 4.601 5.615 5.385 1.334.444 4.154.869 4.154 2.692 0 1.593-1.507 2.308-2.923 2.308-2.224 0-4.175-.783-6-2l-.033-.017c-.152-.079-.362-.187-.505.171zm60.001 0-.847 2.23c-.077.308.077.385.077.539 1.941 1.552 4.745 2.077 7.154 2.077 4.077 0 6.616-2.154 6.616-5.693 0-3.22-3.142-4.905-5.923-5.461-2-.615-3.77-1.231-3.77-2.539 0-1.432 1.336-2.076 2.616-2.076 1.769 0 3.846.538 5.23 1.307 0 0 .385.231.539-.154.077-.23.769-2 .846-2.23.077-.231-.077-.385-.231-.462-1.857-1.207-4.048-1.615-6.23-1.615-3.77 0-6.385 2.307-6.385 5.538v.077c0 3.385 2.923 4.539 5.615 5.308 1.334.444 4.154.869 4.154 2.692 0 1.593-1.507 2.308-2.923 2.308-2.158 0-4.222-.815-6-2-.077-.077-.385-.231-.538.154zm44.153-4.616c0 4.943-3.004 9.385-8.384 9.385-5.27 0-8.385-4.246-8.385-9.385 0-4.915 3.015-9.461 8.385-9.461 5.255 0 8.384 4.387 8.384 9.461zm-4-.077c0 2.935-.871 6.308-4.384 6.308-3.477 0-4.385-3.387-4.385-6.308 0-2.909.935-6.23 4.385-6.23 3.447 0 4.384 3.332 4.384 6.23zm49.385.693c.077-.154.462-2.385-.308-5-.87-3.047-3.805-4.923-6.923-4.923-5.326 0-8.615 4.234-8.615 9.461 0 5.648 3.975 9.231 9.385 9.231 3.384 0 5.153-.769 5.846-1.154l.026-.025c.079-.071.188-.17.051-.513l-.77-2.154c-.161-.322-.442-.239-.702-.142-.829.312-2.012.757-4.528.757-3.315 0-5.244-1.982-5.385-5.231h11.615s.308 0 .308-.307zm-11.846-2.539h8.231c-.168-2.35-1.387-4.461-4-4.461-2.75 0-3.762 2.115-4.231 4.461zm-80.911 2.409c.539-4.813-1.755-9.793-7.243-9.793-5.461 0-8.615 4.401-8.615 9.461 0 5.429 3.822 9.231 9.384 9.231 3.385 0 5.154-.769 5.846-1.154l.027-.025c.08-.072.188-.17.05-.513l-.769-2.154c-.161-.322-.443-.239-.702-.142-.83.312-2.012.757-4.529.757-3.314 0-5.243-1.982-5.384-5.231h11.615c.266 0 .297-.231.32-.437zm-11.935-2.409h8.307c-.167-2.35-1.386-4.461-4-4.461-2.709 0-3.839 2.122-4.307 4.461zm-18.462-.384c-1-.154-1.923-.231-1.923-.231-.461 0-1.077 0-2-.077-1 0-1.923.154-2.846.384-.846.308-1.692.616-2.385 1.154-.692.539-1.307 1.154-1.692 1.923a6.04 6.04 0 0 0-.615 2.693c0 1 .153 1.923.538 2.615a5.206 5.206 0 0 0 1.539 1.846c.692.462 1.461.769 2.384 1 .923.231 1.923.308 3.077.308 1.23 0 2.385-.077 3.539-.308.959-.128 2.078-.362 2.649-.481.115-.025.209-.044.274-.057.384-.077.846-.231.846-.231.23-.077.23-.385.23-.385V125c0-2.385-.615-4.077-1.846-5.154-1.23-1.077-3-1.615-5.307-1.615-.846 0-2.231.154-3.077.307 0 0-2.462.462-3.539 1.308 0 0-.23.154-.077.462l.847 2.23c.076.231.384.154.384.154s.077 0 .154-.077c2.23-1.153 5.077-1.153 5.077-1.153 1.23 0 2.23.307 2.846.769.615.461.923 1.231.923 2.769v.462zm-6.538 7.923s1.077.846 3.384.692a22.033 22.033 0 0 0 3.154-.385v-5.307s-1.461-.231-3.154-.231c-2.384 0-3.384.846-3.384.846-.693.462-1 1.231-1 2.231 0 .615.154 1.154.384 1.538.077.154.154.308.616.616zm98.077-14.077c.077-.308-.077-.385-.385-.462-.154-.077-1.154-.231-1.923-.308-1.81-.095-3.781.401-4.923 1.924v-1.385c0-.231-.077-.385-.308-.385h-3c-.154 0-.307.154-.307.385v17.308c0 .23.153.384.384.384h3.077c.231 0 .385-.154.385-.384v-8.616c0-2.157.412-4.92 2.846-5.615a5.728 5.728 0 0 1 2.846-.077c.231 0 .385-.077.462-.308.153-.538.769-2.154.846-2.461zm-80.693 17.384c.154 0 .308-.154.308-.384v-24.693c0-.23-.077-.384-.308-.384H94c-.153 0-.307.231-.307.384v24.693c0 .23.077.384.307.384h3.077z" fill="#fff"/></svg>