<svg width="256" height="256" fill="none" viewBox="0 0 256 256" id="scoro" xmlns="http://www.w3.org/2000/svg"><path fill-rule="evenodd" clip-rule="evenodd" d="M106.813 78.629c-.059.545-.089 17.311-.089 17.863 0 7.992 5.136 14.345 15.817 16.394l20.336 3.894c26.498 5.124 40.671 22.337 40.671 42.83 0 22.337-18.692 44.879-52.585 44.879-38.617 0-58.95-25.581-57.926-52.461h26.292c1.233 14.345 11.298 28.278 31.84 28.278 15.2 0 24.645-8.605 24.645-18.851 0-8.403-7.391-15.983-18.689-18.238l-20.335-4.098c-23.212-4.713-37.184-18.65-37.184-40.578V78.63h27.207Z" fill="#343F53"/><path fill-rule="evenodd" clip-rule="evenodd" d="M128.258 51h55.256v55.256h-27.629V78.628h-27.627V51Z" fill="#E43958"/></svg>