<svg width="256" height="256" fill="none" viewBox="0 0 256 256" id="sdk" xmlns="http://www.w3.org/2000/svg"><path d="M128 208c44.183 0 80-35.817 80-80s-35.817-80-80-80-80 35.817-80 80 35.817 80 80 80Z" fill="#277DFF"/><path d="M86.047 115.445c-2.404 0-4.838 1.237-4.838 3.917 0 3.83 6.232 4.575 8.87 5.241 6.563 1.575 12.096 5.09 12.096 12.442 0 8.082-7.456 12.153-14.746 12.153-6.374 0-12.115-2.361-17.222-7.084l5.357-6.567c4.339 3.802 8.352 5.703 12.038 5.703 2.437 0 5.3-1.054 5.3-3.917 0-3.572-4.78-4.415-7.431-5.069-7.109-1.69-13.536-4.506-13.536-12.73 0-8.009 7.096-11.98 14.4-11.98 5.377 0 10.963 1.805 15.091 5.299l-4.55 6.566c-3.495-2.649-7.104-3.974-10.829-3.974Zm37.998-6.97c12.354 0 22.292 6.844 22.292 19.93 0 13.511-10.017 20.333-22.752 20.333h-13.767v-40.263h14.227Zm.461 32.314c7.525 0 12.787-4.43 12.787-12.154 0-8.155-5.686-12.326-13.478-12.326h-5.011v24.48h5.702Zm29.581-32.314h8.986v16.531l15.206-16.531h11.117l-16.013 17.799c5.373 7.462 10.657 14.988 16.013 22.464h-10.483l-11.808-15.898-4.032 4.493v11.405h-8.986v-40.263Z" fill="#fff"/></svg>