<svg width="256" height="256" viewBox="0 0 256 256" id="sendpulse" xmlns="http://www.w3.org/2000/svg"><path d="M126.23 53c6.364.049 12.727-.049 19.103.074 3.039 25.776 6.078 51.539 9.242 77.29 6.823-.086 13.658 0 20.493-.049 4.937-9.061 17.615-12.579 26.323-6.777 10.135 5.765 11.685 21.603 2.704 29.096-8.286 8.481-23.693 5.555-29.126-4.703-12.454-.025-24.909-.012-37.363 0-1.724-12.987-3.721-25.948-5.471-38.935-8.187 29.948-16.027 59.983-23.954 89.992L89.797 199c-4.391-18.184-8.621-36.417-13-54.6-8.249-.074-16.486-.012-24.735-.037-.062-5.864.012-11.727-.062-17.579l40.663-.012c2.196 9.641 4.515 19.245 6.761 28.862 9.031-34.182 17.788-68.439 26.807-102.633z" fill="#009ABA"/></svg>