<svg width="256" height="256" fill="none" viewBox="0 0 256 256" id="servicenow" xmlns="http://www.w3.org/2000/svg"><path fill-rule="evenodd" clip-rule="evenodd" d="M202.365 107.864c11.861 30.076 4.02 65.282-19.435 87.521-5.584 5.416-14.547 5.932-20.728 1.212-9.828-7.319-21.949-11.322-34.202-11.322-12.252 0-24.383 4.002-34.211 11.322-6.134 4.706-14.992 4.251-20.606-1.07-23.64-22.34-31.487-57.787-19.415-88C65.835 77.312 95.93 56.968 128.47 57.051c32.337.268 62.059 20.727 73.896 50.813Zm-34.416 29.462c0-21.754-18.201-39.929-39.949-39.929-21.747 0-39.949 18.175-39.949 39.929-.594 21.985 17.974 40.511 39.949 39.919 21.975.593 40.544-17.937 39.949-39.919Z" fill="#62D84E"/></svg>