<svg width="256" height="256" fill="none" viewBox="0 0 256 256" id="sftp" xmlns="http://www.w3.org/2000/svg"><path d="M56 80h93.261l-5.935-16.666c-.946-2.86-3.613-3.334-6.633-3.334H62.522C58.576 60 56 60 56 64.641V80zm145.662 4H62.328c-3.297-.001-6.327 2.581-6.328 5.981v88.025c0 3.308 2.834 5.991 6.331 5.994h139.331c3.499-.003 6.334-2.685 6.338-5.994V89.981c-.007-3.305-2.842-5.982-6.338-5.981z" fill="#F2AA18"/><path d="M80.63 161.723 67.516 172 54.4 161.723c-9.075-7.13-14.41-18.316-14.401-30.192V114.4L67.517 100l27.517 14.4v17.131c.002 11.875-5.334 23.059-14.405 30.192z" fill="#4595E6"/><path d="M81.342 161.723c9.235-7.129 14.666-18.315 14.658-30.192V114.4L68 100v72l13.342-10.277z" fill="#3674B3"/><path fill-rule="evenodd" clip-rule="evenodd" d="M188.462 127.519c.271-6.659-5.426-11.775-11.952-11.509h-14.197v35.978h6.782v-12.493h7.867c6.729.162 11.635-5.302 11.5-11.976zm-12.411-5.683h-6.836v11.845h7.011c7.621.62 8.774-12.181-.175-11.845z" fill="#fff"/><path d="M110.607 121.842v11.245h16.205v5.826h-16.205V152H104v-35.99h23.325v5.832h-16.718zm36.888.12V152h-6.619v-30.038h-10.214v-5.826h27.054v5.826h-10.221zm-67.484 17.677c.26-5.525-5.15-7.35-9.745-8.215-2.125-.389-6.406-.996-6.283-3.936 0-2.103 1.575-3.154 4.724-3.154 2.329-.155 4.777.996 5.248 3.451l5.291-.714c-.676-5.064-5.855-6.895-10.393-6.61-4.572-.303-10.71 1.954-10.435 7.425-.074 5.234 4.816 6.945 9.056 7.861 2.335.405 7.38.931 7.232 4.276.002 2.33-1.903 3.494-5.716 3.494-2.75.137-5.73-1.05-6.367-3.978l-5.244.863c.968 5.349 6.557 7.511 11.48 7.242 4.942.331 11.475-2.102 11.152-8.005z" fill="#fff"/></svg>