<svg width="256" height="256" fill="none" viewBox="0 0 256 256" id="sharepointlists" xmlns="http://www.w3.org/2000/svg"><path d="m48 88 40-40h113.643A6.34 6.34 0 0 1 208 54.357V88l-80 18.333L48 88Z" fill="#FEE200"/><path d="M97.524 126.809 48 147.286V88h40l9.524 38.809Z" fill="url(#iza)"/><path d="M208 128.476V88H88v40.953l54.524 9.761L208 128.476Z" fill="url(#izb)"/><path d="M208.001 168v-40H79.191v40.238l79.286 7.381L208.001 168Z" fill="url(#izc)"/><path d="m88 168-40 13.333V128h40v40Z" fill="url(#izd)"/><path d="m88 168-6.191 19.047L87.999 208h80l40-40h-120Z" fill="url(#ize)"/><path d="M88 208H55.524A7.51 7.51 0 0 1 48 200.476V168h40v40Z" fill="url(#izf)"/><defs><linearGradient id="iza" x1="72.762" y1="147.286" x2="72.762" y2="88" gradientUnits="userSpaceOnUse"><stop stop-color="#E25A01"/><stop offset=".61" stop-color="#E15801"/><stop offset=".878" stop-color="#E05101"/><stop offset="1" stop-color="#DE4A01"/></linearGradient><linearGradient id="izb" x1="148" y1="138.714" x2="148" y2="88" gradientUnits="userSpaceOnUse"><stop stop-color="#F18C0A"/><stop offset=".437" stop-color="#F0880A"/><stop offset=".868" stop-color="#EC7C0A"/><stop offset="1" stop-color="#EB770A"/></linearGradient><linearGradient id="izc" x1="143.596" y1="175.619" x2="143.596" y2="128" gradientUnits="userSpaceOnUse"><stop stop-color="#D83B01"/><stop offset=".472" stop-color="#D63701"/><stop offset=".937" stop-color="#CE2B01"/><stop offset="1" stop-color="#CD2901"/></linearGradient><linearGradient id="izd" x1="68" y1="181.333" x2="68" y2="128" gradientUnits="userSpaceOnUse"><stop offset="0" stop-color="#BF3207"/><stop offset=".472" stop-color="#BB3207"/><stop offset=".937" stop-color="#AF3007"/><stop offset="1" stop-color="#AD3007"/></linearGradient><linearGradient id="ize" x1="144.904" y1="208" x2="144.904" y2="168" gradientUnits="userSpaceOnUse"><stop stop-color="#854A81"/><stop offset=".482" stop-color="#82497E"/><stop offset=".812" stop-color="#794475"/><stop offset="1" stop-color="#703F6C"/></linearGradient><linearGradient id="izf" x1="68" y1="208" x2="68" y2="168" gradientUnits="userSpaceOnUse"><stop stop-color="#703D6E"/><stop offset=".631" stop-color="#6C3B6A"/><stop offset="1" stop-color="#663764"/></linearGradient></defs></svg>