<svg width="256" height="256" fill="none" viewBox="0 0 256 256" id="sharepointfiles" xmlns="http://www.w3.org/2000/svg"><path d="M127.602 140.219c26.919 0 48.742-21.823 48.742-48.742 0-26.92-21.823-48.743-48.742-48.743-26.92 0-48.743 21.823-48.743 48.743 0 26.919 21.823 48.742 48.743 48.742Z" fill="#036C70"/><path d="M168.242 180.992c24.866 0 45.024-20.157 45.024-45.023 0-24.866-20.158-45.024-45.024-45.024s-45.023 20.158-45.023 45.024 20.157 45.023 45.023 45.023Z" fill="#1A9BA1"/><path d="M133.977 213.133c19.071 0 34.531-15.46 34.531-34.531 0-19.072-15.46-34.532-34.531-34.532-19.072 0-34.532 15.46-34.532 34.532 0 19.071 15.46 34.531 34.532 34.531Z" fill="#37C6D0"/><path d="M122.023 172.094h-70.39c-4.649 0-8.5-3.852-8.5-8.5V94.266c0-4.649 3.851-8.5 8.5-8.5h70.39c4.649 0 8.5 3.851 8.5 8.5v69.328c0 4.648-3.718 8.5-8.5 8.5Z" fill="#04878B"/><path d="M72.617 143.805c2.79 1.593 7.172 3.054 11.688 3.054 5.578 0 8.765-2.656 8.765-6.507 0-3.586-2.39-5.711-8.5-7.969-7.968-2.789-13.148-7.039-13.148-13.813 0-7.836 6.64-13.679 17.133-13.679 5.18 0 9.03 1.195 11.554 2.39l-2.125 7.039c-1.726-.929-5.046-2.257-9.562-2.257-5.578 0-7.969 2.921-7.969 5.71 0 3.719 2.79 5.313 9.297 7.836 8.367 3.188 12.352 7.305 12.352 14.079 0 7.703-5.844 14.21-18.329 14.21-5.18 0-10.492-1.46-13.148-2.921l1.992-7.172Z" fill="#fff"/><path opacity=".2" d="M130.523 93.469v70.125c0 4.648-3.851 8.5-8.5 8.5h-22.18l-.265 7.57h29.75c4.649 0 8.5-3.851 8.5-8.5v-69.328c-.133-4.25-3.187-7.703-7.305-8.367Z" fill="#000"/></svg>