<svg width="256" height="256" fill="none" viewBox="0 0 256 256" id="shipstation" xmlns="http://www.w3.org/2000/svg"><path d="M208 115.734c-18.377 0-27.441-22.933-14.767-35.627l-17.341-17.34c-12.687 12.686-35.629 3.6-35.629-14.767h-24.519c0 18.379-22.931 27.449-35.629 14.773l-17.34 17.34c12.686 12.687 3.598 35.628-14.768 35.628L48 140.266c18.377 0 27.45 22.93 14.774 35.627l17.341 17.34c12.686-12.686 35.629-3.599 35.629 14.767h24.519c0-18.368 22.938-27.463 35.629-14.774l17.341-17.34c-12.687-12.686-3.6-35.627 14.767-35.627v-24.525Zm-39.822 35.465-40.181 23.198-40.181-23.198v-46.398l40.181-23.198 40.181 23.198v46.398Z" fill="#031"/></svg>