<svg width="256" height="256" fill="none" viewBox="0 0 256 256" id="shiphero" xmlns="http://www.w3.org/2000/svg"><path opacity=".05" fill-rule="evenodd" clip-rule="evenodd" d="M41 82.741v92.105a7.105 7.105 0 0 0 3.536 6.15l79.428 46.052a7.044 7.044 0 0 0 7.072 0l79.428-46.052a7.106 7.106 0 0 0 3.536-6.15V82.741a7.106 7.106 0 0 0-3.536-6.15L131.036 30.54a7.044 7.044 0 0 0-7.072 0L44.536 76.591A7.105 7.105 0 0 0 41 82.741z" fill="#000"/><path fill-rule="evenodd" clip-rule="evenodd" d="M41 81.15v92.108a7.109 7.109 0 0 0 3.536 6.15l79.428 46.053a7.044 7.044 0 0 0 7.072 0l79.428-46.053a7.108 7.108 0 0 0 3.536-6.15V81.15a7.106 7.106 0 0 0-3.536-6.15l-79.428-46.048a7.044 7.044 0 0 0-7.072 0L44.536 75.005A7.105 7.105 0 0 0 41 81.15z" fill="#fff"/><path fill-rule="evenodd" clip-rule="evenodd" d="M123.965 28.956a7.078 7.078 0 0 1 7.07 0l79.429 46.048a7.107 7.107 0 0 1 3.536 6.15v92.105a7.11 7.11 0 0 1-3.536 6.15l-79.429 46.052a7.04 7.04 0 0 1-7.07 0l-79.43-46.052a7.11 7.11 0 0 1-3.535-6.15V81.158a7.107 7.107 0 0 1 3.536-6.15l79.429-46.052zm6.205 1.501a5.369 5.369 0 0 0-5.34 0L45.4 76.508a5.384 5.384 0 0 0-2.669 4.645v92.105a5.384 5.384 0 0 0 2.67 4.644l79.429 46.053a5.32 5.32 0 0 0 5.34 0l79.43-46.053a5.386 5.386 0 0 0 2.669-4.644V81.154a5.386 5.386 0 0 0-2.669-4.644l-79.43-46.053z" fill="#E0E0E0"/><path fill-rule="evenodd" clip-rule="evenodd" d="M202.096 88.103v77.411a7.092 7.092 0 0 1-3.559 6.159l-67.078 38.706a7.116 7.116 0 0 1-7.118 0l-67.084-38.706a7.108 7.108 0 0 1-3.56-6.159V88.103a7.11 7.11 0 0 1 3.56-6.16l67.084-38.706a7.132 7.132 0 0 1 7.118 0l67.078 38.706c2.177 1.25 3.568 3.65 3.559 6.16z" fill="#DF2427"/><path fill-rule="evenodd" clip-rule="evenodd" d="M202.097 88.008v77.468a7.11 7.11 0 0 1-3.541 6.164l-66.722 38.735a7.051 7.051 0 0 1-3.54.958v-83.7l73.201-42.49c.4.901.605 1.878.602 2.865z" fill="#F05252"/><path fill-rule="evenodd" clip-rule="evenodd" d="m129.96 90.24 48.795 28.153c1.525.879 3.498-.256 3.498-2.017v-16.78a8.253 8.253 0 0 0-4.138-7.159l-46.478-26.822a8.285 8.285 0 0 0-8.276 0L76.882 92.437a8.266 8.266 0 0 0-4.138 7.159v6.246a7.094 7.094 0 0 0 3.55 6.144l66.854 38.569c1.674.964 1.674 3.46 0 4.424l-13.185 7.607a4.904 4.904 0 0 1-4.883.017l-48.84-28.171a2.33 2.33 0 0 0-3.497 2.018v16.779a8.269 8.269 0 0 0 4.138 7.159l46.485 26.822a8.283 8.283 0 0 0 8.276 0l46.477-26.819a8.252 8.252 0 0 0 4.138-7.159v-5.508a7.095 7.095 0 0 0-3.549-6.143l-67.495-38.937c-1.674-.964-1.674-3.46 0-4.424l13.824-7.982a4.923 4.923 0 0 1 4.923.002z" fill="#fff"/></svg>