<svg width="256" height="256" viewBox="0 0 256 256" id="shopify" xmlns="http://www.w3.org/2000/svg"><g fill="none"><path d="M184.424 70.912c-.136-.816-.816-1.36-1.496-1.36s-13.6-.952-13.6-.952-8.976-8.976-10.064-9.928c-.952-.952-2.992-.68-3.672-.408-.136 0-2.04.544-5.032 1.496-2.992-8.704-8.296-16.728-17.68-16.728h-.816c-2.72-3.536-5.984-5.032-8.84-5.032-21.896 0-32.368 27.336-35.632 41.208-8.432 2.584-14.552 4.488-15.232 4.76-4.76 1.496-4.896 1.632-5.44 6.12C66.376 93.352 54 189.232 54 189.232l96.56 18.088 52.36-11.288s-18.36-124.168-18.496-125.12zm-39.304-9.52c-2.448.816-5.168 1.632-8.16 2.584v-1.768c0-5.44-.816-9.792-1.904-13.192 4.896.544 8.024 5.984 10.064 12.376zm-16.048-11.424c1.36 3.4 2.176 8.16 2.176 14.688v.952c-5.304 1.632-11.152 3.4-16.864 5.168 3.264-12.376 9.384-18.496 14.688-20.808zm-6.528-6.12c.952 0 1.904.272 2.856.952-6.936 3.264-14.552 11.56-17.68 28.152a460.141 460.141 0 0 1-13.328 4.08c3.672-12.648 12.512-33.184 28.152-33.184z" fill="#95BF47"/><path d="M182.928 69.552c-.68 0-13.6-.952-13.6-.952s-8.976-8.976-10.064-9.928c-.408-.408-.816-.544-1.36-.68L150.56 207.32l52.36-11.288S184.56 71.864 184.424 71.048c-.136-.952-.952-1.36-1.496-1.496z" fill="#5E8E3E"/><path d="m132.744 98.52-6.392 19.176s-5.712-2.992-12.512-2.992c-10.2 0-10.608 6.392-10.608 8.024 0 8.704 22.848 12.104 22.848 32.64 0 16.184-10.2 26.52-24.072 26.52-16.592 0-25.024-10.336-25.024-10.336l4.488-14.688s8.704 7.48 16.048 7.48c4.76 0 6.8-3.808 6.8-6.528 0-11.424-18.768-11.968-18.768-30.736 0-15.776 11.288-31.144 34.272-31.144 8.568 0 12.92 2.584 12.92 2.584z" fill="#fff"/></g></svg>