<svg width="256" height="256" fill="none" viewBox="0 0 256 256" id="slack" xmlns="http://www.w3.org/2000/svg"><path fill-rule="evenodd" clip-rule="evenodd" d="M86.658 146.813c0 8.245-6.736 14.981-14.981 14.981-8.245 0-14.98-6.736-14.98-14.981 0-8.245 6.735-14.981 14.98-14.981h14.98v14.981zm7.548 0c0-8.245 6.736-14.981 14.981-14.981 8.245 0 14.98 6.736 14.98 14.981v37.51c0 8.245-6.735 14.98-14.98 14.98-8.245 0-14.98-6.735-14.98-14.98v-37.51z" fill="#E01E5A"/><path fill-rule="evenodd" clip-rule="evenodd" d="M109.187 86.658c-8.245 0-14.98-6.735-14.98-14.98 0-8.246 6.735-14.981 14.98-14.981 8.245 0 14.98 6.735 14.98 14.98v14.981h-14.98zm0 7.549c8.245 0 14.98 6.735 14.98 14.98 0 8.245-6.735 14.981-14.98 14.981h-37.51c-8.245 0-14.98-6.736-14.98-14.981 0-8.245 6.735-14.98 14.98-14.98h37.51z" fill="#36C5F0"/><path fill-rule="evenodd" clip-rule="evenodd" d="M169.342 109.187c0-8.245 6.735-14.98 14.98-14.98 8.246 0 14.981 6.735 14.981 14.98 0 8.245-6.735 14.981-14.981 14.981h-14.98v-14.981zm-7.549 0c0 8.245-6.735 14.981-14.98 14.981-8.245 0-14.981-6.736-14.981-14.981v-37.51c0-8.245 6.736-14.98 14.981-14.98 8.245 0 14.98 6.735 14.98 14.98v37.51z" fill="#2EB67D"/><path fill-rule="evenodd" clip-rule="evenodd" d="M146.813 169.342c8.245 0 14.98 6.735 14.98 14.981 0 8.245-6.735 14.98-14.98 14.98-8.245 0-14.981-6.735-14.981-14.98v-14.981h14.981zm0-7.548c-8.245 0-14.981-6.736-14.981-14.981 0-8.245 6.736-14.981 14.981-14.981h37.509c8.246 0 14.981 6.736 14.981 14.981 0 8.245-6.735 14.981-14.981 14.981h-37.509z" fill="#ECB22E"/></svg>