<svg width="256" height="256" fill="none" viewBox="0 0 256 256" id="snowflake" xmlns="http://www.w3.org/2000/svg"><path fill-rule="evenodd" clip-rule="evenodd" d="m98.823 119.916-31.778-18.263c-4.486-2.57-10.205-1.042-12.78 3.416-2.599 4.452-1.066 10.138 3.42 12.715l17.758 10.221-17.758 10.194a9.287 9.287 0 0 0-3.42 12.738c2.575 4.447 8.294 5.968 12.78 3.398l31.778-18.275c6.191-3.547 6.177-12.599 0-16.144zm7.463 29.157-31.802 18.251c-4.474 2.575-6.002 8.291-3.42 12.751 2.594 4.447 8.308 5.979 12.776 3.392l17.817-10.23v20.441c0 5.149 4.186 9.322 9.366 9.322 5.156 0 9.355-4.173 9.355-9.322v-36.542c0-7.121-8.072-11.554-14.092-8.063zm43.421-42.145 31.795-18.269a9.31 9.31 0 0 0 3.425-12.74c-2.581-4.451-8.3-5.978-12.774-3.404l-17.805 10.242V62.309c0-5.135-4.186-9.309-9.367-9.309-5.18 0-9.355 4.174-9.355 9.31v36.54c0 7.141 8.048 11.533 14.081 8.078zM74.484 88.659l31.802 18.269c6.033 3.455 14.092-.934 14.092-8.077V62.31c0-5.136-4.199-9.31-9.355-9.31-5.18 0-9.366 4.174-9.366 9.31v20.447L83.84 72.514c-4.468-2.574-10.182-1.047-12.776 3.404a9.309 9.309 0 0 0 3.42 12.74zm59.065 37.607-3.828-3.792c-.909-.903-2.542-.914-3.45 0l-3.827 3.792c-.889.91-.91 2.545 0 3.451l3.827 3.803c.912.907 2.538.908 3.45 0l3.828-3.803c.933-.945.912-2.501 0-3.451zm11.264 5.31-13.217 13.139c-.378.387-1.109.703-1.659.703h-3.887c-.534 0-1.276-.316-1.66-.703l-13.211-13.139c-.378-.37-.683-1.114-.683-1.639v-3.874c0-.537.305-1.282.683-1.658l13.211-13.138c.384-.387 1.126-.691 1.66-.691h3.887c.539 0 1.281.304 1.659.691l13.217 13.138c.377.376.683 1.121.683 1.658v3.874c0 .525-.306 1.269-.683 1.639zm36.689 35.748-31.795-18.251c-6.02-3.491-14.081.945-14.081 8.063v36.542c0 5.149 4.175 9.322 9.355 9.322 5.181 0 9.367-4.173 9.367-9.322v-20.441l17.805 10.23c4.473 2.587 10.193 1.055 12.774-3.392 2.576-4.46 1.056-10.176-3.425-12.751zm16.812-49.54-17.759 10.221 17.759 10.194c4.485 2.581 6.018 8.268 3.425 12.738-2.588 4.447-8.312 5.968-12.781 3.398l-31.802-18.275c-6.16-3.569-6.145-12.575 0-16.144l31.802-18.263c4.469-2.57 10.193-1.042 12.781 3.416 2.593 4.452 1.06 10.138-3.425 12.715z" fill="#29B5E8"/></svg>