<svg width="256" height="256" fill="none" viewBox="0 0 256 256" id="sql-api" xmlns="http://www.w3.org/2000/svg"><path fill-rule="evenodd" clip-rule="evenodd" d="M48 128c0 44.183 35.817 80 80 80s80-35.817 80-80-35.817-80-80-80-80 35.817-80 80z" fill="#277DFF"/><path d="M108.324 136.969H95.996L93.652 144h-7.476l12.703-34.125h6.516L118.168 144h-7.477l-2.367-7.031zm-10.43-5.696h8.532l-4.289-12.773-4.243 12.773zm34.333.704V144h-7.032v-34.125h13.313c4.335 0 8.908 1.534 11.25 5.414 1.047 1.719 1.57 3.68 1.57 5.883 0 7.333-6.263 10.805-12.937 10.805h-6.164zm0-5.696h6.281c3.178 0 5.719-1.679 5.719-5.062 0-3.284-2.277-5.59-5.555-5.649h-6.445v10.711zM167.496 144h-7.031v-34.125h7.031V144z" fill="#fff"/><path d="M73.704 155.552c0 4.64 2.15 7.551 9.86 9.004l1.135-4.596c-4.468-1.364-5.144-2.633-5.144-5.414 0-.904.13-19.234.13-20.189.226-2.806-1.617-5.371-4.38-6.092 2.765-.725 4.608-3.294 4.38-6.103 0-.956-.13-19.277-.13-20.189 0-2.773.677-4.05 5.143-5.414l-1.134-4.596c-7.71 1.46-9.86 4.372-9.86 9.012 0 .676.121 19.188.121 19.962 0 3.546-1.347 4.684-4.627 4.684h-1.103v5.275h1.103c3.283 0 4.627 1.138 4.627 4.684 0 .773-.12 19.285-.12 19.972zm108.592-54.585c0-4.64-2.149-7.551-9.859-9.004l-1.135 4.596c4.467 1.364 5.143 2.633 5.143 5.414 0 .903-.129 19.233-.129 20.189-.227 2.806 1.616 5.37 4.378 6.091-2.764.726-4.607 3.294-4.378 6.104 0 .955.129 19.276.129 20.189 0 2.772-.676 4.05-5.143 5.414l1.135 4.596c7.71-1.46 9.859-4.372 9.859-9.012 0-.677-.121-19.189-.121-19.962 0-3.546 1.348-4.684 4.628-4.684h1.103v-5.275h-1.103c-3.284 0-4.628-1.138-4.628-4.684 0-.773.121-19.286.121-19.972z" fill="#B3D1FF"/></svg>