<svg width="256" height="256" fill="none" viewBox="0 0 256 256" id="sqlazure" xmlns="http://www.w3.org/2000/svg"><path fill-rule="evenodd" clip-rule="evenodd" d="M155.592 121.921c1.539 3.602-1.72 1.625-3.966 3.535 0 0 4.518 24.621-1.907 51.595-4.155 17.455-15.372 39.73-16.217 40.287-1 .661-61.845-1.434-78.337-25.704-8.99-13.23 4.392-24.555 16.653-34.932 2.809-2.378 5.56-4.706 7.968-6.995C105 141 129.915 130.295 155.592 121.921zm-6.808 20.239c.385 0-.905-15.428-1.391-15.428-1.51 0-16.347 4.069-14.985 5.141 1.619 1.271 15.477 10.287 16.376 10.287zm-2.276.286c3.057 1.485 2.3 1.117.188 2.552-8.116 5.511-20.639 11.07-21.108 11.07-.045 0 .102-.668.324-1.487 1.828-6.761 2.859-13.586 2.888-19.06.014-2.707.015-2.721.271-2.785.261-.081 1.852.929 2.307 1.217l.054.034.039.025c8.041 5.037 12.676 7.288 15.037 8.434zm-21.307-.399c.197-1.652.315-7.719.153-7.881-.102-.103-14.393 5.422-14.809 5.724-.092.067.892 2.467 1.509 3.683 3.219 6.341 9.839 12.413 10.038 12.183.192-.22 2.305-6.994 3.109-13.709zm-17.493-.868c.902 1 .759 6.462 12.5 16.943.576.511-16.776 6.237-23.402 8.423-1.422.469-2.35.775-2.501.832-.244.09-.169-.061.545-1.175 4.428-6.913 10.552-20.412 11.7-24.234.072-.242.821-1.163 1.158-.789zm-8.159 7.819c1.352-2.638 2.727-5.543 2.655-5.606-.778-.682-14.156 6.004-15.398 7.309-.221.233-.299.603-.512 1.626l-.012.058c-.959 4.611-.367 9.771 1.941 14.362.494.983.373 1.184 1.264-.294 3.473-5.759 6.99-11.465 10.062-17.455zm49.428-3.705c0 7.648-.674 15.626-1.59 21.527a63.853 63.853 0 0 1-.317 1.946c-.01.01-.774-.213-1.696-.499-4.07-1.264-8.484-3.152-12.467-5.334-2.637-1.445-6.45-3.785-6.343-3.893 0 0 15.987-8.185 22.413-13.747zm-64.3 25.086c.022-.02-.406-.948-.954-2.061-3.388-6.887-2.506-11.525-2.1-13.66.14-.732.223-1.17.059-1.303-.377-.307-2.058.992-7.361 4.019-14.305 8.168-17.775 21.19-16.665 20.858.096-.029.994-.284 2.41-.684l.006-.002c6.57-1.861 24.245-6.868 24.605-7.167zm39.35-9.494s9.514 5.955 22.867 9.006c-5.547 3.087-18.802 8.297-26.198 11.109-1.943.739-6.667 2.597-6.667 2.486 0 0 6.443-11.715 9.646-21.574.178-.546.335-1.006.352-1.027zm-4.784 2.674c.278-.672.49-1.242.471-1.26 0 0-9.867 4.66-28.235 9.702 4.073 5.091 8.902 9.143 14.656 12.665.967.592 1.784 1.075 1.816 1.078.032.003.879-1.452 1.884-3.234 3.949-7.003 7.045-13.237 9.408-18.951zm20.269 32.818c-.143-.034-.439-.088-.871-.168-2.862-.528-11.686-2.157-21.514-6.107-1.891-.76-4.622-1.969-4.767-2.11 0 0 25.747-11.415 33.138-15.859.525-.316.915-.501 1.004-.482.644-.002-6.656 24.825-6.99 24.726zm-63.058-10.854c4.823-6.751 8.277-11.695 8.211-11.757-.035-.031-26.953 6.318-26.997 6.332-.274.083-.265.742.022 2.037 1.357 6.117 6.193 11.061 10.792 14.93l.399-.615c2.154-3.327 2.25-3.475 7.573-10.927zm11.683-10.429c3.77 4.208 7.411 7.799 13.601 11.377.856.494 1.508.924 1.453.959-.375.23-32.176 11.43-32.309 11.41-.055-.008-.78-.529-.987-.677l-.052-.038c4.216-6.075 6.249-8.532 18.294-23.031zm24.337 16.421c-1.465-.548-2.676-.977-2.695-.953-.019.024-.761 1.148-1.646 2.496-5.5 8.381-12.455 16.637-12.455 16.637 0 .121.909.36 1.169.306 1-.212 40.139-11.554 41.706-12.546 0 0-13.527-1.244-26.079-5.94zm-7.49-.818s-9.275 14.667-11.473 18.498c-11.815-3.15-21.482-9.23-21.028-9.373l32.501-9.125zm27.219 25.312c.622.03 6.944-17.49 6.537-17.396 0 0-8.863 4.178-17.698 6.882-5.558 1.701-10.942 2.915-19.848 4.924l-1.288.291c8.828 1.949 30.577 5.225 32.297 5.299zM118.617 38.307c-1.276-.148-39.074 13.313-39.124 19.973 12.54 9.22 40.668 11.213 56.401 13.918l.238-2.02c-1.102-.176-2.205-.349-3.308-.522-4.888-8.585-10.739-19.878-13.374-29.387-.502-1.812-.554-1.929-.833-1.962zm-.414 1.396s.542 6.141 2.877 13.102c.178.53 1.077 2.277.679 2.614-.111.094-.392-.011-.855-.14-5.103-1.424-26.799-4.54-26.799-4.54-.114-.114 6.467-3.562 9.385-4.919 7.245-3.372 14.713-6.117 14.713-6.117zm4.726 18.049s-18.548-1.708-30.896-5.912c4.746 4.453 9.415 8.988 14.084 13.521 1.345.218 1.86.394 2.341.325.424-.061.822-.314 1.74-.9 1.499-.955 4.383-2.794 11.035-6.126.954-.478 1.719-.887 1.696-.908zm-31.962-5.061c.01.011 9.3 11.578 9.289 11.586-.108.079-5.526-.976-8.398-1.634a90.373 90.373 0 0 1-7.479-2.06c.044-3.035 4.037-6.136 6.588-7.892zm37.546 16.047c-.696-1.062-3.575-6.553-4.5-8.579-.28-.614-.374-.93-.536-.97-.206-.051-.522.342-1.467 1.139a53.23 53.23 0 0 1-8.268 5.726c-.274.153-.572.237-.573.325-.004.38 15.288 3.062 15.472 2.573.015-.04-.062-.113-.128-.214z" fill="#00B4EC"/><path fill-rule="evenodd" clip-rule="evenodd" d="M79.81 57c-1.833 2.906 4.61 7.406 6.427 9.148 11.43 10.96 19.012 18.23 19.452 35.446.605 23.665-21.114 44.809-40.167 60.47l2.694-.892c3.615-2.708 22.735-13.866 54.398-25.767 22.971-8.632 63.904-20.22 93.307-24.733-20.111-31.538-54.038-36.675-90.831-42.246-10.745-1.627-21.734-3.29-32.695-5.66-1.638-.354-4.751-1.091-7.171-1.924a46.875 46.875 0 0 0-.77-.292c-1.888-.706-4.116-1.538-4.643-3.55zm6.984 6.781s3.392 1.141 8.517 2.451c1.631.417 2.98.775 2.996.794.24.269 4.619 14.501 4.455 14.668-.026.025-.33-.446-.67-1.044-5.66-9.953-15.297-16.869-15.297-16.869zm14.81 3.938c-.717-.159-1.318-.259-1.458-.25l.004.008c.131.289 3.668 8.077 5.347 14.513.146.562.285 1.021.306 1.021 0 0 6.348-6.689 14.855-10.968.973-.489 1.208-.45-1.467-.887-2.56-.418-7.787-1.27-17.587-3.437zm22.027 4.216c.154.051.447.963.964 3.013 1.454 5.755 1.616 13.165 1.056 15.037-4.663-1.51-17.238-5.146-17.238-5.146 0-.168 3.353-3.521 4.794-4.795 2.754-2.435 10.162-8.196 10.424-8.109zm27.713 5.09c-1.829-.767-25.739-4.923-25.846-4.823-.02.019.132.424.335.896 3.408 7.938 2.962 16.461 2.962 16.461s7.663-5.631 20.33-11.343c1.813-.817 2.378-1.125 2.219-1.191zm2.957.873c.086.086-.279 2.283-.596 3.581-1.711 7.005-7.629 17.406-7.956 17.505 0 0-5.869-3.421-12.268-6.06-1.093-.451-2.023-.852-2.071-.896-.443-.419 22.445-14.575 22.891-14.13zm30.247 10.078c-12.908-5.843-27.188-9.754-28.189-9.754-.064 0-.154.404-.198.902-.844 9.535-5.805 19.435-5.805 19.435s12.282-5.508 34.192-10.583zm-77.293 1.532c.423-.415 15.527 4.243 15.536 4.607 0 0-5.992 4.979-12.67 11.428-1.215 1.173-2.247 2.127-2.298 2.127-.051 0-.074-.171-.045-.38 1.076-7.945-.523-17.782-.523-17.782zm57.781 28.218c.382 0 21.923-27.623 21.398-28.144-.051-.05-3.556.957-6.855 1.969-6.255 1.918-14.616 4.899-20.732 7.388-3.513 1.43-8.117 3.405-8.115 3.479 0 0 7.555 5.295 13.533 14.225.398.594.746 1.083.771 1.083zm43.141-13.244c1.444 1.418 4.978 5.093 4.925 5.124-.014.008-1.233.104-2.712.216-19.891 1.495-41.903 7.087-41.903 7.087-.054 0 .991-1.049 2.32-2.327 8.254-7.935 12.02-12.945 16.449-21.896a431.615 431.615 0 0 0 1.254-2.559c1-.001 12.065 6.892 19.667 14.355zm-67.171-1.77c-.527-.494-11.766-6.158-12.847-6.4-.085-.02-.206.263-.307.725-1.693 7.8-4.274 12.558-5.48 14.78-.485.894-.747 1.377-.639 1.483.127.125.767-.274 2.161-1.143 2.309-1.439 6.687-4.168 14.229-7.942 1.61-.805 2.906-1.482 2.883-1.503zm-16.393-5.765c.074.074-.84 3.429-1.418 5.22-1.8 5.574-4.208 10.186-6.9 14.588l-.579-.562c-1.959-1.904-3.39-3.295-5.986-4.63-.723-.372-1.31-.715-1.311-.766-.01-.627 15.934-14.109 16.194-13.85zm37.694 21.562c-2.615-2.75-8.319-7.625-16.143-12.699-8.106 12.148-15.916 19.225-19.516 22.487-1.404 1.272-2.168 1.964-2.059 2.151.129.223 1.5-.274 4.507-1.365 5.29-1.918 15.645-5.673 33.211-10.574zm-21.807-11.28c.065.065-3.67 5.296-5.889 8.25-2.656 3.534-7.386 9.442-10.64 13.289-.506.599-.918 1.099-1.253 1.506-.828 1.006-1.185 1.44-1.339 1.377-.117-.048-.117-.383-.116-.972.002-1.592.006-5.04-2.297-9.702-.62-1.254-.723-1.558-.596-1.674 1.812-1.641 22.016-12.19 22.13-12.074zm-28.189 12.256c-2.632-2.196-5.886-3.864-6.06-3.864-.068 0-.326.617-.573 1.373-1.846 5.639-4.303 9.449-5.387 11.131-.385.597-.597.926-.547.973.061.057.515-.309 1.525-1.121 1.582-1.272 4.528-3.642 9.465-7.204.92-.664 1.63-1.244 1.577-1.288zm-19.192 24.194c-1.433.68-1.432.68-.412-.008 2.66-1.793 12.256-8.264 21.477-19.545l.042-.051c.206-.253 1.043-1.279 1.149-1.294.369 0 3.521 4.449 4.131 9.748-15.813 6.127-23.673 9.86-26.387 11.15zm12.962-14.105c2.089-2.132 5.191-5.641 5.084-5.748-.107-.107-9.282 6.108-13.294 9.005-1.49 1.076-1.683 1.262-2.7 2.582-2.934 3.809-5.398 6.371-6.66 7.685-1.306 1.358-1.33 1.382.736.072 6.42-4.075 11.605-8.259 16.834-13.596z" fill="#005CA6"/></svg>