<svg width="256" height="256" viewBox="0 0 256 256" id="stripe" xmlns="http://www.w3.org/2000/svg"><defs><linearGradient x1="100%" y1="100%" x2="0%" y2="0%" id="jla"><stop stop-color="#5A97F5" offset="0%"/><stop stop-color="#5A96F5" offset="17.31%"/><stop stop-color="#5947C1" offset="85.237%"/><stop stop-color="#5947C1" offset="100%"/></linearGradient><linearGradient x1="100%" y1="60.965%" x2="0%" y2="0%" id="jlb"><stop stop-color="#5E41B4" offset="0%"/><stop stop-color="#5C3CAF" offset="100%"/></linearGradient><linearGradient x1="100%" y1="100%" x2="0%" y2="100%" id="jlc"><stop stop-color="#4ADAFF" offset="0%"/><stop stop-color="#6F93FF" offset="100%"/></linearGradient><linearGradient x1="100%" y1="100%" x2="0%" y2="0%" id="jld"><stop stop-color="#6163DE" offset="0%"/><stop stop-color="#5F44BF" offset="100%"/></linearGradient></defs><g fill="none"><path d="M200 71v114c0 8.284-6.716 15-15 15H71c-8.284 0-15-6.716-15-15V71c0-8.284 6.716-15 15-15h114c8.284 0 15 6.716 15 15z" fill="url(#jla)"/><path d="M123.214 111.568c0-3.423 2.801-4.74 7.44-4.74 6.652 0 15.054 2.019 21.706 5.618V91.819c-7.265-2.897-14.442-4.038-21.706-4.038-17.768 0-29.584 9.304-29.584 24.84 0 24.226 33.26 20.364 33.26 30.809 0 4.038-3.501 5.354-8.402 5.354-7.265 0-16.542-2.984-23.895-7.022v20.89c8.14 3.511 16.367 5.003 23.895 5.003 18.205 0 30.722-9.041 30.722-24.752-.088-26.157-33.435-21.505-33.435-31.336z" fill="#fff"/><path d="M71 56h31v15.834L56 82V71c0-8.284 6.716-15 15-15z" fill="url(#jlb)"/><path fill="#25DDF5" opacity=".15" d="m176 123.5 24-5.063V182h-24z"/><path d="M128 199.915v-9.305l72-15.359v9.665c0 8.284-6.716 15-15 15h-57z" fill="url(#jlc)"/><path fill="url(#jld)" d="M102 56h70l-70 15.75z"/></g></svg>