<svg width="256" height="256" viewBox="0 0 256 256" id="surveymonkey" xmlns="http://www.w3.org/2000/svg"><path d="M211.816 133a26.053 26.053 0 0 0-6.178.766c-7.691-30.241-32.335-53.204-63.044-58.742a75.837 75.837 0 0 0-4.017-.609c.236-7.523.579-16.215 11.648-24.033l-1.748-4.41s-21.607 6.698-24.053 25.153c-1.071-5.019-11.128-11.304-16.107-12.493l-2.475 3.997s6.6 3.3 8.211 12.404c-30.707 5.519-55.362 28.462-63.073 58.693a25.832 25.832 0 0 0-26.08 41.573 25.83 25.83 0 0 0 29.34 7.534 79.228 79.228 0 0 0 8.387 15.606l21.44-14.447-.187-.236c-5.667-7.288-9.134-18.013-9.723-28.688-.638-11.786 2.229-23.473 9.753-30.348 15.508-13.2 32.411-7.179 42.959 5.471h2.838c10.578-12.65 27.5-18.661 42.959-5.471 7.513 6.875 10.391 18.572 9.753 30.348-.579 10.676-4.046 21.401-9.723 28.688l-.187.236 21.44 14.447a79.152 79.152 0 0 0 8.407-15.606 25.82 25.82 0 1 0 9.458-49.834zM44.331 166.393a7.621 7.621 0 1 1 0-15.242 7.69 7.69 0 0 1 4.272 1.316c.065 4.002.337 7.998.815 11.972a7.625 7.625 0 0 1-5.117 2.004l.029-.049zm167.946 0a7.623 7.623 0 0 1-5.088-1.964c.479-3.974.751-7.97.815-11.972a7.611 7.611 0 0 1 11.884 6.315 7.603 7.603 0 0 1-7.602 7.671l-.01-.049z" fill="#00BF6F"/></svg>