<svg width="256" height="256" fill="none" viewBox="0 0 256 256" id="tiktokads" xmlns="http://www.w3.org/2000/svg"><path d="M113.044 111.75v-5.933a45.853 45.853 0 0 0-6.216-.453c-25.435 0-46.129 20.697-46.129 46.132 0 15.603 7.798 29.415 19.693 37.767a45.944 45.944 0 0 1-12.387-31.407c0-25.074 20.106-45.521 45.039-46.106Z" fill="#00F2EA"/><path d="M114.133 178.921c11.349 0 20.606-9.028 21.028-20.279l.039-100.438h18.349a34.705 34.705 0 0 1-.591-6.36h-25.062l-.042 100.442c-.418 11.248-9.68 20.273-21.025 20.273a20.924 20.924 0 0 1-9.774-2.419 21.036 21.036 0 0 0 17.078 8.781Zm73.691-86.624v-5.581a34.648 34.648 0 0 1-18.987-5.645 34.877 34.877 0 0 0 18.99 11.226" fill="#00F2EA"/><path d="M168.836 81.066a34.718 34.718 0 0 1-8.576-22.857h-6.714a34.928 34.928 0 0 0 15.29 22.857Zm-62.009 49.36c-11.63.013-21.054 9.437-21.067 21.067a21.077 21.077 0 0 0 11.29 18.648 20.922 20.922 0 0 1-3.986-12.285c.012-11.63 9.436-21.058 21.067-21.071 2.171 0 4.252.358 6.216.975v-25.585a45.63 45.63 0 0 0-7.303-.426v19.652a20.724 20.724 0 0 0-6.217-.975Z" fill="#FF004F"/><path d="M187.822 92.297v19.479c-12.997 0-25.035-4.157-34.868-11.213v50.932c0 25.435-20.69 46.129-46.125 46.129-9.83 0-18.945-3.102-26.436-8.363a45.996 45.996 0 0 0 33.738 14.722c25.435 0 46.129-20.694 46.129-46.126v-50.931a59.606 59.606 0 0 0 34.868 11.212V93.07c-2.509 0-4.948-.272-7.308-.778" fill="#FF004F"/><path d="M152.953 151.493v-50.931a59.596 59.596 0 0 0 34.868 11.212V92.297a34.876 34.876 0 0 1-18.987-11.23 34.935 34.935 0 0 1-15.29-22.858h-18.347l-.039 100.438c-.421 11.248-9.679 20.276-21.028 20.276a21.04 21.04 0 0 1-17.077-8.78 21.081 21.081 0 0 1-11.293-18.648c.013-11.63 9.437-21.054 21.067-21.068a20.6 20.6 0 0 1 6.216.976V111.75c-24.934.585-45.04 21.032-45.04 46.106 0 12.125 4.712 23.163 12.388 31.407a45.848 45.848 0 0 0 26.436 8.359c25.437 0 46.126-20.694 46.126-46.129Z" fill="#000"/></svg>