<svg width="256" height="256" fill="none" viewBox="0 0 256 256" id="timely" xmlns="http://www.w3.org/2000/svg"><path d="M174 56H82c-14.36 0-26 11.64-26 26v92c0 14.359 11.64 26 26 26h92c14.359 0 26-11.641 26-26V82c0-14.36-11.641-26-26-26z" fill="#9B72DA"/><path fill-rule="evenodd" clip-rule="evenodd" d="m134.941 109.577 22.424 19.433-6.199 7.153-18.291-15.852-.07 55.662-9.465-.012.07-55.644-18.284 15.846-6.199-7.153 22.424-19.433h13.59z" fill="#fff"/><path d="m131.074 80-5.915.008.023 17.878 5.916-.008L131.074 80zm14.035 22.365 4.395 3.958 9.361-10.395-4.396-3.958-9.36 10.395zm-38.358 3.958-9.36-10.395 4.396-3.958 9.36 10.395-4.396 3.958z" fill="#0EF0B8"/></svg>