<svg width="256" height="256" viewBox="0 0 256 256" id="upload" xmlns="http://www.w3.org/2000/svg"><g fill="none"><path fill="#D6DDE9" d="M64 144h127v16H64z"/><path d="M59.657 157h136.686c1.061 0 2.078.421 2.828 1.172l25.071 25.071H31.757l25.071-25.071A4.001 4.001 0 0 1 59.656 157z" fill="#AAB7CD"/><path d="M33 183h190a3 3 0 0 1 3 3v2a3 3 0 0 1-3 3H33a3 3 0 0 1-3-3v-2a3 3 0 0 1 3-3z" fill="#D6DDE9"/><path d="M30 189h196l-1.121 1.121a3 3 0 0 1-2.121.879H33.243a2.996 2.996 0 0 1-2.121-.879L30.001 189zm38.872-29h118.34a2 2 0 0 1 1.365.538l12.569 11.731a1 1 0 0 1-.682 1.731h-40.845a1 1 0 0 0-.894 1.447l.553 1.106a1 1 0 0 1-.894 1.448H97.62a1 1 0 0 1-.894-1.447l.553-1.105a1 1 0 0 0-.894-1.448H57.296a1 1 0 0 1-.733-1.68l10.846-11.68a1.997 1.997 0 0 1 1.466-.639zM61.889 58h132.222c2.148 0 3.889 1.791 3.889 4v86c0 2.209-1.741 4-3.889 4H61.889c-2.148 0-3.889-1.791-3.889-4V62c0-2.209 1.741-4 3.889-4z" fill="#384A66"/><path fill="#4986E7" d="M70 140V70h116v70z"/></g></svg>