<svg width="256" height="256" fill="none" viewBox="0 0 256 256" id="woocommerce" xmlns="http://www.w3.org/2000/svg"><path fill-rule="evenodd" clip-rule="evenodd" d="M56.334 82h143.26C208.661 82 216 89.298 216 98.312v54.374c0 9.015-7.339 16.312-16.406 16.312h-51.375l7.052 17.171-31.012-17.171H56.406c-9.066 0-16.405-7.297-16.405-16.312V98.312C39.928 89.37 47.268 82 56.334 82z" fill="#9B5C8F"/><path d="M60.175 99.886c2.218 14.953 4.65 27.616 7.227 37.99l15.668-29.834c3.208-6.096 9.943-5.2 11.232 1.717 1.789 9.516 4.078 17.6 6.797 24.469 1.86-18.173 5.008-31.265 9.444-39.35 3.687-6.883 14.371-1.03 10.732 5.795-2.791 5.151-5.08 13.808-6.94 25.828-1.789 11.662-2.433 20.748-2.003 27.258.545 6.817-5.807 9.32-10.303 4.651-6.654-6.797-11.948-16.956-15.811-30.478-4.65 9.157-8.085 16.026-10.303 20.605-4.22 8.084-7.798 12.234-10.803 12.448-1.932.143-3.577-1.502-5.008-4.936-3.649-9.373-7.584-27.473-11.805-54.303-.897-7.773 10.797-9.88 11.876-1.86z" fill="#fff"/><path fill-rule="evenodd" clip-rule="evenodd" d="M165.561 130.364c0-12.837 7.24-30.907 22.393-30.907 12.58 0 18.745 11.638 18.745 22.823 0 14.224-9.216 34.137-26.257 30.549-10.511-2.22-14.881-12.616-14.881-22.465zm17.456 10.517c6.384 1.277 10.255-8.269 11.233-12.878.855-4.915 1.309-15.139-5.008-16.455-6.195-1.205-10.197 8.231-11.233 12.95-.946 4.351-1.016 15.128 5.008 16.383zm-62.314-10.517c0-12.837 7.241-30.907 22.394-30.907 12.195 0 18.744 11.695 18.744 22.823 0 12.878-7.192 30.979-22.393 30.979-12.239 0-18.745-11.741-18.745-22.895zm12.449-5.866c-.946 4.351-1.016 15.128 5.008 16.383 8.375 1.675 11.733-12.577 11.733-18.172 0-3.575-1.284-10.281-5.509-11.161-6.195-1.205-10.196 8.231-11.232 12.95z" fill="#fff"/></svg>