<svg width="256" height="256" fill="none" viewBox="0 0 256 256" id="wordpress" xmlns="http://www.w3.org/2000/svg"><path d="M172.916 124.642c0-7.037-2.606-13.709-6.271-19.62-2.715-4.329-5.749-9.035-5.749-14.333 0-6.595 5.369-12.177 12.034-11.755C161.093 68.09 145.322 61.467 128 61.467c-23.245 0-43.693 11.927-55.59 29.987 7.343.233 14.695-.19 22.015-.765 3.584-.21 4.008 5.059.425 5.483 0 0-3.605.422-7.614.632l24.227 72.068 14.563-43.667-10.366-28.401c-3.584-.21-6.978-.633-6.978-.633-3.586-.211-3.166-5.692.422-5.482 0 0 10.985.845 17.523.845 6.957 0 17.734-.845 17.734-.845 3.587-.21 4.009 5.059.424 5.483 0 0-3.609.422-7.614.632l24.044 71.519 6.864-21.749c3.05-9.505 4.837-16.239 4.837-21.932zm-111.449 3.355c0 26.334 15.303 49.095 37.5 59.878l-31.739-86.954a66.268 66.268 0 0 0-5.761 27.076z" fill="#32373C"/><path d="m109.204 191.823 19.965-58.006 20.45 56.027c.135.33.299.633.477.917a66.386 66.386 0 0 1-22.095 3.772 66.493 66.493 0 0 1-18.797-2.71zm77.182-95.743c1.41 10.452-.725 20.95-4.614 30.67l-20.321 58.754c19.781-11.532 33.083-32.961 33.083-57.507 0-11.567-2.956-22.442-8.148-31.918z" fill="#32373C"/><path fill-rule="evenodd" clip-rule="evenodd" d="M128 48.16c-44.094 0-79.84 35.745-79.84 79.84 0 44.095 35.746 79.84 79.84 79.84 44.095 0 79.841-35.745 79.841-79.84 0-44.095-35.746-79.84-79.841-79.84zm0 4.79c40.808 0 75.05 34.664 75.05 75.05 0 40.805-34.665 75.05-75.05 75.05-40.805 0-75.05-34.666-75.05-75.05 0-40.805 34.666-75.05 75.05-75.05z" fill="#32373C"/></svg>