<svg width="256" height="256" fill="none" viewBox="0 0 256 256" id="xero" xmlns="http://www.w3.org/2000/svg"><path fill-rule="evenodd" clip-rule="evenodd" d="M128 208c44.183 0 80-35.817 80-80s-35.817-80-80-80-80 35.817-80 80 35.817 80 80 80z" fill="#00B7E3"/><path d="M167.498 127.735a4.441 4.441 0 0 0 4.439 4.437 4.441 4.441 0 0 0 4.434-4.437 4.44 4.44 0 0 0-4.434-4.436 4.44 4.44 0 0 0-4.439 4.436z" fill="#fff"/><path fill-rule="evenodd" clip-rule="evenodd" d="M171.932 145.638c-9.872 0-17.903-8.03-17.903-17.9 0-9.872 8.031-17.904 17.903-17.904 9.872 0 17.907 8.032 17.907 17.904 0 9.87-8.035 17.9-17.907 17.9zm0-30.749c-7.085 0-12.849 5.764-12.849 12.849 0 7.083 5.764 12.845 12.849 12.845 7.082 0 12.846-5.762 12.846-12.845 0-7.085-5.764-12.849-12.846-12.849z" fill="#fff"/><path d="m86.491 127.74 13.627-13.661a2.441 2.441 0 0 0-1.739-4.157 2.42 2.42 0 0 0-1.736.727c0 .002-13.614 13.607-13.614 13.607l-13.675-13.628a2.439 2.439 0 0 0-1.723-.706 2.442 2.442 0 0 0-2.442 2.439c0 .657.262 1.273.733 1.737l13.625 13.622-13.618 13.644a2.43 2.43 0 0 0-.74 1.748 2.442 2.442 0 0 0 4.165 1.727l13.654-13.636 13.602 13.586a2.434 2.434 0 0 0 1.769.765 2.444 2.444 0 0 0 1.731-4.164l-13.619-13.65zm66.267-17.6-.751-.002c-2.255 0-4.43.711-6.246 2.111a2.447 2.447 0 0 0-2.385-1.919 2.414 2.414 0 0 0-2.421 2.42l.008 30.153a2.445 2.445 0 0 0 2.442 2.433 2.445 2.445 0 0 0 2.441-2.437l.001-18.54c0-6.179.565-8.674 5.858-9.336.48-.059.999-.052 1.023-.051 1.449-.05 2.479-1.046 2.479-2.39a2.448 2.448 0 0 0-2.449-2.442z" fill="#fff"/><path fill-rule="evenodd" clip-rule="evenodd" d="M128.074 112.629c4.153 2.628 6.88 6.719 7.932 11.7.52 2.821-1.361 5.287-4.854 5.359l-25.484.005c.262 6.263 7.068 10.938 12.832 11.003 4.151-.024 8.007-2.085 10.386-5.477 2.18-2.794 6.041.507 3.881 3.186-.016.02-.033.038-.049.056a1.23 1.23 0 0 0-.035.039c-3.956 4.958-10.017 7.819-16.372 7.05-8.796-1.077-15.729-8.869-15.729-17.69 0-5.734 2.761-11.3 7.543-14.702 5.864-4.17 13.879-4.383 19.949-.529zm-22.188 12a2.96 2.96 0 0 0-.006.161h25.127c-1.345-5.706-6.467-9.954-12.583-9.954-6.044 0-11.118 4.146-12.536 9.749l-.002.044z" fill="#fff"/></svg>