<svg width="256" height="256" viewBox="0 0 256 256" id="yammer" xmlns="http://www.w3.org/2000/svg"><path d="M187.523 97.552c-15.05 8.248-37.076 18.16-40.687 15.636-3.636-2.548 28.575-25.117 33.339-27.743l.823-.437a7.223 7.223 0 0 1 8.091 3.027 7.214 7.214 0 0 1-1.567 9.516zm0 67.866a7.217 7.217 0 0 1 1.567 9.519 7.225 7.225 0 0 1-8.091 3.029l-.823-.441c-4.765-2.621-36.976-25.195-33.339-27.74 3.611-2.526 25.637 7.388 40.687 15.633zm13.258-41.353a7.225 7.225 0 0 1 5.638 6.54 7.212 7.212 0 0 1-5.955 7.59c-17.158-.007-41.235-1.921-43.189-5.864-1.962-3.985 37.138-8.273 42.574-8.283.326 0 .637.003.932.018zM97.27 157.977 65.388 80.202c-1.288-3.945.726-8.235 4.647-9.705a7.793 7.793 0 0 1 9.772 3.956l25.314 64.081h.378l24.065-63.603a7.357 7.357 0 0 1 9.139-4.47c3.847 1.232 5.998 5.37 4.763 9.241l-34.248 85.436C103.422 179.893 97.619 190 80.064 190c-2.325 0-4.917-.164-7.441-.608-3.49-1-5.551-4.616-4.601-8.125a6.664 6.664 0 0 1 6.77-4.93c.207.019 3.411.208 4.331.208 9.524 0 13.669-5.921 18.148-18.567z" fill="#0072C6"/></svg>