<svg width="256" height="256" fill="none" viewBox="0 0 256 256" id="zohocreator" xmlns="http://www.w3.org/2000/svg"><path d="m116.293 202.454-70.854-70.962c-1.893-1.897-1.893-5.064 0-6.96l70.866-70.974c8.218-8.233 21.974-8.233 30.192 0l25.2 25.242c1.893 1.894 1.893 5.06 0 6.954l-42.174 42.24 42.18 42.24c1.889 1.896 1.889 5.058 0 6.954l-25.236 25.254c-8.179 8.24-21.986 8.237-30.174.012Zm-60.414-74.442 67.38 67.482c4.423 4.435 11.831 4.435 16.254 0l21.762-21.78-42.18-42.234c-1.89-1.898-1.89-5.062 0-6.96l42.18-42.24-21.744-21.768c-4.427-4.425-11.827-4.425-16.254 0l-67.398 67.5Z" fill="#226DB4"/><path d="m182.121 159.776-28.26-28.308c-1.893-1.895-1.893-5.06 0-6.954l28.26-28.308c1.895-1.9 5.07-1.9 6.966 0l16.686 16.716c8.185 8.22 8.185 21.924 0 30.144l-16.686 16.704c-1.887 1.892-5.061 1.913-6.966.006Zm-17.82-31.806 21.306 21.342 13.2-13.2c4.39-4.421 4.39-11.779 0-16.2l-13.2-13.2-21.306 21.258Z" fill="#E42527"/></svg>