<svg width="256" height="256" fill="none" viewBox="0 0 256 256" id="zohoinvoice" xmlns="http://www.w3.org/2000/svg"><path fill-rule="evenodd" clip-rule="evenodd" d="M124.992 112.797h19.141a4.096 4.096 0 0 0 4.101-4.101V89.555a4.096 4.096 0 0 0-4.101-4.102h-19.141a4.096 4.096 0 0 0-4.101 4.102v19.141a4.096 4.096 0 0 0 4.101 4.101zm4.102-19.154h10.937v10.937h-10.937V93.643z" fill="#397CBC"/><path d="M169.221 137.406h-44.229a4.096 4.096 0 0 1-4.101-4.101 4.096 4.096 0 0 1 4.101-4.102h44.229a4.096 4.096 0 0 1 4.101 4.102 4.096 4.096 0 0 1-4.101 4.101zm0 24.624h-44.229a4.097 4.097 0 0 1-4.101-4.102 4.096 4.096 0 0 1 4.101-4.102h44.229a4.096 4.096 0 0 1 4.101 4.102 4.097 4.097 0 0 1-4.101 4.102z" fill="#397CBC"/><path fill-rule="evenodd" clip-rule="evenodd" d="M193.912 58h-74.389c-12.824 0-23.242 10.432-23.242 23.242v15.121H81.146c-12.769 0-23.16 10.391-23.16 23.16v55.317c0 12.769 10.391 23.16 23.16 23.16h79.94c9.857 0 19.141-3.842 26.113-10.814 6.973-6.973 10.815-16.243 10.815-26.114v-98.97A4.096 4.096 0 0 0 193.912 58zM81.146 104.566h15.122v24.637H66.189v-9.68c0-8.244 6.713-14.957 14.958-14.957zm0 85.231c-8.244 0-14.957-6.713-14.957-14.957v-37.434h30.092v37.434c0 8.244-6.713 14.957-14.957 14.957h-.177zm108.665-28.711c0 15.832-12.879 28.725-28.725 28.725H98.988c3.418-4.034 5.496-9.256 5.496-14.957V81.242c0-8.299 6.754-15.039 15.039-15.039h70.288v94.883z" fill="#397CBC"/></svg>