<svg width="256" height="256" fill="none" viewBox="0 0 256 256" id="zohoworkdrive" xmlns="http://www.w3.org/2000/svg"><path d="M190.836 74.999h-61.055c-2.035 0-4.014-.678-5.653-1.866l-13.851-10.345C106.998 60.357 102.928 59 98.857 59h-33.75C54.594 58.944 46 67.537 46 78.052v99.496c0 10.515 8.593 19.108 19.108 19.108h9.554a4.801 4.801 0 0 0 4.805-4.805 4.801 4.801 0 0 0-4.805-4.805h-9.554c-5.201 0-9.498-4.24-9.498-9.498V78.052c0-5.201 4.24-9.498 9.498-9.498h33.806c2.035 0 4.014.679 5.653 1.866l13.851 10.345c3.279 2.431 7.349 3.788 11.419 3.788h61.055c5.201 0 9.498 4.24 9.498 9.497v27.701c-.34-8.367-7.237-15.094-15.716-15.094-8.65 0-15.716 7.066-15.716 15.716 0 4.183 1.639 7.971 4.296 10.798-2.101.77-4.261 1.442-6.219 2.544 0 .226 0-.227 0 0 0-8.367-6.84-15.886-15.207-15.886-8.366 0-15.207 6.84-15.207 15.207 0 3.901 1.47 7.462 3.901 10.176-1.971.704-3.947 1.377-5.766 2.431 0 .113 0-.113 0 0 0-7.915-6.445-14.699-14.416-14.699-7.915 0-14.416 6.445-14.416 14.416 0 3.505 1.244 6.727 3.336 9.215l-4.127 1.526c-4.692 1.753-8.706 4.806-11.533 8.932-2.883 4.127-4.353 8.932-4.353 13.964v10.854a4.801 4.801 0 0 0 4.805 4.805h96.84c10.515 0 19.108-8.593 19.108-19.051V94.05C209.943 83.535 201.351 75 190.836 75Zm-6.162 41.268c3.335 0 6.105 2.714 6.105 6.106 0 3.335-2.714 6.105-6.105 6.105-3.336 0-6.106-2.713-6.106-6.105a6.08 6.08 0 0 1 6.106-6.106Zm-32.846 13.172a5.574 5.574 0 0 1 5.597 5.597 5.574 5.574 0 0 1-5.597 5.597 5.573 5.573 0 0 1-5.596-5.597 5.573 5.573 0 0 1 5.596-5.597Zm-10.345 25.61 14.246-5.258a23.54 23.54 0 0 0-.791 5.992v31.263h-23.122v-18.147c.056-6.106 3.901-11.702 9.667-13.85Zm-21.143-12.494a4.8 4.8 0 0 1 4.805 4.805 4.8 4.8 0 0 1-4.805 4.805 4.8 4.8 0 0 1-4.805-4.805 4.8 4.8 0 0 1 4.805-4.805Zm-11.872 24.535 14.868-5.484c-.735 2.375-1.131 4.806-1.131 7.293v18.147H98.858v-6.049c0-6.162 3.844-11.759 9.61-13.907Zm82.368 19.956h-26.288v-31.263c0-5.483 3.449-10.458 8.65-12.38 5.729-2.129 10.907-3.903 17.411-6.558 5.541-2.261 9.441-7.632 9.724-13.907v54.554c0 5.314-4.24 9.554-9.497 9.554Z" fill="#226DB4"/></svg>