<svg width="256" height="256" fill="none" viewBox="0 0 256 256" id="zoho" xmlns="http://www.w3.org/2000/svg"><path fill-rule="evenodd" clip-rule="evenodd" d="M62.777 95.777c-17.524 17.524-17.524 45.936 0 63.46 8.798 8.799 20.33 13.179 31.869 13.143 1.749-.005 3.487-.114 5.23-.25 1.952-.152 4.468-.341 9.133-.491a5.817 5.817 0 1 1 .375 11.628c-4.442.143-6.774.319-8.603.462-2.032.158-4.06.279-6.1.285-14.51.044-29.053-5.473-40.13-16.55-22.068-22.068-22.068-57.846 0-79.913 22.067-22.068 57.845-22.068 79.913 0l32.024 32.023c7.626 7.627 7.626 19.991 0 27.617-7.627 7.627-19.991 7.627-27.617 0l-28.793-28.792a7.895 7.895 0 0 0-11.164 11.165l30.849 30.848c17.524 17.524 45.936 17.524 63.46 0s17.524-45.936 0-63.46c-8.728-8.728-20.145-13.108-31.591-13.143-4.511-.014-3.948.094-14.774 1.297a5.817 5.817 0 0 1-1.285-11.563c10.327-1.148 10.724-1.384 16.094-1.368 14.395.045 28.794 5.563 39.782 16.55 22.068 22.068 22.068 57.846 0 79.914-22.067 22.067-57.845 22.067-79.913 0L90.688 137.79c-7.627-7.626-7.627-19.991 0-27.617 7.626-7.626 19.99-7.626 27.617 0l28.792 28.792a7.894 7.894 0 0 0 11.164 0 7.894 7.894 0 0 0 0-11.164l-32.024-32.024c-17.524-17.524-45.936-17.524-63.46 0z" fill="#226DB4"/></svg>