<svg width="256" height="256" fill="none" viewBox="0 0 256 256" id="zohobooks" xmlns="http://www.w3.org/2000/svg"><g opacity=".9" fill="#226EB3"><path d="M63.984 196h92.908c10.446 0 20.267-4.068 27.654-11.452 7.387-7.387 11.455-17.209 11.455-27.655a39.04 39.04 0 0 0-6.024-20.855 39.06 39.06 0 0 0-15.997-14.325 3.984 3.984 0 1 0-3.48 7.169 31.08 31.08 0 0 1 12.735 11.406 31.087 31.087 0 0 1 4.796 16.604c0 8.318-3.239 16.137-9.12 22.019-5.882 5.881-13.701 9.12-22.019 9.12H67.969V158.26a9.299 9.299 0 0 1 6.28-8.794l102.965-35.34A27.819 27.819 0 0 0 196 87.816C196 72.478 183.522 60 168.184 60h-104.2A3.984 3.984 0 0 0 60 63.984v69.722a3.984 3.984 0 0 0 7.969 0V67.969h100.215c10.944 0 19.847 8.904 19.847 19.847a19.853 19.853 0 0 1-13.403 18.773l-102.967 35.34A17.27 17.27 0 0 0 60 158.26v33.756c0 2.2 1.784 3.984 3.984 3.984z"/><path fill-rule="evenodd" clip-rule="evenodd" d="M88.889 99.82c0 8.788 7.149 15.937 15.937 15.937s15.938-7.149 15.938-15.937c0-8.789-7.15-15.938-15.938-15.938s-15.937 7.15-15.937 15.938zm7.968 0c0-4.394 3.576-7.97 7.969-7.97 4.394 0 7.969 3.576 7.969 7.97 0 4.393-3.575 7.968-7.969 7.968-4.393 0-7.969-3.575-7.969-7.968zm31.984 56.274c0 8.788 7.15 15.937 15.938 15.937s15.937-7.149 15.937-15.937c0-8.789-7.149-15.938-15.937-15.938s-15.938 7.149-15.938 15.938zm7.969 0c0-4.394 3.575-7.969 7.969-7.969 4.393 0 7.969 3.575 7.969 7.969 0 4.393-3.576 7.968-7.969 7.968-4.394 0-7.969-3.575-7.969-7.968z"/></g></svg>