<svg width="256" height="256" fill="none" viewBox="0 0 256 256" id="zohopeople" xmlns="http://www.w3.org/2000/svg"><path d="m91.73 201.169-31.2-18.018a13.2 13.2 0 0 1-6.593-11.411v-36.035c0-4.702 2.52-9.053 6.592-11.426l25.298-14.59c4.916-2.833 9.31 4.785 4.395 7.618l-25.298 14.589a4.405 4.405 0 0 0-2.197 3.809v36.021c0 1.567.835 3.017 2.197 3.808l31.201 18.018a4.44 4.44 0 0 0 4.395 0l25.283-14.605c4.915-2.833 9.309 4.785 4.394 7.617l-25.283 14.59c-4.022 2.349-9.153 2.339-13.183.015Z" fill="#E42527"/><path d="m151.086 201.169-25.313-14.619c-4.914-2.833-.521-10.451 4.395-7.617l25.312 14.619a4.44 4.44 0 0 0 4.395 0l31.201-18.018a4.404 4.404 0 0 0 2.197-3.808v-36.021a4.406 4.406 0 0 0-2.197-3.809l-25.269-14.589c-4.914-2.833-.52-10.451 4.395-7.618l25.269 14.59a13.208 13.208 0 0 1 6.591 11.426v36.035a13.2 13.2 0 0 1-6.591 11.411l-31.202 18.018c-4.051 2.306-9.137 2.333-13.183 0Z" fill="#F9B21D"/><path d="M83.63 113.513V84.274a13.2 13.2 0 0 1 6.592-11.41l31.201-18.018a13.238 13.238 0 0 1 13.183 0l31.202 18.017a13.201 13.201 0 0 1 6.591 11.411v29.224c0 5.669-8.789 5.669-8.789 0V84.274a4.404 4.404 0 0 0-2.197-3.808l-31.201-18.018a4.438 4.438 0 0 0-4.395 0l-31.2 18.018a4.404 4.404 0 0 0-2.198 3.808v29.239c0 5.665-8.79 5.67-8.79 0Z" fill="#089949"/><path fill-rule="evenodd" clip-rule="evenodd" d="M128 106.35c-7.603 0-13.77-6.167-13.77-13.77 0-7.602 6.167-13.77 13.77-13.77s13.77 6.168 13.77 13.77c-.015 7.603-6.167 13.77-13.77 13.77Zm0-18.75a4.976 4.976 0 0 0-4.98 4.98 4.976 4.976 0 0 0 4.98 4.98 4.976 4.976 0 0 0 4.98-4.98A4.976 4.976 0 0 0 128 87.6Z" fill="#226DB4"/><path fill-rule="evenodd" clip-rule="evenodd" d="m127.99 119.604-23.076-13.342a13.237 13.237 0 0 0-13.183 0l-5.904 3.413a4.386 4.386 0 0 0-2.197 4.023v6.582c0 4.717 2.52 9.068 6.592 11.426l23.071 13.321v26.713a13.231 13.231 0 0 0 6.592 11.411l5.874 3.399a4.509 4.509 0 0 0 4.438.014l5.918-3.427a13.2 13.2 0 0 0 6.592-11.411v-26.683l23.101-13.322a13.208 13.208 0 0 0 6.591-11.426v-6.565c.088-1.746-.908-3.437-2.491-4.196l-5.638-3.258a13.243 13.243 0 0 0-13.184 0l-23.096 13.328Zm-8.524 18.847-24.85-14.362a4.404 4.404 0 0 1-2.197-3.809v-4.258l3.706-2.143a4.44 4.44 0 0 1 4.395 0l25.24 14.58a4.457 4.457 0 0 0 4.653-.1l25.067-14.465a4.435 4.435 0 0 1 4.395 0l3.735 2.158v4.228a4.404 4.404 0 0 1-2.197 3.809l-24.877 14.361a4.39 4.39 0 0 0-2.618 4.023v29.253a4.404 4.404 0 0 1-2.197 3.808l-3.727 2.149-3.715-2.149a4.404 4.404 0 0 1-2.197-3.808v-29.007c.09-1.799-.958-3.536-2.616-4.268Z" fill="#226DB4"/></svg>