<svg width="256" height="256" fill="none" viewBox="0 0 256 256" id="zohodesk" xmlns="http://www.w3.org/2000/svg"><path fill-rule="evenodd" clip-rule="evenodd" d="M147.112 47.792A8.994 8.994 0 0 1 156.024 40h19.318c15.351 0 25.802 12.007 23.363 27.57-2.773 17.677-5.359 35.381-8.038 53.072a10.998 10.998 0 0 1-5.221 7.788l-50.02 29.977a10.998 10.998 0 0 1-12.51-.833l-22.463-17.901a5 5 0 0 1 6.232-7.82l22.463 17.901a1 1 0 0 0 1.137.076l50.02-29.977c.256-.154.43-.413.475-.708l8.022-52.974c1.349-8.91-4.24-16.171-13.46-16.171h-18.437l-2.718 20.063h7.684c4.852 0 8.586 4.283 7.925 9.09l-3.076 22.362a10.997 10.997 0 0 1-10.894 9.501h-63.69c-6.44 0-10.114 7.22-11.487 12.64l-12.371 80.638 16.935-9.848a10.997 10.997 0 0 1 5.53-1.492h68.446c5.679-.404 9.192-5.308 10.299-10.525 1.696-7.989 3.291-16.019 4.525-24.095a5.001 5.001 0 0 1 9.887 1.501v.002l-.001.002-.001.007c-1.271 8.264-2.892 16.482-4.628 24.659-2.015 9.497-9.677 18.449-20.033 18.449H90.743a.998.998 0 0 0-.502.136l-24.17 14.056c-4.359 2.535-9.711-1.112-8.947-6.097l13.642-88.92c1.593-10.387 10.28-21.113 21.37-21.113h63.69a.997.997 0 0 0 .987-.864l2.764-20.09h-6.534c-5.451 0-9.651-4.806-8.919-10.207l2.988-22.063z" fill="#089949"/></svg>