<svg width="256" height="256" fill="none" viewBox="0 0 256 256" id="zohosprints" xmlns="http://www.w3.org/2000/svg"><path d="M112.683 128.095H86.346a4.78 4.78 0 0 1-4.784-4.784 4.78 4.78 0 0 1 4.784-4.783h26.337c6.171 0 6.171 9.567 0 9.567ZM87.97 151.999H61.69a4.78 4.78 0 0 1-4.784-4.783 4.78 4.78 0 0 1 4.784-4.784h26.28c6.171 0 6.171 9.567 0 9.567Z" fill="#F9B21D"/><path d="M126.525 208.181c-1.013-.844-1.688-2.026-1.801-3.32-1.147-12.618 6.873-24.691 18.909-28.588l18.909-6.078-21.835-35.623a4.738 4.738 0 0 1 .9-6.078l47.666-41.813c7.681-6.764 8.165-18.904.901-26.169l-2.871-2.87-121.275 117.73c-5.905 5.714-7.15 15.076-2.926 22.117l63.986-56.276c4.631-4.102 10.989 3.168 6.303 7.203l-67.757 59.54c-1.913 1.689-4.727 1.576-6.528-.225l-.056-.056c-10.73-10.73-10.536-28.638.281-39.225L184.04 47.344c1.858-1.801 4.896-1.801 6.697.056l6.191 6.19c11.104 11.105 10.476 29.796-1.295 40.182l-44.627 39.168 22.905 37.367c1.648 2.591.223 6.117-2.645 7.035l-24.706 7.991c-6.108 1.948-10.843 7.227-12.099 13.507l41.476-5.909c11.636-1.63 18.616-14.334 13.844-25.043l-16.714-37.649c-1.07-2.42 0-5.234 2.419-6.303 2.42-1.069 5.234 0 6.303 2.42l16.714 37.649c7.319 16.38-3.464 35.936-21.272 38.38l-47.16 6.753c-2.069.362-2.793-.355-3.545-.957Z" fill="#089949"/></svg>