<svg width="256" height="256" fill="none" viewBox="0 0 256 256" id="zohoinventory" xmlns="http://www.w3.org/2000/svg"><path opacity=".9" d="M123.733 104.011c-.202-2.33 1.461-4.493 3.765-4.897l26.442-4.661c2.452-.433 4.863 1.255 5.295 3.707.432 2.452-1.256 4.862-3.707 5.295l-26.443 4.661c-2.57.453-5.124-1.481-5.352-4.105z" fill="#F9B21D"/><path opacity=".9" fill-rule="evenodd" clip-rule="evenodd" d="M91.538 170.142 72.928 64.601c-.935-5.37-4.902-9.875-10.11-11.483l-8.815-2.742c-2.358-.757-5.019.606-5.762 2.994-.743 2.389.675 5.02 3.047 5.734l8.816 2.742a5.588 5.588 0 0 1 3.822 4.342L83.23 175.667a18.281 18.281 0 0 0-4.37 12.685c.423 9.643 8.609 17.478 18.261 17.479 6.456-.004 12.651-3.58 15.867-9.199l78.788-13.896c7.908-1.258 13.572-9.103 12.167-17.069-1.391-7.886-9.331-13.416-17.272-11.877l-69.639 12.279c-2.947.521-5.914-1.531-6.438-4.508l-12.28-69.64c-.52-2.946 1.531-5.912 4.507-6.437l69.644-12.28c2.98-.523 5.909 1.528 6.435 4.507l11.367 64.457c.458 2.423 2.852 4.078 5.281 3.651 2.429-.427 4.115-2.798 3.721-5.232l-11.367-64.462a14.792 14.792 0 0 0-6.044-9.487 14.794 14.794 0 0 0-10.983-2.435l-69.64 12.279a14.794 14.794 0 0 0-9.487 6.044 14.794 14.794 0 0 0-2.435 10.983l12.279 69.643a14.788 14.788 0 0 0 5.396 9.007c-4.553-2.919-10.309-3.666-15.45-2.017zm16.725 2.913c4.282 3.291 6.946 8.479 7.13 13.871l74.796-13.188c2.992-.508 5.064-3.484 4.542-6.444-.527-2.989-3.516-5.042-6.472-4.502l-69.64 12.282c-3.56.628-7.293-.1-10.356-2.019zm-12.682 5.593c5.239-.927 10.401 3.159 10.632 8.523.206 4.775-3.493 8.992-8.254 9.41-4.76.417-9.138-3.092-9.766-7.829-.628-4.738 2.683-9.266 7.388-10.104z" fill="#E42527"/></svg>