<svg width="256" height="256" fill="none" viewBox="0 0 256 256" id="zohoanalytics" xmlns="http://www.w3.org/2000/svg"><path fill-rule="evenodd" clip-rule="evenodd" d="M104.459 199.892h90.625v.006c10.831 0 17.787-12.092 12.359-21.46l-30.632-52.808 21.261-36.64 1.952 7.348c.669 2.518 3.336 4.03 5.824 3.382a4.758 4.758 0 0 0 3.382-5.824l-4.9-18.452a4.758 4.758 0 0 0-5.824-3.382l-18.452 4.9a4.758 4.758 0 0 0-3.382 5.824 4.758 4.758 0 0 0 5.824 3.382l7.336-1.949-18.52 31.919-30.755-53.02c-5.415-9.331-19.303-9.33-24.718 0L48.952 178.427c-5.428 9.367 1.528 21.459 12.36 21.459h17.023a4.76 4.76 0 1 0 0-9.52H61.311c-3.623 0-5.942-4.015-4.121-7.151l66.875-115.32c1.814-3.13 6.427-3.125 8.243 0l33.488 57.73-16.072 27.703-13.294-22.921c-3.603-6.231-12.868-6.218-16.475 0L92.1 178.433c-5.428 9.367 1.528 21.459 12.359 21.459Zm-4.116-16.677 27.86-48.025 13.295 22.92c3.607 6.22 12.865 6.229 16.475.006l13.339-22.994 27.899 48.093c1.814 3.137-.494 7.151-4.121 7.151h-90.625c-3.623 0-5.942-4.015-4.122-7.151Z" fill="#F70011"/></svg>