<svg width="256" height="256" fill="none" viewBox="0 0 256 256" id="zoom" xmlns="http://www.w3.org/2000/svg"><path d="M56 99c0-23.748 19.252-43 43-43h58c23.748 0 43 19.252 43 43v58c0 23.748-19.252 43-43 43H99c-23.748 0-43-19.252-43-43V99Z" fill="#4A8CFF"/><path d="M83.086 106.083v32.896c.035 7.327 6.187 13.425 13.514 13.396h47.951c1.331.006 2.45-1.1 2.46-2.431v-32.895c-.036-7.328-6.187-13.425-13.514-13.396H85.56c-1.336-.014-2.464 1.093-2.474 2.43Zm66.977 12.833 19.797-14.463c1.719-1.425 3.052-1.067 3.052 1.512v44.098c0 2.934-1.63 2.578-3.052 1.508l-19.797-14.429v-18.226Z" fill="#fff"/></svg>