<svg width="257" height="256" fill="none" viewBox="0 0 257 256" id="zuora" xmlns="http://www.w3.org/2000/svg"><path d="M174.887 197.151H91.18c-9.235 0-13.808-11.91-6.385-17.739l18.659-15.086H68.489c-9.256 0-13.707-11.759-6.562-17.739L98.06 116.91c6.89-5.681 15.932 4.684 9.072 10.612L79.26 150.549h41.508l56.471-45.435H81.771c-12.654 0-23.363-10.333-23.363-23.045 0-12.655 10.733-23.221 23.363-23.221h81.337c9.411 0 13.559 11.766 6.385 17.739l-18.146 14.767h36.645c9.225 0 13.8 11.899 6.402 17.739l-51.607 41.456h32.1c12.62 0 23.363 10.792 23.363 23.451 0 12.759-10.702 23.151-23.363 23.151Zm-72.777-13.76h72.777c5.189 0 9.409-4.192 9.409-9.391 0-5.223-4.251-9.515-9.409-9.515h-49.255l-23.522 18.906ZM81.771 72.607c-5.195 0-9.409 4.084-9.409 9.285 0 5.223 4.251 9.285 9.409 9.285h47.557l23.027-18.57H81.771Z" fill="#00D2B9"/></svg>