<svg xmlns="http://www.w3.org/2000/svg" viewBox="0 0 200 200" width="200" height="200">
  <!-- Style 1 — Flat coin, Green -->
  <defs>
    <radialGradient id="s1g-face" cx="0.45" cy="0.35" r="0.95">
      <stop offset="0"    stop-color="#A0F0D5"/>
      <stop offset="0.45" stop-color="#3DB88A"/>
      <stop offset="0.85" stop-color="#1D8865"/>
      <stop offset="1"    stop-color="#0E4A38"/>
    </radialGradient>
    <radialGradient id="s1g-rim" cx="0.5" cy="0" r="0.5">
      <stop offset="0" stop-color="#6EE7B7" stop-opacity="0.75"/>
      <stop offset="1" stop-color="#6EE7B7" stop-opacity="0"/>
    </radialGradient>
    <radialGradient id="s1g-shadow" cx="0.5" cy="1" r="0.63">
      <stop offset="0" stop-color="#010A08" stop-opacity="0.4"/>
      <stop offset="1" stop-color="#010A08" stop-opacity="0"/>
    </radialGradient>
    <filter id="s1g-drop" x="-25%" y="-25%" width="150%" height="150%">
      <feGaussianBlur in="SourceAlpha" stdDeviation="3"/>
      <feOffset dy="4"/>
      <feComponentTransfer><feFuncA type="linear" slope="0.5"/></feComponentTransfer>
      <feMerge><feMergeNode/><feMergeNode in="SourceGraphic"/></feMerge>
    </filter>
    <filter id="s1g-mark-shadow" x="-30%" y="-30%" width="160%" height="160%">
      <feGaussianBlur stdDeviation="0.9" result="b"/>
      <feOffset in="b" dx="0" dy="1.4"/>
    </filter>
  </defs>

  <g filter="url(#s1g-drop)">
    <ellipse cx="100" cy="96" rx="84" ry="84" fill="url(#s1g-face)"/>
    <ellipse cx="100" cy="96" rx="84" ry="84" fill="url(#s1g-rim)"/>
    <ellipse cx="100" cy="96" rx="84" ry="84" fill="url(#s1g-shadow)"/>
  </g>
  <ellipse cx="100" cy="96" rx="78" ry="78" fill="none" stroke="#01140F" stroke-width="1.1" stroke-opacity="0.55"/>

  <!-- Insightis mark — solid white, single crisp shadow for depth -->
  <g transform="translate(33 30) scale(5.25 5.05)">
    <path fill="#000000" fill-opacity="0.35" filter="url(#s1g-mark-shadow)" d="M25.4928 10.4153L21.6736 12.7515L25.4928 15.077L12.7464 22.8373L0 15.077L3.81921 12.7515L0 10.4153L5.73562 6.92364L7.64785 8.08772L3.82392 10.4153L12.7464 15.8475L21.6689 10.4153L17.845 8.08772L19.7572 6.92364L25.4928 10.4153ZM12.7464 18.1757L5.72881 13.9033L3.8234 15.077L12.7464 20.5097L21.6694 15.077L19.7635 13.9033L12.7464 18.1757ZM17.845 10.4212L12.7464 13.5252L7.64785 10.4212L9.56426 9.25445L12.7464 11.1918L15.9286 9.25445L17.845 10.4212ZM17.845 5.75956L12.7464 8.86359L7.64785 5.75956L12.7464 2.65552L17.845 5.75956ZM11.4718 5.75903L12.7464 6.53543L14.0211 5.75903L12.7464 4.98315L11.4718 5.75903Z"/>
    <path fill="#FFFFFF" stroke="#000000" stroke-opacity="0.3" stroke-width="0.4" stroke-linejoin="round" d="M25.4928 10.4153L21.6736 12.7515L25.4928 15.077L12.7464 22.8373L0 15.077L3.81921 12.7515L0 10.4153L5.73562 6.92364L7.64785 8.08772L3.82392 10.4153L12.7464 15.8475L21.6689 10.4153L17.845 8.08772L19.7572 6.92364L25.4928 10.4153ZM12.7464 18.1757L5.72881 13.9033L3.8234 15.077L12.7464 20.5097L21.6694 15.077L19.7635 13.9033L12.7464 18.1757ZM17.845 10.4212L12.7464 13.5252L7.64785 10.4212L9.56426 9.25445L12.7464 11.1918L15.9286 9.25445L17.845 10.4212ZM17.845 5.75956L12.7464 8.86359L7.64785 5.75956L12.7464 2.65552L17.845 5.75956ZM11.4718 5.75903L12.7464 6.53543L14.0211 5.75903L12.7464 4.98315L11.4718 5.75903Z"/>
  </g>
</svg>
